STARTFONT 2.1
COMMENT
COMMENT Converted from OpenType font "Q:\font stuff\winfont\lucida.ttf" by "otf2bdf 3.0".
COMMENT
FONT -FreeType-Lucida Sans Unicode-Medium-R-Normal--18-180-72-72-P-97-ISO10646-1
SIZE 18 72 72
FONTBOUNDINGBOX 37 29 -11 -8
STARTPROPERTIES 19
FOUNDRY "FreeType"
FAMILY_NAME "Lucida Sans Unicode"
WEIGHT_NAME "Medium"
SLANT "R"
SETWIDTH_NAME "Normal"
ADD_STYLE_NAME ""
PIXEL_SIZE 18
POINT_SIZE 180
RESOLUTION_X 72
RESOLUTION_Y 72
SPACING "P"
AVERAGE_WIDTH 97
CHARSET_REGISTRY "ISO10646"
CHARSET_ENCODING "1"
FONT_ASCENT 19
FONT_DESCENT 7
COPYRIGHT "Copyright © 1993 Bigelow & Holmes Inc. All rights reserved. Pat. Des. 289,420. Pats. Pend."
_OTF_FONTFILE "Q:\font stuff\winfont\lucida.ttf"
_OTF_PSNAME "LucidaSansUnicode"
ENDPROPERTIES
CHARS 1753
STARTCHAR 0020
ENCODING 32
SWIDTH 333 0
DWIDTH 6 0
BBX 0 0 0 0
BITMAP
ENDCHAR
STARTCHAR 0021
ENCODING 33
SWIDTH 333 0
DWIDTH 6 0
BBX 2 13 2 0
BITMAP
C0
C0
C0
C0
C0
C0
C0
C0
C0
C0
00
00
C0
ENDCHAR
STARTCHAR 0022
ENCODING 34
SWIDTH 388 0
DWIDTH 7 0
BBX 5 4 1 10
BITMAP
D8
D8
D8
D8
ENDCHAR
STARTCHAR 0023
ENCODING 35
SWIDTH 611 0
DWIDTH 11 0
BBX 11 13 0 0
BITMAP
0480
0480
0900
0900
7FE0
0900
1A00
1200
FFC0
1200
1200
2400
2400
ENDCHAR
STARTCHAR 0024
ENCODING 36
SWIDTH 611 0
DWIDTH 11 0
BBX 7 15 2 -1
BITMAP
10
7C
D2
D0
D0
D0
70
38
1C
16
16
16
9C
78
10
ENDCHAR
STARTCHAR 0025
ENCODING 37
SWIDTH 666 0
DWIDTH 12 0
BBX 12 13 0 0
BITMAP
7810
8420
8440
8480
8500
8600
7DE0
0610
0A10
1210
2210
4210
01E0
ENDCHAR
STARTCHAR 0026
ENCODING 38
SWIDTH 722 0
DWIDTH 13 0
BBX 11 13 1 0
BITMAP
1E00
3300
3300
3300
1E00
3C00
6C60
C660
C660
C340
C1C0
63C0
3EE0
ENDCHAR
STARTCHAR 0027
ENCODING 39
SWIDTH 222 0
DWIDTH 4 0
BBX 2 5 1 9
BITMAP
C0
C0
C0
C0
C0
ENDCHAR
STARTCHAR 0028
ENCODING 40
SWIDTH 333 0
DWIDTH 6 0
BBX 4 17 2 -3
BITMAP
10
30
20
60
40
C0
C0
C0
C0
C0
C0
C0
40
60
20
30
10
ENDCHAR
STARTCHAR 0029
ENCODING 41
SWIDTH 333 0
DWIDTH 6 0
BBX 4 17 1 -3
BITMAP
80
C0
40
60
20
30
30
30
30
30
30
30
20
60
40
C0
80
ENDCHAR
STARTCHAR 002A
ENCODING 42
SWIDTH 500 0
DWIDTH 9 0
BBX 7 6 1 7
BITMAP
10
10
D6
28
28
44
ENDCHAR
STARTCHAR 002B
ENCODING 43
SWIDTH 777 0
DWIDTH 14 0
BBX 11 11 2 0
BITMAP
0400
0400
0400
0400
0400
FFE0
0400
0400
0400
0400
0400
ENDCHAR
STARTCHAR 002C
ENCODING 44
SWIDTH 333 0
DWIDTH 6 0
BBX 2 5 2 -3
BITMAP
C0
C0
40
40
80
ENDCHAR
STARTCHAR 002D
ENCODING 45
SWIDTH 555 0
DWIDTH 10 0
BBX 8 1 1 5
BITMAP
FF
ENDCHAR
STARTCHAR 002E
ENCODING 46
SWIDTH 333 0
DWIDTH 6 0
BBX 2 2 2 0
BITMAP
C0
C0
ENDCHAR
STARTCHAR 002F
ENCODING 47
SWIDTH 500 0
DWIDTH 9 0
BBX 6 16 2 -3
BITMAP
04
04
08
08
08
10
10
10
20
20
20
40
40
40
80
80
ENDCHAR
STARTCHAR 0030
ENCODING 48
SWIDTH 611 0
DWIDTH 11 0
BBX 10 13 1 0
BITMAP
1E00
3300
6180
6180
C0C0
C0C0
C0C0
C0C0
C0C0
6180
6180
3300
1E00
ENDCHAR
STARTCHAR 0031
ENCODING 49
SWIDTH 611 0
DWIDTH 11 0
BBX 4 13 3 0
BITMAP
F0
30
30
30
30
30
30
30
30
30
30
30
30
ENDCHAR
STARTCHAR 0032
ENCODING 50
SWIDTH 611 0
DWIDTH 11 0
BBX 8 13 2 0
BITMAP
7C
86
03
03
03
03
06
0C
18
30
60
C0
FF
ENDCHAR
STARTCHAR 0033
ENCODING 51
SWIDTH 611 0
DWIDTH 11 0
BBX 8 13 2 0
BITMAP
7C
86
03
03
03
06
78
06
03
03
03
86
7C
ENDCHAR
STARTCHAR 0034
ENCODING 52
SWIDTH 611 0
DWIDTH 11 0
BBX 9 13 1 0
BITMAP
0600
0E00
1600
1600
2600
2600
4600
8600
FF80
0600
0600
0600
0600
ENDCHAR
STARTCHAR 0035
ENCODING 53
SWIDTH 611 0
DWIDTH 11 0
BBX 7 13 2 0
BITMAP
FE
C0
C0
C0
C0
F8
0C
06
06
06
06
0C
F8
ENDCHAR
STARTCHAR 0036
ENCODING 54
SWIDTH 611 0
DWIDTH 11 0
BBX 9 13 1 0
BITMAP
1E00
3100
6000
6000
C000
DE00
E300
C180
C180
C180
6180
6300
1E00
ENDCHAR
STARTCHAR 0037
ENCODING 55
SWIDTH 611 0
DWIDTH 11 0
BBX 8 13 2 0
BITMAP
FF
01
02
02
04
0C
08
18
10
30
30
60
60
ENDCHAR
STARTCHAR 0038
ENCODING 56
SWIDTH 611 0
DWIDTH 11 0
BBX 9 13 2 0
BITMAP
3E00
6300
6300
6300
3300
3E00
6600
C300
C180
C180
C180
6300
3E00
ENDCHAR
STARTCHAR 0039
ENCODING 57
SWIDTH 611 0
DWIDTH 11 0
BBX 9 13 1 0
BITMAP
3C00
6300
C300
C180
C180
C180
6380
3D80
0180
0300
0300
0600
7C00
ENDCHAR
STARTCHAR 003A
ENCODING 58
SWIDTH 333 0
DWIDTH 6 0
BBX 2 10 2 0
BITMAP
C0
00
00
00
00
00
00
00
00
C0
ENDCHAR
STARTCHAR 003B
ENCODING 59
SWIDTH 333 0
DWIDTH 6 0
BBX 2 13 2 -3
BITMAP
C0
00
00
00
00
00
00
00
00
C0
40
40
80
ENDCHAR
STARTCHAR 003C
ENCODING 60
SWIDTH 777 0
DWIDTH 14 0
BBX 10 11 2 0
BITMAP
0040
0180
0600
0C00
3000
C000
3000
0C00
0600
0180
0040
ENDCHAR
STARTCHAR 003D
ENCODING 61
SWIDTH 777 0
DWIDTH 14 0
BBX 10 4 2 3
BITMAP
FFC0
0000
0000
FFC0
ENDCHAR
STARTCHAR 003E
ENCODING 62
SWIDTH 777 0
DWIDTH 14 0
BBX 10 11 2 0
BITMAP
8000
6000
1800
0C00
0300
00C0
0300
0C00
1800
6000
8000
ENDCHAR
STARTCHAR 003F
ENCODING 63
SWIDTH 444 0
DWIDTH 8 0
BBX 7 13 0 0
BITMAP
78
8E
06
06
0E
0C
18
30
30
30
00
00
30
ENDCHAR
STARTCHAR 0040
ENCODING 64
SWIDTH 833 0
DWIDTH 15 0
BBX 14 13 1 0
BITMAP
07E0
1830
3008
63C4
4444
8844
9084
9188
9298
9CE0
4000
2080
1F00
ENDCHAR
STARTCHAR 0041
ENCODING 65
SWIDTH 666 0
DWIDTH 12 0
BBX 12 13 0 0
BITMAP
0600
0600
0B00
0B00
1180
1180
1180
20C0
3FC0
4060
4060
4060
8030
ENDCHAR
STARTCHAR 0042
ENCODING 66
SWIDTH 555 0
DWIDTH 10 0
BBX 8 13 2 0
BITMAP
F8
CC
C6
C6
C6
CC
F8
C6
C3
C3
C3
C6
FC
ENDCHAR
STARTCHAR 0043
ENCODING 67
SWIDTH 666 0
DWIDTH 12 0
BBX 11 13 1 0
BITMAP
0FC0
3060
6000
6000
C000
C000
C000
C000
C000
6000
6000
3820
0FC0
ENDCHAR
STARTCHAR 0044
ENCODING 68
SWIDTH 722 0
DWIDTH 13 0
BBX 11 13 2 0
BITMAP
FE00
C180
C0C0
C0C0
C060
C060
C060
C060
C060
C0C0
C0C0
C180
FE00
ENDCHAR
STARTCHAR 0045
ENCODING 69
SWIDTH 555 0
DWIDTH 10 0
BBX 8 13 2 0
BITMAP
FF
C0
C0
C0
C0
C0
FE
C0
C0
C0
C0
C0
FF
ENDCHAR
STARTCHAR 0046
ENCODING 70
SWIDTH 555 0
DWIDTH 10 0
BBX 7 13 2 0
BITMAP
FE
C0
C0
C0
C0
C0
FC
C0
C0
C0
C0
C0
C0
ENDCHAR
STARTCHAR 0047
ENCODING 71
SWIDTH 722 0
DWIDTH 13 0
BBX 11 13 1 0
BITMAP
0FC0
3060
6000
6000
C000
C000
C000
C060
C060
6060
6060
3860
0FC0
ENDCHAR
STARTCHAR 0048
ENCODING 72
SWIDTH 722 0
DWIDTH 13 0
BBX 10 13 2 0
BITMAP
C0C0
C0C0
C0C0
C0C0
C0C0
FFC0
C0C0
C0C0
C0C0
C0C0
C0C0
C0C0
C0C0
ENDCHAR
STARTCHAR 0049
ENCODING 73
SWIDTH 277 0
DWIDTH 5 0
BBX 2 13 2 0
BITMAP
C0
C0
C0
C0
C0
C0
C0
C0
C0
C0
C0
C0
C0
ENDCHAR
STARTCHAR 004A
ENCODING 74
SWIDTH 333 0
DWIDTH 6 0
BBX 6 16 -1 -3
BITMAP
0C
0C
0C
0C
0C
0C
0C
0C
0C
0C
0C
0C
0C
0C
18
F0
ENDCHAR
STARTCHAR 004B
ENCODING 75
SWIDTH 666 0
DWIDTH 12 0
BBX 9 13 2 0
BITMAP
C100
C200
C400
C800
D000
E000
F000
D800
CC00
CC00
C600
C300
C180
ENDCHAR
STARTCHAR 004C
ENCODING 76
SWIDTH 555 0
DWIDTH 10 0
BBX 8 13 2 0
BITMAP
C0
C0
C0
C0
C0
C0
C0
C0
C0
C0
C0
C0
FF
ENDCHAR
STARTCHAR 004D
ENCODING 77
SWIDTH 888 0
DWIDTH 16 0
BBX 12 13 2 0
BITMAP
C070
E070
E070
E0B0
B0B0
B0B0
9130
9930
9930
8E30
8E30
8630
8030
ENDCHAR
STARTCHAR 004E
ENCODING 78
SWIDTH 722 0
DWIDTH 13 0
BBX 10 13 2 0
BITMAP
C040
E040
E040
B040
9840
9840
8C40
8640
8640
8340
81C0
81C0
80C0
ENDCHAR
STARTCHAR 004F
ENCODING 79
SWIDTH 777 0
DWIDTH 14 0
BBX 13 13 1 0
BITMAP
0F80
3060
6030
6030
C018
C018
C018
C018
C018
6030
6030
3060
0F80
ENDCHAR
STARTCHAR 0050
ENCODING 80
SWIDTH 555 0
DWIDTH 10 0
BBX 8 13 2 0
BITMAP
FC
C6
C3
C3
C3
C3
C6
FC
C0
C0
C0
C0
C0
ENDCHAR
STARTCHAR 0051
ENCODING 81
SWIDTH 777 0
DWIDTH 14 0
BBX 13 15 1 -2
BITMAP
0F80
3060
6030
6030
C018
C018
C018
C018
C018
6030
6030
3060
0FC0
0070
0018
ENDCHAR
STARTCHAR 0052
ENCODING 82
SWIDTH 611 0
DWIDTH 11 0
BBX 10 13 2 0
BITMAP
FC00
C600
C300
C300
C300
C600
F800
CC00
C600
C700
C300
C180
C0C0
ENDCHAR
STARTCHAR 0053
ENCODING 83
SWIDTH 555 0
DWIDTH 10 0
BBX 8 13 1 0
BITMAP
3C
62
C0
C0
C0
70
3C
0E
03
03
03
86
7C
ENDCHAR
STARTCHAR 0054
ENCODING 84
SWIDTH 611 0
DWIDTH 11 0
BBX 12 13 0 0
BITMAP
FFF0
0600
0600
0600
0600
0600
0600
0600
0600
0600
0600
0600
0600
ENDCHAR
STARTCHAR 0055
ENCODING 85
SWIDTH 666 0
DWIDTH 12 0
BBX 9 13 2 0
BITMAP
C180
C180
C180
C180
C180
C180
C180
C180
C180
C180
C180
6300
3E00
ENDCHAR
STARTCHAR 0056
ENCODING 86
SWIDTH 666 0
DWIDTH 12 0
BBX 11 13 0 0
BITMAP
C020
6040
6040
6040
3080
3080
1880
1900
1900
0D00
0E00
0600
0600
ENDCHAR
STARTCHAR 0057
ENCODING 87
SWIDTH 833 0
DWIDTH 15 0
BBX 15 13 0 0
BITMAP
C182
C182
62C4
62C4
62C4
62C4
32EC
3468
3468
3468
3478
1830
1830
ENDCHAR
STARTCHAR 0058
ENCODING 88
SWIDTH 611 0
DWIDTH 11 0
BBX 11 13 0 0
BITMAP
E020
6040
3080
3900
1B00
0E00
0E00
0E00
1300
1380
2180
40C0
80E0
ENDCHAR
STARTCHAR 0059
ENCODING 89
SWIDTH 611 0
DWIDTH 11 0
BBX 11 13 0 0
BITMAP
C020
6040
6080
3080
3100
1A00
1A00
0C00
0C00
0C00
0C00
0C00
0C00
ENDCHAR
STARTCHAR 005A
ENCODING 90
SWIDTH 611 0
DWIDTH 11 0
BBX 9 13 1 0
BITMAP
FF80
0180
0300
0600
0600
0C00
1800
1800
3000
3000
6000
C000
FF80
ENDCHAR
STARTCHAR 005B
ENCODING 91
SWIDTH 333 0
DWIDTH 6 0
BBX 3 17 2 -3
BITMAP
E0
C0
C0
C0
C0
C0
C0
C0
C0
C0
C0
C0
C0
C0
C0
C0
E0
ENDCHAR
STARTCHAR 005C
ENCODING 92
SWIDTH 500 0
DWIDTH 9 0
BBX 6 16 2 -3
BITMAP
80
80
40
40
40
20
20
20
10
10
10
08
08
08
04
04
ENDCHAR
STARTCHAR 005D
ENCODING 93
SWIDTH 333 0
DWIDTH 6 0
BBX 3 17 1 -3
BITMAP
E0
60
60
60
60
60
60
60
60
60
60
60
60
60
60
60
E0
ENDCHAR
STARTCHAR 005E
ENCODING 94
SWIDTH 611 0
DWIDTH 11 0
BBX 9 10 1 3
BITMAP
0800
0800
1C00
1400
3600
2200
2200
4100
4100
C180
ENDCHAR
STARTCHAR 005F
ENCODING 95
SWIDTH 500 0
DWIDTH 9 0
BBX 7 1 1 -1
BITMAP
FE
ENDCHAR
STARTCHAR 0060
ENCODING 96
SWIDTH 611 0
DWIDTH 11 0
BBX 4 3 3 11
BITMAP
C0
60
30
ENDCHAR
STARTCHAR 0061
ENCODING 97
SWIDTH 555 0
DWIDTH 10 0
BBX 8 10 1 0
BITMAP
3C
46
06
06
3E
66
C6
C6
CE
73
ENDCHAR
STARTCHAR 0062
ENCODING 98
SWIDTH 611 0
DWIDTH 11 0
BBX 9 14 2 0
BITMAP
C000
C000
C000
C000
DE00
E300
C180
C180
C180
C180
C180
C300
E300
DC00
ENDCHAR
STARTCHAR 0063
ENCODING 99
SWIDTH 500 0
DWIDTH 9 0
BBX 7 10 1 0
BITMAP
1E
60
60
C0
C0
C0
C0
60
62
1C
ENDCHAR
STARTCHAR 0064
ENCODING 100
SWIDTH 611 0
DWIDTH 11 0
BBX 9 14 1 0
BITMAP
0180
0180
0180
0180
1D80
6380
6180
C180
C180
C180
C180
C180
6380
3D80
ENDCHAR
STARTCHAR 0065
ENCODING 101
SWIDTH 555 0
DWIDTH 10 0
BBX 9 10 1 0
BITMAP
1E00
6300
6180
C180
FF80
C000
C000
6000
6080
1F00
ENDCHAR
STARTCHAR 0066
ENCODING 102
SWIDTH 388 0
DWIDTH 7 0
BBX 6 14 1 0
BITMAP
3C
60
60
60
F8
60
60
60
60
60
60
60
60
60
ENDCHAR
STARTCHAR 0067
ENCODING 103
SWIDTH 611 0
DWIDTH 11 0
BBX 9 13 1 -3
BITMAP
1D80
6380
6180
C180
C180
C180
C180
C180
6380
3D80
0180
4300
3E00
ENDCHAR
STARTCHAR 0068
ENCODING 104
SWIDTH 611 0
DWIDTH 11 0
BBX 8 14 2 0
BITMAP
C0
C0
C0
C0
CE
D3
E3
C3
C3
C3
C3
C3
C3
C3
ENDCHAR
STARTCHAR 0069
ENCODING 105
SWIDTH 277 0
DWIDTH 5 0
BBX 2 13 2 0
BITMAP
C0
00
00
C0
C0
C0
C0
C0
C0
C0
C0
C0
C0
ENDCHAR
STARTCHAR 006A
ENCODING 106
SWIDTH 277 0
DWIDTH 5 0
BBX 5 16 -1 -3
BITMAP
18
00
00
18
18
18
18
18
18
18
18
18
18
18
18
F0
ENDCHAR
STARTCHAR 006B
ENCODING 107
SWIDTH 611 0
DWIDTH 11 0
BBX 8 14 2 0
BITMAP
C0
C0
C0
C0
C2
C4
C8
D0
E0
F0
D8
CC
C6
C3
ENDCHAR
STARTCHAR 006C
ENCODING 108
SWIDTH 277 0
DWIDTH 5 0
BBX 2 14 2 0
BITMAP
C0
C0
C0
C0
C0
C0
C0
C0
C0
C0
C0
C0
C0
C0
ENDCHAR
STARTCHAR 006D
ENCODING 109
SWIDTH 944 0
DWIDTH 17 0
BBX 14 10 2 0
BITMAP
CE78
F38C
C30C
C30C
C30C
C30C
C30C
C30C
C30C
C30C
ENDCHAR
STARTCHAR 006E
ENCODING 110
SWIDTH 611 0
DWIDTH 11 0
BBX 8 10 2 0
BITMAP
CE
D3
E3
C3
C3
C3
C3
C3
C3
C3
ENDCHAR
STARTCHAR 006F
ENCODING 111
SWIDTH 611 0
DWIDTH 11 0
BBX 10 10 1 0
BITMAP
1E00
6180
6180
C0C0
C0C0
C0C0
C0C0
6180
6180
1E00
ENDCHAR
STARTCHAR 0070
ENCODING 112
SWIDTH 611 0
DWIDTH 11 0
BBX 9 13 2 -3
BITMAP
DE00
E300
C180
C180
C180
C180
C180
C300
E300
DC00
C000
C000
C000
ENDCHAR
STARTCHAR 0071
ENCODING 113
SWIDTH 611 0
DWIDTH 11 0
BBX 9 13 1 -3
BITMAP
1D80
6380
6180
C180
C180
C180
C180
C180
6380
3D80
0180
0180
0180
ENDCHAR
STARTCHAR 0072
ENCODING 114
SWIDTH 388 0
DWIDTH 7 0
BBX 5 10 2 0
BITMAP
D8
E0
C0
C0
C0
C0
C0
C0
C0
C0
ENDCHAR
STARTCHAR 0073
ENCODING 115
SWIDTH 500 0
DWIDTH 9 0
BBX 7 10 1 0
BITMAP
7C
C0
C0
E0
78
1C
06
06
86
78
ENDCHAR
STARTCHAR 0074
ENCODING 116
SWIDTH 388 0
DWIDTH 7 0
BBX 5 12 1 0
BITMAP
60
60
F8
60
60
60
60
60
60
60
60
38
ENDCHAR
STARTCHAR 0075
ENCODING 117
SWIDTH 611 0
DWIDTH 11 0
BBX 8 10 2 0
BITMAP
C3
C3
C3
C3
C3
C3
C3
C7
CB
73
ENDCHAR
STARTCHAR 0076
ENCODING 118
SWIDTH 500 0
DWIDTH 9 0
BBX 9 10 0 0
BITMAP
C080
6100
6100
6100
3200
3200
3600
1C00
1C00
1800
ENDCHAR
STARTCHAR 0077
ENCODING 119
SWIDTH 777 0
DWIDTH 14 0
BBX 14 10 0 0
BITMAP
C384
C384
6388
6388
64C8
34D0
34D0
34D0
1860
1860
ENDCHAR
STARTCHAR 0078
ENCODING 120
SWIDTH 611 0
DWIDTH 11 0
BBX 10 10 1 0
BITMAP
E040
7080
3100
1A00
1C00
0C00
1600
2300
4380
81C0
ENDCHAR
STARTCHAR 0079
ENCODING 121
SWIDTH 500 0
DWIDTH 9 0
BBX 9 13 0 -3
BITMAP
C080
6100
6100
6100
3200
3200
3400
1C00
1C00
1800
0800
1000
1000
ENDCHAR
STARTCHAR 007A
ENCODING 122
SWIDTH 555 0
DWIDTH 10 0
BBX 8 10 1 0
BITMAP
FF
03
06
0C
18
18
30
60
C0
FF
ENDCHAR
STARTCHAR 007B
ENCODING 123
SWIDTH 333 0
DWIDTH 6 0
BBX 5 17 0 -3
BITMAP
18
20
20
20
20
20
20
20
C0
20
20
20
20
20
20
20
18
ENDCHAR
STARTCHAR 007C
ENCODING 124
SWIDTH 388 0
DWIDTH 7 0
BBX 1 17 3 -3
BITMAP
80
80
80
80
80
80
80
80
80
80
80
80
80
80
80
80
80
ENDCHAR
STARTCHAR 007D
ENCODING 125
SWIDTH 333 0
DWIDTH 6 0
BBX 5 17 1 -3
BITMAP
C0
20
20
20
20
20
20
20
18
20
20
20
20
20
20
20
C0
ENDCHAR
STARTCHAR 007E
ENCODING 126
SWIDTH 611 0
DWIDTH 11 0
BBX 10 3 1 4
BITMAP
7040
8C40
8380
ENDCHAR
STARTCHAR 00A0
ENCODING 160
SWIDTH 333 0
DWIDTH 6 0
BBX 0 0 0 0
BITMAP
ENDCHAR
STARTCHAR 00A1
ENCODING 161
SWIDTH 333 0
DWIDTH 6 0
BBX 2 13 2 -3
BITMAP
C0
00
00
C0
C0
C0
C0
C0
C0
C0
C0
C0
C0
ENDCHAR
STARTCHAR 00A2
ENCODING 162
SWIDTH 611 0
DWIDTH 11 0
BBX 7 13 2 0
BITMAP
08
08
3E
68
C8
C8
C8
C8
C8
6A
3C
08
08
ENDCHAR
STARTCHAR 00A3
ENCODING 163
SWIDTH 611 0
DWIDTH 11 0
BBX 7 13 2 0
BITMAP
1E
10
30
30
30
30
F8
30
30
30
30
60
FE
ENDCHAR
STARTCHAR 00A4
ENCODING 164
SWIDTH 611 0
DWIDTH 11 0
BBX 10 10 1 1
BITMAP
8040
5E80
2100
4080
4080
4080
4080
2100
5E80
8040
ENDCHAR
STARTCHAR 00A5
ENCODING 165
SWIDTH 611 0
DWIDTH 11 0
BBX 10 13 1 0
BITMAP
C040
6080
7080
3100
1A00
1A00
0C00
7F00
0C00
7F00
0C00
0C00
0C00
ENDCHAR
STARTCHAR 00A6
ENCODING 166
SWIDTH 388 0
DWIDTH 7 0
BBX 1 17 3 -3
BITMAP
80
80
80
80
80
80
80
00
00
00
80
80
80
80
80
80
80
ENDCHAR
STARTCHAR 00A7
ENCODING 167
SWIDTH 611 0
DWIDTH 11 0
BBX 8 16 2 -3
BITMAP
3C
E2
C0
C0
F0
7C
CF
C3
E3
73
3E
0F
03
03
87
7C
ENDCHAR
STARTCHAR 00A8
ENCODING 168
SWIDTH 611 0
DWIDTH 11 0
BBX 5 1 3 11
BITMAP
D8
ENDCHAR
STARTCHAR 00A9
ENCODING 169
SWIDTH 833 0
DWIDTH 15 0
BBX 13 13 1 0
BITMAP
0F80
3060
6030
4790
8808
9008
9008
9008
8808
4790
6030
3060
0F80
ENDCHAR
STARTCHAR 00AA
ENCODING 170
SWIDTH 444 0
DWIDTH 8 0
BBX 6 6 1 8
BITMAP
70
08
78
88
88
7C
ENDCHAR
STARTCHAR 00AB
ENCODING 171
SWIDTH 500 0
DWIDTH 9 0
BBX 7 7 1 1
BITMAP
12
24
6C
D8
6C
24
12
ENDCHAR
STARTCHAR 00AC
ENCODING 172
SWIDTH 777 0
DWIDTH 14 0
BBX 10 4 2 3
BITMAP
FFC0
0040
0040
0040
ENDCHAR
STARTCHAR 00AD
ENCODING 173
SWIDTH 333 0
DWIDTH 6 0
BBX 4 1 1 5
BITMAP
F0
ENDCHAR
STARTCHAR 00AE
ENCODING 174
SWIDTH 611 0
DWIDTH 11 0
BBX 8 8 2 5
BITMAP
3C
42
B9
A5
B9
A9
42
3C
ENDCHAR
STARTCHAR 00AF
ENCODING 175
SWIDTH 500 0
DWIDTH 9 0
BBX 7 1 1 13
BITMAP
FE
ENDCHAR
STARTCHAR 00B0
ENCODING 176
SWIDTH 277 0
DWIDTH 5 0
BBX 4 4 1 9
BITMAP
60
90
90
60
ENDCHAR
STARTCHAR 00B1
ENCODING 177
SWIDTH 777 0
DWIDTH 14 0
BBX 11 10 2 0
BITMAP
0400
0400
0400
FFE0
0400
0400
0400
0000
0000
FFE0
ENDCHAR
STARTCHAR 00B2
ENCODING 178
SWIDTH 444 0
DWIDTH 8 0
BBX 5 8 1 5
BITMAP
F0
08
08
08
30
40
80
F8
ENDCHAR
STARTCHAR 00B3
ENCODING 179
SWIDTH 444 0
DWIDTH 8 0
BBX 5 8 1 5
BITMAP
F0
08
08
70
18
08
08
F0
ENDCHAR
STARTCHAR 00B4
ENCODING 180
SWIDTH 611 0
DWIDTH 11 0
BBX 4 3 3 11
BITMAP
30
60
C0
ENDCHAR
STARTCHAR 00B5
ENCODING 181
SWIDTH 611 0
DWIDTH 11 0
BBX 8 13 2 -3
BITMAP
C3
C3
C3
C3
C3
C3
C3
C7
CB
F3
C0
C0
C0
ENDCHAR
STARTCHAR 00B6
ENCODING 182
SWIDTH 611 0
DWIDTH 11 0
BBX 7 16 2 -3
BITMAP
7E
FA
FA
FA
FA
7A
1A
0A
0A
0A
0A
0A
0A
0A
0A
0A
ENDCHAR
STARTCHAR 00B7
ENCODING 183
SWIDTH 611 0
DWIDTH 11 0
BBX 2 2 5 4
BITMAP
C0
C0
ENDCHAR
STARTCHAR 00B8
ENCODING 184
SWIDTH 611 0
DWIDTH 11 0
BBX 3 4 4 -4
BITMAP
40
E0
20
E0
ENDCHAR
STARTCHAR 00B9
ENCODING 185
SWIDTH 444 0
DWIDTH 8 0
BBX 3 8 2 5
BITMAP
E0
20
20
20
20
20
20
20
ENDCHAR
STARTCHAR 00BA
ENCODING 186
SWIDTH 444 0
DWIDTH 8 0
BBX 6 6 1 8
BITMAP
78
84
84
84
84
78
ENDCHAR
STARTCHAR 00BB
ENCODING 187
SWIDTH 500 0
DWIDTH 9 0
BBX 7 7 1 1
BITMAP
90
48
6C
36
6C
48
90
ENDCHAR
STARTCHAR 00BC
ENCODING 188
SWIDTH 777 0
DWIDTH 14 0
BBX 13 13 1 0
BITMAP
E010
2020
2040
2080
2080
2110
2230
2450
0890
0910
11F8
2010
4010
ENDCHAR
STARTCHAR 00BD
ENCODING 189
SWIDTH 777 0
DWIDTH 14 0
BBX 12 13 1 0
BITMAP
E020
2040
2080
2100
2100
23E0
2410
2810
1010
1060
2080
4100
81F0
ENDCHAR
STARTCHAR 00BE
ENCODING 190
SWIDTH 777 0
DWIDTH 14 0
BBX 14 13 0 0
BITMAP
F004
0808
0810
7020
1820
0848
0898
F128
0248
0288
04FC
0808
1008
ENDCHAR
STARTCHAR 00BF
ENCODING 191
SWIDTH 444 0
DWIDTH 8 0
BBX 7 13 0 -3
BITMAP
18
00
00
18
18
18
30
60
E0
C0
C0
E0
3E
ENDCHAR
STARTCHAR 00C0
ENCODING 192
SWIDTH 666 0
DWIDTH 12 0
BBX 12 17 0 0
BITMAP
1800
0C00
0600
0000
0600
0600
0B00
0B00
1180
1180
1180
20C0
3FC0
4060
4060
4060
8030
ENDCHAR
STARTCHAR 00C1
ENCODING 193
SWIDTH 666 0
DWIDTH 12 0
BBX 12 17 0 0
BITMAP
0180
0300
0600
0000
0600
0600
0B00
0B00
1180
1180
1180
20C0
3FC0
4060
4060
4060
8030
ENDCHAR
STARTCHAR 00C2
ENCODING 194
SWIDTH 666 0
DWIDTH 12 0
BBX 12 17 0 0
BITMAP
0E00
1B00
3180
0000
0600
0600
0B00
0B00
1180
1180
1180
20C0
3FC0
4060
4060
4060
8030
ENDCHAR
STARTCHAR 00C3
ENCODING 195
SWIDTH 666 0
DWIDTH 12 0
BBX 12 16 0 0
BITMAP
1C80
1380
0000
0600
0600
0B00
0B00
1180
1180
1180
20C0
3FC0
4060
4060
4060
8030
ENDCHAR
STARTCHAR 00C4
ENCODING 196
SWIDTH 666 0
DWIDTH 12 0
BBX 12 15 0 0
BITMAP
1B00
0000
0600
0600
0B00
0B00
1180
1180
1180
20C0
3FC0
4060
4060
4060
8030
ENDCHAR
STARTCHAR 00C5
ENCODING 197
SWIDTH 666 0
DWIDTH 12 0
BBX 12 18 0 0
BITMAP
0600
0900
0900
0600
0000
0600
0600
0B00
0B00
1180
1180
1180
20C0
3FC0
4060
4060
4060
8030
ENDCHAR
STARTCHAR 00C6
ENCODING 198
SWIDTH 888 0
DWIDTH 16 0
BBX 16 13 0 0
BITMAP
00FF
01C0
02C0
02C0
04C0
04C0
08FE
10C0
1FC0
20C0
20C0
40C0
80FF
ENDCHAR
STARTCHAR 00C7
ENCODING 199
SWIDTH 666 0
DWIDTH 12 0
BBX 11 17 1 -4
BITMAP
0FC0
3060
6000
6000
C000
C000
C000
C000
C000
6000
6000
3820
0FC0
0200
0700
0100
0700
ENDCHAR
STARTCHAR 00C8
ENCODING 200
SWIDTH 555 0
DWIDTH 10 0
BBX 8 17 2 0
BITMAP
60
30
18
00
FF
C0
C0
C0
C0
C0
FE
C0
C0
C0
C0
C0
FF
ENDCHAR
STARTCHAR 00C9
ENCODING 201
SWIDTH 555 0
DWIDTH 10 0
BBX 8 17 2 0
BITMAP
0C
18
30
00
FF
C0
C0
C0
C0
C0
FE
C0
C0
C0
C0
C0
FF
ENDCHAR
STARTCHAR 00CA
ENCODING 202
SWIDTH 555 0
DWIDTH 10 0
BBX 8 17 2 0
BITMAP
38
6C
C6
00
FF
C0
C0
C0
C0
C0
FE
C0
C0
C0
C0
C0
FF
ENDCHAR
STARTCHAR 00CB
ENCODING 203
SWIDTH 555 0
DWIDTH 10 0
BBX 8 15 2 0
BITMAP
6C
00
FF
C0
C0
C0
C0
C0
FE
C0
C0
C0
C0
C0
FF
ENDCHAR
STARTCHAR 00CC
ENCODING 204
SWIDTH 277 0
DWIDTH 5 0
BBX 4 17 0 0
BITMAP
C0
60
30
00
30
30
30
30
30
30
30
30
30
30
30
30
30
ENDCHAR
STARTCHAR 00CD
ENCODING 205
SWIDTH 277 0
DWIDTH 5 0
BBX 4 17 2 0
BITMAP
30
60
C0
00
C0
C0
C0
C0
C0
C0
C0
C0
C0
C0
C0
C0
C0
ENDCHAR
STARTCHAR 00CE
ENCODING 206
SWIDTH 277 0
DWIDTH 5 0
BBX 7 17 0 0
BITMAP
38
6C
C6
00
30
30
30
30
30
30
30
30
30
30
30
30
30
ENDCHAR
STARTCHAR 00CF
ENCODING 207
SWIDTH 277 0
DWIDTH 5 0
BBX 5 15 1 0
BITMAP
D8
00
60
60
60
60
60
60
60
60
60
60
60
60
60
ENDCHAR
STARTCHAR 00D0
ENCODING 208
SWIDTH 722 0
DWIDTH 13 0
BBX 13 13 0 0
BITMAP
3FC0
3060
3030
3030
3018
3018
FE18
3018
3018
3030
3030
3060
3F80
ENDCHAR
STARTCHAR 00D1
ENCODING 209
SWIDTH 722 0
DWIDTH 13 0
BBX 10 16 2 0
BITMAP
3900
2700
0000
C040
E040
E040
B040
9840
9840
8C40
8640
8640
8340
81C0
81C0
80C0
ENDCHAR
STARTCHAR 00D2
ENCODING 210
SWIDTH 777 0
DWIDTH 14 0
BBX 13 17 1 0
BITMAP
0C00
0600
0300
0000
0F80
3060
6030
6030
C018
C018
C018
C018
C018
6030
6030
3060
0F80
ENDCHAR
STARTCHAR 00D3
ENCODING 211
SWIDTH 777 0
DWIDTH 14 0
BBX 13 17 1 0
BITMAP
0180
0300
0600
0000
0F80
3060
6030
6030
C018
C018
C018
C018
C018
6030
6030
3060
0F80
ENDCHAR
STARTCHAR 00D4
ENCODING 212
SWIDTH 777 0
DWIDTH 14 0
BBX 13 17 1 0
BITMAP
0700
0D80
18C0
0000
0F80
3060
6030
6030
C018
C018
C018
C018
C018
6030
6030
3060
0F80
ENDCHAR
STARTCHAR 00D5
ENCODING 213
SWIDTH 777 0
DWIDTH 14 0
BBX 13 16 1 0
BITMAP
0E40
09C0
0000
0F80
3060
6030
6030
C018
C018
C018
C018
C018
6030
6030
3060
0F80
ENDCHAR
STARTCHAR 00D6
ENCODING 214
SWIDTH 777 0
DWIDTH 14 0
BBX 13 15 1 0
BITMAP
0D80
0000
0F80
3060
6030
6030
C018
C018
C018
C018
C018
6030
6030
3060
0F80
ENDCHAR
STARTCHAR 00D7
ENCODING 215
SWIDTH 777 0
DWIDTH 14 0
BBX 9 9 3 1
BITMAP
8080
4100
2200
1400
0800
1400
2200
4100
8080
ENDCHAR
STARTCHAR 00D8
ENCODING 216
SWIDTH 777 0
DWIDTH 14 0
BBX 13 13 1 0
BITMAP
0FD8
3070
6030
6070
C098
C118
C218
C418
C818
7030
6030
7060
DF80
ENDCHAR
STARTCHAR 00D9
ENCODING 217
SWIDTH 666 0
DWIDTH 12 0
BBX 9 17 2 0
BITMAP
3000
1800
0C00
0000
C180
C180
C180
C180
C180
C180
C180
C180
C180
C180
C180
6300
3E00
ENDCHAR
STARTCHAR 00DA
ENCODING 218
SWIDTH 666 0
DWIDTH 12 0
BBX 9 17 2 0
BITMAP
0300
0600
0C00
0000
C180
C180
C180
C180
C180
C180
C180
C180
C180
C180
C180
6300
3E00
ENDCHAR
STARTCHAR 00DB
ENCODING 219
SWIDTH 666 0
DWIDTH 12 0
BBX 9 17 2 0
BITMAP
3800
6C00
C600
0000
C180
C180
C180
C180
C180
C180
C180
C180
C180
C180
C180
6300
3E00
ENDCHAR
STARTCHAR 00DC
ENCODING 220
SWIDTH 666 0
DWIDTH 12 0
BBX 9 15 2 0
BITMAP
3600
0000
C180
C180
C180
C180
C180
C180
C180
C180
C180
C180
C180
6300
3E00
ENDCHAR
STARTCHAR 00DD
ENCODING 221
SWIDTH 611 0
DWIDTH 11 0
BBX 11 17 0 0
BITMAP
0300
0600
0C00
0000
C020
6040
6080
3080
3100
1A00
1A00
0C00
0C00
0C00
0C00
0C00
0C00
ENDCHAR
STARTCHAR 00DE
ENCODING 222
SWIDTH 555 0
DWIDTH 10 0
BBX 8 13 2 0
BITMAP
C0
C0
C0
FC
C6
C3
C3
C3
C6
FC
C0
C0
C0
ENDCHAR
STARTCHAR 00DF
ENCODING 223
SWIDTH 611 0
DWIDTH 11 0
BBX 9 14 2 0
BITMAP
7C00
C600
C600
C600
CC00
D800
D800
DC00
CE00
C300
C180
C180
D180
CF00
ENDCHAR
STARTCHAR 00E0
ENCODING 224
SWIDTH 555 0
DWIDTH 10 0
BBX 8 15 1 0
BITMAP
30
18
0C
00
00
3C
46
06
06
3E
66
C6
C6
CE
73
ENDCHAR
STARTCHAR 00E1
ENCODING 225
SWIDTH 555 0
DWIDTH 10 0
BBX 8 15 1 0
BITMAP
0C
18
30
00
00
3C
46
06
06
3E
66
C6
C6
CE
73
ENDCHAR
STARTCHAR 00E2
ENCODING 226
SWIDTH 555 0
DWIDTH 10 0
BBX 8 15 1 0
BITMAP
38
6C
C6
00
00
3C
46
06
06
3E
66
C6
C6
CE
73
ENDCHAR
STARTCHAR 00E3
ENCODING 227
SWIDTH 555 0
DWIDTH 10 0
BBX 8 14 1 0
BITMAP
72
4E
00
00
3C
46
06
06
3E
66
C6
C6
CE
73
ENDCHAR
STARTCHAR 00E4
ENCODING 228
SWIDTH 555 0
DWIDTH 10 0
BBX 8 13 1 0
BITMAP
6C
00
00
3C
46
06
06
3E
66
C6
C6
CE
73
ENDCHAR
STARTCHAR 00E5
ENCODING 229
SWIDTH 555 0
DWIDTH 10 0
BBX 8 16 1 0
BITMAP
18
24
24
18
00
00
3C
46
06
06
3E
66
C6
C6
CE
73
ENDCHAR
STARTCHAR 00E6
ENCODING 230
SWIDTH 833 0
DWIDTH 15 0
BBX 13 10 1 0
BITMAP
3DE0
4730
0618
0618
3FF8
6600
C600
C600
CB08
71F0
ENDCHAR
STARTCHAR 00E7
ENCODING 231
SWIDTH 500 0
DWIDTH 9 0
BBX 7 14 1 -4
BITMAP
1E
60
60
C0
C0
C0
C0
60
62
1C
08
1C
04
1C
ENDCHAR
STARTCHAR 00E8
ENCODING 232
SWIDTH 555 0
DWIDTH 10 0
BBX 9 15 1 0
BITMAP
3000
1800
0C00
0000
0000
1E00
6300
6180
C180
FF80
C000
C000
6000
6080
1F00
ENDCHAR
STARTCHAR 00E9
ENCODING 233
SWIDTH 555 0
DWIDTH 10 0
BBX 9 15 1 0
BITMAP
0600
0C00
1800
0000
0000
1E00
6300
6180
C180
FF80
C000
C000
6000
6080
1F00
ENDCHAR
STARTCHAR 00EA
ENCODING 234
SWIDTH 555 0
DWIDTH 10 0
BBX 9 15 1 0
BITMAP
1C00
3600
6300
0000
0000
1E00
6300
6180
C180
FF80
C000
C000
6000
6080
1F00
ENDCHAR
STARTCHAR 00EB
ENCODING 235
SWIDTH 555 0
DWIDTH 10 0
BBX 9 13 1 0
BITMAP
3600
0000
0000
1E00
6300
6180
C180
FF80
C000
C000
6000
6080
1F00
ENDCHAR
STARTCHAR 00EC
ENCODING 236
SWIDTH 277 0
DWIDTH 5 0
BBX 4 15 0 0
BITMAP
C0
60
30
00
00
30
30
30
30
30
30
30
30
30
30
ENDCHAR
STARTCHAR 00ED
ENCODING 237
SWIDTH 277 0
DWIDTH 5 0
BBX 4 15 2 0
BITMAP
30
60
C0
00
00
C0
C0
C0
C0
C0
C0
C0
C0
C0
C0
ENDCHAR
STARTCHAR 00EE
ENCODING 238
SWIDTH 277 0
DWIDTH 5 0
BBX 7 15 0 0
BITMAP
38
6C
C6
00
00
30
30
30
30
30
30
30
30
30
30
ENDCHAR
STARTCHAR 00EF
ENCODING 239
SWIDTH 277 0
DWIDTH 5 0
BBX 5 13 1 0
BITMAP
D8
00
00
60
60
60
60
60
60
60
60
60
60
ENDCHAR
STARTCHAR 00F0
ENCODING 240
SWIDTH 611 0
DWIDTH 11 0
BBX 9 15 1 0
BITMAP
0400
E800
3800
6C00
0600
3F00
6300
C180
C180
C180
C180
C180
4100
6300
3E00
ENDCHAR
STARTCHAR 00F1
ENCODING 241
SWIDTH 611 0
DWIDTH 11 0
BBX 8 14 2 0
BITMAP
72
4E
00
00
CE
D3
E3
C3
C3
C3
C3
C3
C3
C3
ENDCHAR
STARTCHAR 00F2
ENCODING 242
SWIDTH 611 0
DWIDTH 11 0
BBX 10 15 1 0
BITMAP
3000
1800
0C00
0000
0000
1E00
6180
6180
C0C0
C0C0
C0C0
C0C0
6180
6180
1E00
ENDCHAR
STARTCHAR 00F3
ENCODING 243
SWIDTH 611 0
DWIDTH 11 0
BBX 10 15 1 0
BITMAP
0300
0600
0C00
0000
0000
1E00
6180
6180
C0C0
C0C0
C0C0
C0C0
6180
6180
1E00
ENDCHAR
STARTCHAR 00F4
ENCODING 244
SWIDTH 611 0
DWIDTH 11 0
BBX 10 15 1 0
BITMAP
0E00
1B00
3180
0000
0000
1E00
6180
6180
C0C0
C0C0
C0C0
C0C0
6180
6180
1E00
ENDCHAR
STARTCHAR 00F5
ENCODING 245
SWIDTH 611 0
DWIDTH 11 0
BBX 10 14 1 0
BITMAP
3900
2700
0000
0000
1E00
6180
6180
C0C0
C0C0
C0C0
C0C0
6180
6180
1E00
ENDCHAR
STARTCHAR 00F6
ENCODING 246
SWIDTH 611 0
DWIDTH 11 0
BBX 10 13 1 0
BITMAP
1B00
0000
0000
1E00
6180
6180
C0C0
C0C0
C0C0
C0C0
6180
6180
1E00
ENDCHAR
STARTCHAR 00F7
ENCODING 247
SWIDTH 777 0
DWIDTH 14 0
BBX 10 7 2 2
BITMAP
0C00
0000
0000
FFC0
0000
0000
0C00
ENDCHAR
STARTCHAR 00F8
ENCODING 248
SWIDTH 611 0
DWIDTH 11 0
BBX 10 10 1 0
BITMAP
1EC0
6180
6380
C6C0
C4C0
C8C0
D8C0
7180
6180
DE00
ENDCHAR
STARTCHAR 00F9
ENCODING 249
SWIDTH 611 0
DWIDTH 11 0
BBX 8 15 2 0
BITMAP
60
30
18
00
00
C3
C3
C3
C3
C3
C3
C3
C7
CB
73
ENDCHAR
STARTCHAR 00FA
ENCODING 250
SWIDTH 611 0
DWIDTH 11 0
BBX 8 15 2 0
BITMAP
06
0C
18
00
00
C3
C3
C3
C3
C3
C3
C3
C7
CB
73
ENDCHAR
STARTCHAR 00FB
ENCODING 251
SWIDTH 611 0
DWIDTH 11 0
BBX 8 15 2 0
BITMAP
1C
36
63
00
00
C3
C3
C3
C3
C3
C3
C3
C7
CB
73
ENDCHAR
STARTCHAR 00FC
ENCODING 252
SWIDTH 611 0
DWIDTH 11 0
BBX 8 13 2 0
BITMAP
36
00
00
C3
C3
C3
C3
C3
C3
C3
C7
CB
73
ENDCHAR
STARTCHAR 00FD
ENCODING 253
SWIDTH 500 0
DWIDTH 9 0
BBX 9 18 0 -3
BITMAP
0300
0600
0C00
0000
0000
C080
6100
6100
6100
3200
3200
3400
1C00
1C00
1800
0800
1000
1000
ENDCHAR
STARTCHAR 00FE
ENCODING 254
SWIDTH 611 0
DWIDTH 11 0
BBX 9 17 2 -3
BITMAP
C000
C000
C000
C000
DE00
E300
C180
C180
C180
C180
C180
C100
E300
DE00
C000
C000
C000
ENDCHAR
STARTCHAR 00FF
ENCODING 255
SWIDTH 500 0
DWIDTH 9 0
BBX 9 16 0 -3
BITMAP
3600
0000
0000
C080
6100
6100
6100
3200
3200
3400
1C00
1C00
1800
0800
1000
1000
ENDCHAR
STARTCHAR 0100
ENCODING 256
SWIDTH 666 0
DWIDTH 12 0
BBX 12 15 0 0
BITMAP
1F00
0000
0600
0600
0B00
0B00
1180
1180
1180
20C0
3FC0
4060
4060
4060
8030
ENDCHAR
STARTCHAR 0101
ENCODING 257
SWIDTH 555 0
DWIDTH 10 0
BBX 8 13 1 0
BITMAP
3E
00
00
3C
46
06
06
3E
66
C6
C6
CE
73
ENDCHAR
STARTCHAR 0102
ENCODING 258
SWIDTH 666 0
DWIDTH 12 0
BBX 12 17 0 0
BITMAP
1080
1980
0F00
0000
0600
0600
0B00
0B00
1180
1180
1180
20C0
3FC0
4060
4060
4060
8030
ENDCHAR
STARTCHAR 0103
ENCODING 259
SWIDTH 555 0
DWIDTH 10 0
BBX 8 15 1 0
BITMAP
42
66
3C
00
00
3C
46
06
06
3E
66
C6
C6
CE
73
ENDCHAR
STARTCHAR 0104
ENCODING 260
SWIDTH 666 0
DWIDTH 12 0
BBX 12 16 0 -4
BITMAP
0600
0600
0B00
0B00
1180
1180
1180
20C0
3FC0
4060
4060
4060
8030
0000
0080
0060
ENDCHAR
STARTCHAR 0105
ENCODING 261
SWIDTH 555 0
DWIDTH 10 0
BBX 8 13 1 -4
BITMAP
3C
46
06
06
3E
66
C6
C6
CE
73
00
04
03
ENDCHAR
STARTCHAR 0106
ENCODING 262
SWIDTH 666 0
DWIDTH 12 0
BBX 11 17 1 0
BITMAP
0180
0300
0600
0000
0FC0
3060
6000
6000
C000
C000
C000
C000
C000
6000
6000
3820
0FC0
ENDCHAR
STARTCHAR 0107
ENCODING 263
SWIDTH 500 0
DWIDTH 9 0
BBX 7 15 1 0
BITMAP
06
0C
18
00
00
1E
60
60
C0
C0
C0
C0
60
62
1C
ENDCHAR
STARTCHAR 0108
ENCODING 264
SWIDTH 666 0
DWIDTH 12 0
BBX 11 17 1 0
BITMAP
0700
0D80
18C0
0000
0FC0
3060
6000
6000
C000
C000
C000
C000
C000
6000
6000
3820
0FC0
ENDCHAR
STARTCHAR 0109
ENCODING 265
SWIDTH 500 0
DWIDTH 9 0
BBX 8 15 1 0
BITMAP
1C
36
63
00
00
1E
60
60
C0
C0
C0
C0
60
62
1C
ENDCHAR
STARTCHAR 010A
ENCODING 266
SWIDTH 666 0
DWIDTH 12 0
BBX 11 15 1 0
BITMAP
0300
0000
0FC0
3060
6000
6000
C000
C000
C000
C000
C000
6000
6000
3820
0FC0
ENDCHAR
STARTCHAR 010B
ENCODING 267
SWIDTH 500 0
DWIDTH 9 0
BBX 7 13 1 0
BITMAP
0C
00
00
1E
60
60
C0
C0
C0
C0
60
62
1C
ENDCHAR
STARTCHAR 010C
ENCODING 268
SWIDTH 666 0
DWIDTH 12 0
BBX 11 17 1 0
BITMAP
18C0
0D80
0700
0000
0FC0
3060
6000
6000
C000
C000
C000
C000
C000
6000
6000
3820
0FC0
ENDCHAR
STARTCHAR 010D
ENCODING 269
SWIDTH 500 0
DWIDTH 9 0
BBX 8 15 1 0
BITMAP
63
36
1C
00
00
1E
60
60
C0
C0
C0
C0
60
62
1C
ENDCHAR
STARTCHAR 010E
ENCODING 270
SWIDTH 722 0
DWIDTH 13 0
BBX 11 17 2 0
BITMAP
3180
1B00
0E00
0000
FE00
C180
C0C0
C0C0
C060
C060
C060
C060
C060
C0C0
C0C0
C180
FE00
ENDCHAR
STARTCHAR 010F
ENCODING 271
SWIDTH 777 0
DWIDTH 14 0
BBX 13 14 1 0
BITMAP
0198
0188
0188
0190
1D80
6380
6180
C180
C180
C180
C180
C180
6380
3D80
ENDCHAR
STARTCHAR 0110
ENCODING 272
SWIDTH 722 0
DWIDTH 13 0
BBX 13 13 0 0
BITMAP
3FC0
3060
3030
3030
3018
3018
FE18
3018
3018
3030
3030
3060
3F80
ENDCHAR
STARTCHAR 0111
ENCODING 273
SWIDTH 611 0
DWIDTH 11 0
BBX 10 14 1 0
BITMAP
0180
0180
07C0
0180
3D80
6380
6180
C180
C180
C180
C180
C180
6380
3D80
ENDCHAR
STARTCHAR 0112
ENCODING 274
SWIDTH 555 0
DWIDTH 10 0
BBX 8 15 2 0
BITMAP
7C
00
FF
C0
C0
C0
C0
C0
FE
C0
C0
C0
C0
C0
FF
ENDCHAR
STARTCHAR 0113
ENCODING 275
SWIDTH 555 0
DWIDTH 10 0
BBX 9 13 1 0
BITMAP
3E00
0000
0000
1E00
6300
6180
C180
FF80
C000
C000
6000
6080
1F00
ENDCHAR
STARTCHAR 0114
ENCODING 276
SWIDTH 555 0
DWIDTH 10 0
BBX 8 17 2 0
BITMAP
42
66
3C
00
FF
C0
C0
C0
C0
C0
FE
C0
C0
C0
C0
C0
FF
ENDCHAR
STARTCHAR 0115
ENCODING 277
SWIDTH 555 0
DWIDTH 10 0
BBX 9 15 1 0
BITMAP
2100
3300
1E00
0000
0000
1E00
6300
6180
C180
FF80
C000
C000
6000
6080
1F00
ENDCHAR
STARTCHAR 0116
ENCODING 278
SWIDTH 555 0
DWIDTH 10 0
BBX 8 15 2 0
BITMAP
18
00
FF
C0
C0
C0
C0
C0
FE
C0
C0
C0
C0
C0
FF
ENDCHAR
STARTCHAR 0117
ENCODING 279
SWIDTH 555 0
DWIDTH 10 0
BBX 9 13 1 0
BITMAP
1800
0000
0000
1E00
6300
6180
C180
FF80
C000
C000
6000
6080
1F00
ENDCHAR
STARTCHAR 0118
ENCODING 280
SWIDTH 555 0
DWIDTH 10 0
BBX 8 16 2 -4
BITMAP
FF
C0
C0
C0
C0
C0
FE
C0
C0
C0
C0
C0
FF
00
04
03
ENDCHAR
STARTCHAR 0119
ENCODING 281
SWIDTH 555 0
DWIDTH 10 0
BBX 9 13 1 -4
BITMAP
1E00
6300
6180
C180
FF80
C000
C000
6000
6080
1F00
0000
1000
0C00
ENDCHAR
STARTCHAR 011A
ENCODING 282
SWIDTH 555 0
DWIDTH 10 0
BBX 8 17 2 0
BITMAP
C6
6C
38
00
FF
C0
C0
C0
C0
C0
FE
C0
C0
C0
C0
C0
FF
ENDCHAR
STARTCHAR 011B
ENCODING 283
SWIDTH 555 0
DWIDTH 10 0
BBX 9 15 1 0
BITMAP
6300
3600
1C00
0000
0000
1E00
6300
6180
C180
FF80
C000
C000
6000
6080
1F00
ENDCHAR
STARTCHAR 011C
ENCODING 284
SWIDTH 722 0
DWIDTH 13 0
BBX 11 17 1 0
BITMAP
0700
0D80
18C0
0000
0FC0
3060
6000
6000
C000
C000
C000
C060
C060
6060
6060
3860
0FC0
ENDCHAR
STARTCHAR 011D
ENCODING 285
SWIDTH 611 0
DWIDTH 11 0
BBX 9 18 1 -3
BITMAP
1C00
3600
6300
0000
0000
1D80
6380
6180
C180
C180
C180
C180
C180
6380
3D80
0180
4300
3E00
ENDCHAR
STARTCHAR 011E
ENCODING 286
SWIDTH 722 0
DWIDTH 13 0
BBX 11 17 1 0
BITMAP
0840
0CC0
0780
0000
0FC0
3060
6000
6000
C000
C000
C000
C060
C060
6060
6060
3860
0FC0
ENDCHAR
STARTCHAR 011F
ENCODING 287
SWIDTH 611 0
DWIDTH 11 0
BBX 9 18 1 -3
BITMAP
2100
3300
1E00
0000
0000
1D80
6380
6180
C180
C180
C180
C180
C180
6380
3D80
0180
4300
3E00
ENDCHAR
STARTCHAR 0120
ENCODING 288
SWIDTH 722 0
DWIDTH 13 0
BBX 11 15 1 0
BITMAP
0300
0000
0FC0
3060
6000
6000
C000
C000
C000
C060
C060
6060
6060
3860
0FC0
ENDCHAR
STARTCHAR 0121
ENCODING 289
SWIDTH 611 0
DWIDTH 11 0
BBX 9 16 1 -3
BITMAP
1800
0000
0000
1D80
6380
6180
C180
C180
C180
C180
C180
6380
3D80
0180
4300
3E00
ENDCHAR
STARTCHAR 0122
ENCODING 290
SWIDTH 722 0
DWIDTH 13 0
BBX 11 17 1 -4
BITMAP
0FC0
3060
6000
6000
C000
C000
C000
C060
C060
6060
6060
3860
0FC0
0200
0700
0100
0700
ENDCHAR
STARTCHAR 0123
ENCODING 291
SWIDTH 611 0
DWIDTH 11 0
BBX 9 19 1 -3
BITMAP
0800
1000
1000
1800
0000
0000
1D80
6380
6180
C180
C180
C180
C180
C180
6380
3D80
0180
4300
3E00
ENDCHAR
STARTCHAR 0124
ENCODING 292
SWIDTH 722 0
DWIDTH 13 0
BBX 10 17 2 0
BITMAP
0E00
1B00
3180
0000
C0C0
C0C0
C0C0
C0C0
C0C0
FFC0
C0C0
C0C0
C0C0
C0C0
C0C0
C0C0
C0C0
ENDCHAR
STARTCHAR 0125
ENCODING 293
SWIDTH 611 0
DWIDTH 11 0
BBX 10 17 0 0
BITMAP
3800
6C00
C600
3000
3000
3000
3000
3380
34C0
38C0
30C0
30C0
30C0
30C0
30C0
30C0
30C0
ENDCHAR
STARTCHAR 0126
ENCODING 294
SWIDTH 777 0
DWIDTH 14 0
BBX 14 13 0 0
BITMAP
3030
3030
FFFC
3030
3030
3FF0
3030
3030
3030
3030
3030
3030
3030
ENDCHAR
STARTCHAR 0127
ENCODING 295
SWIDTH 611 0
DWIDTH 11 0
BBX 10 14 0 0
BITMAP
3000
3000
FC00
3000
3380
3CC0
38C0
30C0
30C0
30C0
30C0
30C0
30C0
30C0
ENDCHAR
STARTCHAR 0128
ENCODING 296
SWIDTH 277 0
DWIDTH 5 0
BBX 6 16 0 0
BITMAP
E4
9C
00
30
30
30
30
30
30
30
30
30
30
30
30
30
ENDCHAR
STARTCHAR 0129
ENCODING 297
SWIDTH 277 0
DWIDTH 5 0
BBX 6 14 0 0
BITMAP
E4
9C
00
00
30
30
30
30
30
30
30
30
30
30
ENDCHAR
STARTCHAR 012A
ENCODING 298
SWIDTH 277 0
DWIDTH 5 0
BBX 5 15 1 0
BITMAP
F8
00
60
60
60
60
60
60
60
60
60
60
60
60
60
ENDCHAR
STARTCHAR 012B
ENCODING 299
SWIDTH 277 0
DWIDTH 5 0
BBX 5 13 1 0
BITMAP
F8
00
00
60
60
60
60
60
60
60
60
60
60
ENDCHAR
STARTCHAR 012C
ENCODING 300
SWIDTH 277 0
DWIDTH 5 0
BBX 6 17 0 0
BITMAP
84
CC
78
00
30
30
30
30
30
30
30
30
30
30
30
30
30
ENDCHAR
STARTCHAR 012D
ENCODING 301
SWIDTH 277 0
DWIDTH 5 0
BBX 6 15 0 0
BITMAP
84
CC
78
00
00
30
30
30
30
30
30
30
30
30
30
ENDCHAR
STARTCHAR 012E
ENCODING 302
SWIDTH 277 0
DWIDTH 5 0
BBX 3 16 2 -4
BITMAP
C0
C0
C0
C0
C0
C0
C0
C0
C0
C0
C0
C0
C0
00
80
60
ENDCHAR
STARTCHAR 012F
ENCODING 303
SWIDTH 277 0
DWIDTH 5 0
BBX 3 16 2 -4
BITMAP
C0
00
00
C0
C0
C0
C0
C0
C0
C0
C0
C0
C0
00
80
60
ENDCHAR
STARTCHAR 0130
ENCODING 304
SWIDTH 277 0
DWIDTH 5 0
BBX 2 15 2 0
BITMAP
C0
00
C0
C0
C0
C0
C0
C0
C0
C0
C0
C0
C0
C0
C0
ENDCHAR
STARTCHAR 0131
ENCODING 305
SWIDTH 277 0
DWIDTH 5 0
BBX 2 10 2 0
BITMAP
C0
C0
C0
C0
C0
C0
C0
C0
C0
C0
ENDCHAR
STARTCHAR 0132
ENCODING 306
SWIDTH 611 0
DWIDTH 11 0
BBX 8 16 2 -3
BITMAP
C3
C3
C3
C3
C3
C3
C3
C3
C3
C3
C3
C3
C3
03
06
3C
ENDCHAR
STARTCHAR 0133
ENCODING 307
SWIDTH 555 0
DWIDTH 10 0
BBX 7 16 2 -3
BITMAP
C6
00
00
C6
C6
C6
C6
C6
C6
C6
C6
C6
C6
06
06
3C
ENDCHAR
STARTCHAR 0134
ENCODING 308
SWIDTH 333 0
DWIDTH 6 0
BBX 9 20 -1 -3
BITMAP
0E00
1B00
3180
0000
0C00
0C00
0C00
0C00
0C00
0C00
0C00
0C00
0C00
0C00
0C00
0C00
0C00
0C00
1800
F000
ENDCHAR
STARTCHAR 0135
ENCODING 309
SWIDTH 277 0
DWIDTH 5 0
BBX 7 17 -1 -3
BITMAP
38
6C
C6
00
18
18
18
18
18
18
18
18
18
18
18
18
F0
ENDCHAR
STARTCHAR 0136
ENCODING 310
SWIDTH 666 0
DWIDTH 12 0
BBX 9 17 2 -4
BITMAP
C100
C200
C400
C800
D000
E000
F000
D800
CC00
CC00
C600
C300
C180
0800
1C00
0400
1C00
ENDCHAR
STARTCHAR 0137
ENCODING 311
SWIDTH 611 0
DWIDTH 11 0
BBX 8 18 2 -4
BITMAP
C0
C0
C0
C0
C2
C4
C8
D0
E0
F0
D8
CC
C6
C3
08
1C
04
1C
ENDCHAR
STARTCHAR 0138
ENCODING 312
SWIDTH 611 0
DWIDTH 11 0
BBX 8 10 2 0
BITMAP
C3
C6
CE
DC
F8
F0
D8
CC
C6
C3
ENDCHAR
STARTCHAR 0139
ENCODING 313
SWIDTH 555 0
DWIDTH 10 0
BBX 9 17 1 0
BITMAP
3000
6000
C000
0000
6000
6000
6000
6000
6000
6000
6000
6000
6000
6000
6000
6000
7F80
ENDCHAR
STARTCHAR 013A
ENCODING 314
SWIDTH 277 0
DWIDTH 5 0
BBX 4 18 1 0
BITMAP
30
60
C0
00
60
60
60
60
60
60
60
60
60
60
60
60
60
60
ENDCHAR
STARTCHAR 013B
ENCODING 315
SWIDTH 555 0
DWIDTH 10 0
BBX 8 17 2 -4
BITMAP
C0
C0
C0
C0
C0
C0
C0
C0
C0
C0
C0
C0
FF
08
1C
04
1C
ENDCHAR
STARTCHAR 013C
ENCODING 316
SWIDTH 277 0
DWIDTH 5 0
BBX 3 18 2 -4
BITMAP
C0
C0
C0
C0
C0
C0
C0
C0
C0
C0
C0
C0
C0
C0
40
E0
20
E0
ENDCHAR
STARTCHAR 013D
ENCODING 317
SWIDTH 555 0
DWIDTH 10 0
BBX 8 13 2 0
BITMAP
C6
C2
C2
C4
C0
C0
C0
C0
C0
C0
C0
C0
FF
ENDCHAR
STARTCHAR 013E
ENCODING 318
SWIDTH 277 0
DWIDTH 5 0
BBX 6 14 2 0
BITMAP
CC
C4
C4
C8
C0
C0
C0
C0
C0
C0
C0
C0
C0
C0
ENDCHAR
STARTCHAR 013F
ENCODING 319
SWIDTH 555 0
DWIDTH 10 0
BBX 8 13 2 0
BITMAP
C0
C0
C0
C0
C0
C0
C0
CC
C0
C0
C0
C0
FF
ENDCHAR
STARTCHAR 0140
ENCODING 320
SWIDTH 277 0
DWIDTH 5 0
BBX 6 14 2 0
BITMAP
C0
C0
C0
C0
C0
C0
C0
CC
C0
C0
C0
C0
C0
C0
ENDCHAR
STARTCHAR 0141
ENCODING 321
SWIDTH 555 0
DWIDTH 10 0
BBX 10 13 0 0
BITMAP
3000
3000
3000
3000
3400
3800
3000
7000
B000
3000
3000
3000
3FC0
ENDCHAR
STARTCHAR 0142
ENCODING 322
SWIDTH 277 0
DWIDTH 5 0
BBX 6 14 0 0
BITMAP
30
30
30
30
30
34
38
70
B0
30
30
30
30
30
ENDCHAR
STARTCHAR 0143
ENCODING 323
SWIDTH 722 0
DWIDTH 13 0
BBX 10 17 2 0
BITMAP
0600
0C00
1800
0000
C040
E040
E040
B040
9840
9840
8C40
8640
8640
8340
81C0
81C0
80C0
ENDCHAR
STARTCHAR 0144
ENCODING 324
SWIDTH 611 0
DWIDTH 11 0
BBX 8 15 2 0
BITMAP
0C
18
30
00
00
CE
D3
E3
C3
C3
C3
C3
C3
C3
C3
ENDCHAR
STARTCHAR 0145
ENCODING 325
SWIDTH 722 0
DWIDTH 13 0
BBX 10 17 2 -4
BITMAP
C040
E040
E040
B040
9840
9840
8C40
8640
8640
8340
81C0
81C0
80C0
0400
0E00
0200
0E00
ENDCHAR
STARTCHAR 0146
ENCODING 326
SWIDTH 611 0
DWIDTH 11 0
BBX 8 14 2 -4
BITMAP
CE
D3
E3
C3
C3
C3
C3
C3
C3
C3
08
1C
04
1C
ENDCHAR
STARTCHAR 0147
ENCODING 327
SWIDTH 722 0
DWIDTH 13 0
BBX 10 17 2 0
BITMAP
3180
1B00
0E00
0000
C040
E040
E040
B040
9840
9840
8C40
8640
8640
8340
81C0
81C0
80C0
ENDCHAR
STARTCHAR 0148
ENCODING 328
SWIDTH 611 0
DWIDTH 11 0
BBX 8 15 2 0
BITMAP
63
36
1C
00
00
CE
D3
E3
C3
C3
C3
C3
C3
C3
C3
ENDCHAR
STARTCHAR 0149
ENCODING 329
SWIDTH 611 0
DWIDTH 11 0
BBX 11 14 1 0
BITMAP
C000
4000
4000
8000
19C0
1A60
1C60
1860
1860
1860
1860
1860
1860
1860
ENDCHAR
STARTCHAR 014A
ENCODING 330
SWIDTH 722 0
DWIDTH 13 0
BBX 10 17 2 -4
BITMAP
C040
E040
F040
B040
9840
9C40
8C40
8640
8340
83C0
81C0
80C0
80C0
0040
0040
0040
0380
ENDCHAR
STARTCHAR 014B
ENCODING 331
SWIDTH 611 0
DWIDTH 11 0
BBX 8 13 2 -3
BITMAP
CE
F3
E3
C3
C3
C3
C3
C3
C3
C3
03
03
0E
ENDCHAR
STARTCHAR 014C
ENCODING 332
SWIDTH 777 0
DWIDTH 14 0
BBX 13 15 1 0
BITMAP
0F80
0000
0F80
3060
6030
6030
C018
C018
C018
C018
C018
6030
6030
3060
0F80
ENDCHAR
STARTCHAR 014D
ENCODING 333
SWIDTH 611 0
DWIDTH 11 0
BBX 10 13 1 0
BITMAP
1F00
0000
0000
1E00
6180
6180
C0C0
C0C0
C0C0
C0C0
6180
6180
1E00
ENDCHAR
STARTCHAR 014E
ENCODING 334
SWIDTH 777 0
DWIDTH 14 0
BBX 13 17 1 0
BITMAP
0840
0CC0
0780
0000
0F80
3060
6030
6030
C018
C018
C018
C018
C018
6030
6030
3060
0F80
ENDCHAR
STARTCHAR 014F
ENCODING 335
SWIDTH 611 0
DWIDTH 11 0
BBX 10 15 1 0
BITMAP
2100
3300
1E00
0000
0000
1E00
6180
6180
C0C0
C0C0
C0C0
C0C0
6180
6180
1E00
ENDCHAR
STARTCHAR 0150
ENCODING 336
SWIDTH 777 0
DWIDTH 14 0
BBX 13 17 1 0
BITMAP
01B0
0360
06C0
0000
0F80
3060
6030
6030
C018
C018
C018
C018
C018
6030
6030
3060
0F80
ENDCHAR
STARTCHAR 0151
ENCODING 337
SWIDTH 611 0
DWIDTH 11 0
BBX 10 15 1 0
BITMAP
06C0
0D80
1B00
0000
0000
1E00
6180
6180
C0C0
C0C0
C0C0
C0C0
6180
6180
1E00
ENDCHAR
STARTCHAR 0152
ENCODING 338
SWIDTH 1000 0
DWIDTH 18 0
BBX 17 13 1 0
BITMAP
1F7F80
30E000
606000
606000
C06000
C06000
C07F00
C06000
C06000
406000
606000
30E000
1F7F80
ENDCHAR
STARTCHAR 0153
ENCODING 339
SWIDTH 944 0
DWIDTH 17 0
BBX 15 10 1 0
BITMAP
3E78
63CC
4186
C186
C1FE
C180
C180
4180
63C2
3E7C
ENDCHAR
STARTCHAR 0154
ENCODING 340
SWIDTH 611 0
DWIDTH 11 0
BBX 10 17 2 0
BITMAP
0600
0C00
1800
0000
FC00
C600
C300
C300
C300
C600
F800
CC00
C600
C700
C300
C180
C0C0
ENDCHAR
STARTCHAR 0155
ENCODING 341
SWIDTH 388 0
DWIDTH 7 0
BBX 5 15 2 0
BITMAP
30
60
C0
00
00
D8
E0
C0
C0
C0
C0
C0
C0
C0
C0
ENDCHAR
STARTCHAR 0156
ENCODING 342
SWIDTH 611 0
DWIDTH 11 0
BBX 10 17 2 -4
BITMAP
FC00
C600
C300
C300
C300
C600
F800
CC00
C600
C700
C300
C180
C0C0
0800
1C00
0400
1C00
ENDCHAR
STARTCHAR 0157
ENCODING 343
SWIDTH 388 0
DWIDTH 7 0
BBX 5 14 2 -4
BITMAP
D8
E0
C0
C0
C0
C0
C0
C0
C0
C0
40
E0
20
E0
ENDCHAR
STARTCHAR 0158
ENCODING 344
SWIDTH 611 0
DWIDTH 11 0
BBX 10 17 2 0
BITMAP
6300
3600
1C00
0000
FC00
C600
C300
C300
C300
C600
F800
CC00
C600
C700
C300
C180
C0C0
ENDCHAR
STARTCHAR 0159
ENCODING 345
SWIDTH 388 0
DWIDTH 7 0
BBX 7 15 1 0
BITMAP
C6
6C
38
00
00
6C
70
60
60
60
60
60
60
60
60
ENDCHAR
STARTCHAR 015A
ENCODING 346
SWIDTH 555 0
DWIDTH 10 0
BBX 8 17 1 0
BITMAP
06
0C
18
00
3C
62
C0
C0
C0
70
3C
0E
03
03
03
86
7C
ENDCHAR
STARTCHAR 015B
ENCODING 347
SWIDTH 500 0
DWIDTH 9 0
BBX 7 15 1 0
BITMAP
0C
18
30
00
00
7C
C0
C0
E0
78
1C
06
06
86
78
ENDCHAR
STARTCHAR 015C
ENCODING 348
SWIDTH 555 0
DWIDTH 10 0
BBX 8 17 1 0
BITMAP
38
6C
C6
00
3C
62
C0
C0
C0
70
3C
0E
03
03
03
86
7C
ENDCHAR
STARTCHAR 015D
ENCODING 349
SWIDTH 500 0
DWIDTH 9 0
BBX 7 15 1 0
BITMAP
38
6C
C6
00
00
7C
C0
C0
E0
78
1C
06
06
86
78
ENDCHAR
STARTCHAR 015E
ENCODING 350
SWIDTH 555 0
DWIDTH 10 0
BBX 8 17 1 -4
BITMAP
3C
62
C0
C0
C0
70
3C
0E
03
03
03
86
7C
08
1C
04
1C
ENDCHAR
STARTCHAR 015F
ENCODING 351
SWIDTH 500 0
DWIDTH 9 0
BBX 7 14 1 -4
BITMAP
7C
C0
C0
E0
78
1C
06
06
86
78
10
38
08
38
ENDCHAR
STARTCHAR 0160
ENCODING 352
SWIDTH 555 0
DWIDTH 10 0
BBX 8 17 1 0
BITMAP
C6
6C
38
00
3C
62
C0
C0
C0
70
3C
0E
03
03
03
86
7C
ENDCHAR
STARTCHAR 0161
ENCODING 353
SWIDTH 500 0
DWIDTH 9 0
BBX 8 15 0 0
BITMAP
C6
6C
38
00
00
3E
60
60
70
3C
0E
03
03
43
3C
ENDCHAR
STARTCHAR 0162
ENCODING 354
SWIDTH 611 0
DWIDTH 11 0
BBX 12 17 0 -4
BITMAP
FFF0
0600
0600
0600
0600
0600
0600
0600
0600
0600
0600
0600
0600
0200
0700
0100
0700
ENDCHAR
STARTCHAR 0163
ENCODING 355
SWIDTH 388 0
DWIDTH 7 0
BBX 5 16 1 -4
BITMAP
60
60
F8
60
60
60
60
60
60
60
60
38
20
70
10
70
ENDCHAR
STARTCHAR 0164
ENCODING 356
SWIDTH 611 0
DWIDTH 11 0
BBX 12 17 0 0
BITMAP
18C0
0D80
0700
0000
FFF0
0600
0600
0600
0600
0600
0600
0600
0600
0600
0600
0600
0600
ENDCHAR
STARTCHAR 0165
ENCODING 357
SWIDTH 555 0
DWIDTH 10 0
BBX 6 15 1 0
BITMAP
0C
04
04
68
60
F8
60
60
60
60
60
60
60
60
38
ENDCHAR
STARTCHAR 0166
ENCODING 358
SWIDTH 611 0
DWIDTH 11 0
BBX 12 13 0 0
BITMAP
FFF0
0600
0600
0600
0600
3FC0
0600
0600
0600
0600
0600
0600
0600
ENDCHAR
STARTCHAR 0167
ENCODING 359
SWIDTH 388 0
DWIDTH 7 0
BBX 6 12 0 0
BITMAP
30
30
7C
30
30
30
FC
30
30
30
30
1C
ENDCHAR
STARTCHAR 0168
ENCODING 360
SWIDTH 666 0
DWIDTH 12 0
BBX 9 16 2 0
BITMAP
7200
4E00
0000
C180
C180
C180
C180
C180
C180
C180
C180
C180
C180
C180
6300
3E00
ENDCHAR
STARTCHAR 0169
ENCODING 361
SWIDTH 611 0
DWIDTH 11 0
BBX 8 14 2 0
BITMAP
72
4E
00
00
C3
C3
C3
C3
C3
C3
C3
C7
CB
73
ENDCHAR
STARTCHAR 016A
ENCODING 362
SWIDTH 666 0
DWIDTH 12 0
BBX 9 15 2 0
BITMAP
3E00
0000
C180
C180
C180
C180
C180
C180
C180
C180
C180
C180
C180
6300
3E00
ENDCHAR
STARTCHAR 016B
ENCODING 363
SWIDTH 611 0
DWIDTH 11 0
BBX 8 13 2 0
BITMAP
3E
00
00
C3
C3
C3
C3
C3
C3
C3
C7
CB
73
ENDCHAR
STARTCHAR 016C
ENCODING 364
SWIDTH 666 0
DWIDTH 12 0
BBX 9 17 2 0
BITMAP
4200
6600
3C00
0000
C180
C180
C180
C180
C180
C180
C180
C180
C180
C180
C180
6300
3E00
ENDCHAR
STARTCHAR 016D
ENCODING 365
SWIDTH 611 0
DWIDTH 11 0
BBX 8 15 2 0
BITMAP
42
66
3C
00
00
C3
C3
C3
C3
C3
C3
C3
C7
CB
73
ENDCHAR
STARTCHAR 016E
ENCODING 366
SWIDTH 666 0
DWIDTH 12 0
BBX 9 18 2 0
BITMAP
1800
2400
2400
1800
0000
C180
C180
C180
C180
C180
C180
C180
C180
C180
C180
C180
6300
3E00
ENDCHAR
STARTCHAR 016F
ENCODING 367
SWIDTH 611 0
DWIDTH 11 0
BBX 8 16 2 0
BITMAP
18
24
24
18
00
00
C3
C3
C3
C3
C3
C3
C3
C7
CB
73
ENDCHAR
STARTCHAR 0170
ENCODING 368
SWIDTH 666 0
DWIDTH 12 0
BBX 10 17 2 0
BITMAP
06C0
0D80
1B00
0000
C180
C180
C180
C180
C180
C180
C180
C180
C180
C180
C180
6300
3E00
ENDCHAR
STARTCHAR 0171
ENCODING 369
SWIDTH 611 0
DWIDTH 11 0
BBX 9 15 2 0
BITMAP
0D80
1B00
3600
0000
0000
C300
C300
C300
C300
C300
C300
C300
C700
CB00
7300
ENDCHAR
STARTCHAR 0172
ENCODING 370
SWIDTH 666 0
DWIDTH 12 0
BBX 9 16 2 -4
BITMAP
C180
C180
C180
C180
C180
C180
C180
C180
C180
C180
C180
6300
3E00
0000
0800
0600
ENDCHAR
STARTCHAR 0173
ENCODING 371
SWIDTH 611 0
DWIDTH 11 0
BBX 8 13 2 -4
BITMAP
C3
C3
C3
C3
C3
C3
C3
C7
CB
73
00
04
03
ENDCHAR
STARTCHAR 0174
ENCODING 372
SWIDTH 833 0
DWIDTH 15 0
BBX 15 17 0 0
BITMAP
01C0
0360
0630
0000
C182
C182
62C4
62C4
62C4
62C4
32EC
3468
3468
3468
3478
1830
1830
ENDCHAR
STARTCHAR 0175
ENCODING 373
SWIDTH 777 0
DWIDTH 14 0
BBX 14 15 0 0
BITMAP
0380
06C0
0C60
0000
0000
C384
C384
6388
6388
64C8
34D0
34D0
34D0
1860
1860
ENDCHAR
STARTCHAR 0176
ENCODING 374
SWIDTH 611 0
DWIDTH 11 0
BBX 11 17 0 0
BITMAP
0700
0D80
18C0
0000
C020
6040
6080
3080
3100
1A00
1A00
0C00
0C00
0C00
0C00
0C00
0C00
ENDCHAR
STARTCHAR 0177
ENCODING 375
SWIDTH 500 0
DWIDTH 9 0
BBX 9 18 0 -3
BITMAP
0E00
1B00
3180
0000
0000
C080
6100
6100
6100
3200
3200
3400
1C00
1C00
1800
0800
1000
1000
ENDCHAR
STARTCHAR 0178
ENCODING 376
SWIDTH 611 0
DWIDTH 11 0
BBX 11 15 0 0
BITMAP
1B00
0000
C020
6040
6080
3080
3100
1A00
1A00
0C00
0C00
0C00
0C00
0C00
0C00
ENDCHAR
STARTCHAR 0179
ENCODING 377
SWIDTH 611 0
DWIDTH 11 0
BBX 9 17 1 0
BITMAP
0300
0600
0C00
0000
FF80
0180
0300
0600
0600
0C00
1800
1800
3000
3000
6000
C000
FF80
ENDCHAR
STARTCHAR 017A
ENCODING 378
SWIDTH 555 0
DWIDTH 10 0
BBX 8 15 1 0
BITMAP
06
0C
18
00
00
FF
03
06
0C
18
18
30
60
C0
FF
ENDCHAR
STARTCHAR 017B
ENCODING 379
SWIDTH 611 0
DWIDTH 11 0
BBX 9 15 1 0
BITMAP
0C00
0000
FF80
0180
0300
0600
0600
0C00
1800
1800
3000
3000
6000
C000
FF80
ENDCHAR
STARTCHAR 017C
ENCODING 380
SWIDTH 555 0
DWIDTH 10 0
BBX 8 13 1 0
BITMAP
18
00
00
FF
03
06
0C
18
18
30
60
C0
FF
ENDCHAR
STARTCHAR 017D
ENCODING 381
SWIDTH 611 0
DWIDTH 11 0
BBX 9 17 1 0
BITMAP
6300
3600
1C00
0000
FF80
0180
0300
0600
0600
0C00
1800
1800
3000
3000
6000
C000
FF80
ENDCHAR
STARTCHAR 017E
ENCODING 382
SWIDTH 555 0
DWIDTH 10 0
BBX 8 15 1 0
BITMAP
63
36
1C
00
00
FF
03
06
0C
18
18
30
60
C0
FF
ENDCHAR
STARTCHAR 017F
ENCODING 383
SWIDTH 333 0
DWIDTH 6 0
BBX 6 14 1 0
BITMAP
3C
60
60
60
E0
60
60
60
60
60
60
60
60
60
ENDCHAR
STARTCHAR 0180
ENCODING 384
SWIDTH 611 0
DWIDTH 11 0
BBX 11 14 0 0
BITMAP
3000
3000
FC00
3000
3780
38C0
3060
3060
3060
3060
3060
3040
38C0
3780
ENDCHAR
STARTCHAR 0181
ENCODING 385
SWIDTH 722 0
DWIDTH 13 0
BBX 12 13 0 0
BITMAP
7FC0
8CE0
8C60
8C60
0C60
0CC0
0F80
0C60
0C30
0C30
0C30
0C70
0FC0
ENDCHAR
STARTCHAR 0182
ENCODING 386
SWIDTH 555 0
DWIDTH 10 0
BBX 8 13 2 0
BITMAP
FE
C0
C0
C0
C0
C0
FC
C6
C3
C3
C3
C6
FC
ENDCHAR
STARTCHAR 0183
ENCODING 387
SWIDTH 611 0
DWIDTH 11 0
BBX 9 14 2 0
BITMAP
FE00
C000
C000
C000
DE00
E300
C180
C180
C180
C180
C180
C100
E300
DE00
ENDCHAR
STARTCHAR 0184
ENCODING 388
SWIDTH 555 0
DWIDTH 10 0
BBX 8 13 2 0
BITMAP
C0
C0
C0
C0
C0
C0
FC
C6
C3
C3
C3
C6
FC
ENDCHAR
STARTCHAR 0185
ENCODING 389
SWIDTH 500 0
DWIDTH 9 0
BBX 6 10 2 0
BITMAP
C0
C0
C0
C0
F8
CC
CC
CC
CC
F8
ENDCHAR
STARTCHAR 0186
ENCODING 390
SWIDTH 666 0
DWIDTH 12 0
BBX 11 13 1 0
BITMAP
7E00
8380
00C0
00C0
0060
0060
0060
0060
0060
00C0
00C0
C180
7E00
ENDCHAR
STARTCHAR 0187
ENCODING 391
SWIDTH 666 0
DWIDTH 12 0
BBX 14 17 1 0
BITMAP
001C
0020
0020
0020
0FE0
3060
6000
6000
C000
C000
C000
C000
C000
6000
6000
3820
0FC0
ENDCHAR
STARTCHAR 0188
ENCODING 392
SWIDTH 555 0
DWIDTH 10 0
BBX 10 14 1 0
BITMAP
01C0
0200
0200
0200
3E00
6000
E000
C000
C000
C000
C000
6000
6200
3C00
ENDCHAR
STARTCHAR 0189
ENCODING 393
SWIDTH 722 0
DWIDTH 13 0
BBX 13 13 0 0
BITMAP
3FC0
3060
3030
3030
3018
3018
FE18
3018
3018
3030
3030
3060
3F80
ENDCHAR
STARTCHAR 018A
ENCODING 394
SWIDTH 888 0
DWIDTH 16 0
BBX 15 13 0 0
BITMAP
7FF0
8C18
8C0C
8C0E
0C06
0C06
0C06
0C06
0C06
0C0C
0C0C
0C18
0FE0
ENDCHAR
STARTCHAR 018B
ENCODING 395
SWIDTH 555 0
DWIDTH 10 0
BBX 8 13 1 0
BITMAP
7F
03
03
03
03
03
3F
63
C3
C3
C3
63
3F
ENDCHAR
STARTCHAR 018C
ENCODING 396
SWIDTH 611 0
DWIDTH 11 0
BBX 9 14 1 0
BITMAP
3F80
0180
0180
0180
3D80
6380
4180
C180
C180
C180
C180
C180
6380
3D80
ENDCHAR
STARTCHAR 018D
ENCODING 397
SWIDTH 611 0
DWIDTH 11 0
BBX 9 14 1 0
BITMAP
3E00
6300
C180
C180
C180
C180
E300
7700
3C00
0E00
0380
0180
0180
3F00
ENDCHAR
STARTCHAR 018E
ENCODING 398
SWIDTH 555 0
DWIDTH 10 0
BBX 8 13 0 0
BITMAP
FF
03
03
03
03
03
7F
03
03
03
03
03
FF
ENDCHAR
STARTCHAR 018F
ENCODING 399
SWIDTH 666 0
DWIDTH 12 0
BBX 10 13 1 0
BITMAP
7E00
8300
0180
0180
00C0
00C0
00C0
FFC0
C0C0
C080
C180
6300
3E00
ENDCHAR
STARTCHAR 0190
ENCODING 400
SWIDTH 500 0
DWIDTH 9 0
BBX 8 13 1 0
BITMAP
3E
E1
C0
C0
60
3C
70
C0
C0
C0
C0
61
3E
ENDCHAR
STARTCHAR 0191
ENCODING 401
SWIDTH 555 0
DWIDTH 10 0
BBX 9 16 0 -3
BITMAP
3F80
3000
3000
3000
3000
3000
3F00
3000
3000
3000
3000
3000
3000
3000
3000
E000
ENDCHAR
STARTCHAR 0192
ENCODING 402
SWIDTH 388 0
DWIDTH 7 0
BBX 8 17 0 -3
BITMAP
0F
18
18
18
7E
18
18
18
18
18
18
18
18
18
18
18
F0
ENDCHAR
STARTCHAR 0193
ENCODING 403
SWIDTH 722 0
DWIDTH 13 0
BBX 14 17 1 0
BITMAP
001C
0020
0020
0020
0FE0
3060
6000
6000
C000
C000
C000
C060
C060
6060
6060
3860
0FC0
ENDCHAR
STARTCHAR 0194
ENCODING 404
SWIDTH 666 0
DWIDTH 12 0
BBX 12 16 0 -3
BITMAP
C030
6060
6060
30C0
30C0
1880
1980
0D00
0F00
0700
0700
0700
0F80
0D80
0D80
0700
ENDCHAR
STARTCHAR 0195
ENCODING 405
SWIDTH 888 0
DWIDTH 16 0
BBX 14 14 2 0
BITMAP
C000
C000
C000
C000
CE0C
F30C
C30C
C30C
C30C
C30C
C308
C318
C310
C1E0
ENDCHAR
STARTCHAR 0196
ENCODING 406
SWIDTH 388 0
DWIDTH 7 0
BBX 5 13 2 0
BITMAP
C0
C0
C0
C0
C0
C0
C0
C0
C0
C0
C0
C0
78
ENDCHAR
STARTCHAR 0197
ENCODING 407
SWIDTH 388 0
DWIDTH 7 0
BBX 6 13 0 0
BITMAP
30
30
30
30
30
FC
30
30
30
30
30
30
30
ENDCHAR
STARTCHAR 0198
ENCODING 408
SWIDTH 666 0
DWIDTH 12 0
BBX 11 13 2 0
BITMAP
C1E0
C300
C600
CC00
D800
D800
F800
DC00
CC00
C600
C700
C380
C1C0
ENDCHAR
STARTCHAR 0199
ENCODING 409
SWIDTH 611 0
DWIDTH 11 0
BBX 8 14 2 0
BITMAP
3E
60
C0
C0
C2
C4
C8
D0
F0
F8
DC
CE
C6
C3
ENDCHAR
STARTCHAR 019A
ENCODING 410
SWIDTH 388 0
DWIDTH 7 0
BBX 6 14 0 0
BITMAP
30
30
30
30
30
30
FC
30
30
30
30
30
30
30
ENDCHAR
STARTCHAR 019B
ENCODING 411
SWIDTH 611 0
DWIDTH 11 0
BBX 10 14 0 0
BITMAP
7000
1A00
0C00
3C00
6C00
0C00
1E00
1A00
1B00
3100
3100
6080
6080
C040
ENDCHAR
STARTCHAR 019C
ENCODING 412
SWIDTH 1055 0
DWIDTH 19 0
BBX 16 13 2 0
BITMAP
C183
C183
C183
C183
C183
C183
C183
C183
C183
C183
C387
C58B
78F3
ENDCHAR
STARTCHAR 019D
ENCODING 413
SWIDTH 722 0
DWIDTH 13 0
BBX 12 16 0 -3
BITMAP
3010
3810
3C10
2C10
2E10
2710
2310
2390
21D0
20D0
20F0
2070
2030
2000
2000
C000
ENDCHAR
STARTCHAR 019E
ENCODING 414
SWIDTH 611 0
DWIDTH 11 0
BBX 8 10 2 0
BITMAP
CE
D3
E3
C3
C3
C3
C3
C3
C3
C3
ENDCHAR
STARTCHAR 019F
ENCODING 415
SWIDTH 777 0
DWIDTH 14 0
BBX 12 13 1 0
BITMAP
1F80
30C0
6060
6060
C030
C030
FFF0
C030
C030
4020
6060
30C0
1F80
ENDCHAR
STARTCHAR 01A0
ENCODING 416
SWIDTH 777 0
DWIDTH 14 0
BBX 12 15 1 0
BITMAP
0010
0010
1FF0
30C0
6060
4020
C030
C030
C030
C030
C030
4020
6060
30C0
1F80
ENDCHAR
STARTCHAR 01A1
ENCODING 417
SWIDTH 611 0
DWIDTH 11 0
BBX 10 13 1 0
BITMAP
0040
0040
0040
3F80
6300
C180
C180
C180
C180
C180
C180
6300
3E00
ENDCHAR
STARTCHAR 01A2
ENCODING 418
SWIDTH 1055 0
DWIDTH 19 0
BBX 17 16 1 -3
BITMAP
1F9F00
30F180
606180
406180
C03180
C03180
C03180
C03180
C03180
402180
606180
30C180
1F8180
000180
000180
000180
ENDCHAR
STARTCHAR 01A3
ENCODING 419
SWIDTH 888 0
DWIDTH 16 0
BBX 14 13 1 -3
BITMAP
3E78
638C
C10C
C18C
C18C
C18C
C18C
C18C
630C
3E0C
000C
000C
000C
ENDCHAR
STARTCHAR 01A4
ENCODING 420
SWIDTH 666 0
DWIDTH 12 0
BBX 12 13 0 0
BITMAP
7FC0
8C70
8C30
8C30
0C30
0C30
0C60
0FC0
0C00
0C00
0C00
0C00
0C00
ENDCHAR
STARTCHAR 01A5
ENCODING 421
SWIDTH 611 0
DWIDTH 11 0
BBX 9 17 2 -3
BITMAP
3E00
6000
C000
C000
DE00
E300
C180
C180
C180
C180
C180
C100
E300
DE00
C000
C000
C000
ENDCHAR
STARTCHAR 01A6
ENCODING 422
SWIDTH 611 0
DWIDTH 11 0
BBX 10 18 2 -3
BITMAP
C000
C000
FE00
C700
C300
C300
C300
C600
FC00
CC00
CC00
C600
C600
C300
C300
0180
0180
00C0
ENDCHAR
STARTCHAR 01A7
ENCODING 423
SWIDTH 555 0
DWIDTH 10 0
BBX 8 13 1 0
BITMAP
3C
46
03
03
07
1E
3C
70
C0
C0
C0
61
3E
ENDCHAR
STARTCHAR 01A8
ENCODING 424
SWIDTH 500 0
DWIDTH 9 0
BBX 6 10 1 0
BITMAP
78
0C
0C
1C
38
F0
C0
C0
C4
78
ENDCHAR
STARTCHAR 01A9
ENCODING 425
SWIDTH 555 0
DWIDTH 10 0
BBX 10 13 0 0
BITMAP
FFC0
E000
7000
3800
1C00
0E00
0600
0C00
1800
3000
6000
C000
FFC0
ENDCHAR
STARTCHAR 01AA
ENCODING 426
SWIDTH 555 0
DWIDTH 10 0
BBX 10 17 0 -3
BITMAP
7800
8800
8C00
8C00
7C00
0C00
0C00
0C00
0C00
0C00
0C00
0C00
0C00
0C00
0C00
0600
03C0
ENDCHAR
STARTCHAR 01AB
ENCODING 427
SWIDTH 388 0
DWIDTH 7 0
BBX 5 15 1 -3
BITMAP
60
60
F8
60
60
60
60
60
60
60
60
38
18
18
70
ENDCHAR
STARTCHAR 01AC
ENCODING 428
SWIDTH 666 0
DWIDTH 12 0
BBX 12 13 0 0
BITMAP
7FF0
8600
8600
8600
0600
0600
0600
0600
0600
0600
0600
0600
0600
ENDCHAR
STARTCHAR 01AD
ENCODING 429
SWIDTH 388 0
DWIDTH 7 0
BBX 5 14 1 0
BITMAP
38
60
60
60
F8
60
60
60
60
60
60
60
60
38
ENDCHAR
STARTCHAR 01AE
ENCODING 430
SWIDTH 611 0
DWIDTH 11 0
BBX 12 16 0 -3
BITMAP
FFF0
0600
0600
0600
0600
0600
0600
0600
0600
0600
0600
0600
0600
0600
0600
03C0
ENDCHAR
STARTCHAR 01AF
ENCODING 431
SWIDTH 833 0
DWIDTH 15 0
BBX 13 16 2 0
BITMAP
0008
0008
0008
C1F0
C180
C180
C180
C180
C180
C180
C180
C180
C180
C180
6300
3E00
ENDCHAR
STARTCHAR 01B0
ENCODING 432
SWIDTH 722 0
DWIDTH 13 0
BBX 11 13 2 0
BITMAP
0020
0020
0020
C3C0
C300
C300
C300
C300
C300
C300
C300
C700
7B00
ENDCHAR
STARTCHAR 01B1
ENCODING 433
SWIDTH 777 0
DWIDTH 14 0
BBX 12 13 1 0
BITMAP
F9F0
1080
2040
6060
C030
C030
C030
C030
C030
C030
6060
30C0
1F80
ENDCHAR
STARTCHAR 01B2
ENCODING 434
SWIDTH 722 0
DWIDTH 13 0
BBX 10 13 2 0
BITMAP
C180
C180
C0C0
C0C0
C0C0
C0C0
C0C0
C0C0
C0C0
C080
C180
6300
3E00
ENDCHAR
STARTCHAR 01B3
ENCODING 435
SWIDTH 666 0
DWIDTH 12 0
BBX 12 13 0 0
BITMAP
E030
3020
1840
18C0
0C80
0D00
0700
0600
0600
0600
0600
0600
0600
ENDCHAR
STARTCHAR 01B4
ENCODING 436
SWIDTH 666 0
DWIDTH 12 0
BBX 13 16 0 -3
BITMAP
0038
0040
0040
C080
6080
6180
6100
3100
3200
3A00
1C00
1C00
0C00
0800
0800
1000
ENDCHAR
STARTCHAR 01B5
ENCODING 437
SWIDTH 611 0
DWIDTH 11 0
BBX 9 13 1 0
BITMAP
FF80
0380
0300
0600
0600
0C00
7F00
1800
3000
3000
6000
E000
FF80
ENDCHAR
STARTCHAR 01B6
ENCODING 438
SWIDTH 555 0
DWIDTH 10 0
BBX 8 10 1 0
BITMAP
FF
07
06
0C
7F
38
30
60
E0
FF
ENDCHAR
STARTCHAR 01B7
ENCODING 439
SWIDTH 555 0
DWIDTH 10 0
BBX 8 13 1 0
BITMAP
FF
06
0C
18
30
7C
0E
03
03
03
03
06
FC
ENDCHAR
STARTCHAR 01B8
ENCODING 440
SWIDTH 555 0
DWIDTH 10 0
BBX 8 13 1 0
BITMAP
FF
60
30
18
0C
3E
70
C0
C0
C0
C0
60
3F
ENDCHAR
STARTCHAR 01B9
ENCODING 441
SWIDTH 500 0
DWIDTH 9 0
BBX 8 13 1 -3
BITMAP
FF
60
30
18
0C
1E
70
E0
C0
C0
C0
60
3F
ENDCHAR
STARTCHAR 01BA
ENCODING 442
SWIDTH 500 0
DWIDTH 9 0
BBX 7 13 1 -3
BITMAP
FE
0C
18
70
7C
06
06
0E
3C
70
C0
C4
78
ENDCHAR
STARTCHAR 01BB
ENCODING 443
SWIDTH 611 0
DWIDTH 11 0
BBX 8 13 2 0
BITMAP
7C
86
03
03
03
07
06
FF
30
20
60
C0
FF
ENDCHAR
STARTCHAR 01BC
ENCODING 444
SWIDTH 611 0
DWIDTH 11 0
BBX 7 13 2 0
BITMAP
FE
C0
C0
C0
C0
F8
0C
06
06
06
06
0C
F8
ENDCHAR
STARTCHAR 01BD
ENCODING 445
SWIDTH 500 0
DWIDTH 9 0
BBX 6 10 1 0
BITMAP
FC
80
80
80
F0
18
0C
0C
1C
F0
ENDCHAR
STARTCHAR 01BE
ENCODING 446
SWIDTH 444 0
DWIDTH 8 0
BBX 7 14 1 0
BITMAP
60
60
60
60
FC
60
60
30
18
0C
06
06
8E
7C
ENDCHAR
STARTCHAR 01BF
ENCODING 447
SWIDTH 611 0
DWIDTH 11 0
BBX 8 13 2 -3
BITMAP
CE
F3
C3
C3
C3
C6
C6
CC
D0
E0
C0
C0
C0
ENDCHAR
STARTCHAR 01C0
ENCODING 448
SWIDTH 277 0
DWIDTH 5 0
BBX 1 14 2 0
BITMAP
80
80
80
80
80
80
80
80
80
80
80
80
80
80
ENDCHAR
STARTCHAR 01C1
ENCODING 449
SWIDTH 444 0
DWIDTH 8 0
BBX 4 14 2 0
BITMAP
90
90
90
90
90
90
90
90
90
90
90
90
90
90
ENDCHAR
STARTCHAR 01C2
ENCODING 450
SWIDTH 666 0
DWIDTH 12 0
BBX 9 14 1 0
BITMAP
0800
0800
0800
0800
FF80
0800
0800
0800
FF80
0800
0800
0800
0800
0800
ENDCHAR
STARTCHAR 01C3
ENCODING 451
SWIDTH 333 0
DWIDTH 6 0
BBX 2 13 2 0
BITMAP
C0
C0
C0
C0
C0
C0
C0
C0
C0
C0
00
00
C0
ENDCHAR
STARTCHAR 01C4
ENCODING 452
SWIDTH 1277 0
DWIDTH 23 0
BBX 20 17 2 0
BITMAP
000C60
0006C0
000380
000000
FE1FF0
C18030
C0C060
C0C0C0
C060C0
C06180
C06300
C06300
C06600
C0C600
C0CC00
C19800
FE1FF0
ENDCHAR
STARTCHAR 01C5
ENCODING 453
SWIDTH 1277 0
DWIDTH 23 0
BBX 20 15 2 0
BITMAP
000630
000360
FE01C0
C18000
C0C000
C0CFF0
C06030
C06060
C060C0
C06180
C06180
C0C300
C0C600
C18C00
FE0FF0
ENDCHAR
STARTCHAR 01C6
ENCODING 454
SWIDTH 1166 0
DWIDTH 21 0
BBX 18 15 1 0
BITMAP
0018C0
018D80
018700
018000
018000
1DBFC0
6380C0
618180
C18300
C18600
C18600
C18C00
C19800
63B000
3DBFC0
ENDCHAR
STARTCHAR 01C7
ENCODING 455
SWIDTH 833 0
DWIDTH 15 0
BBX 12 16 2 -3
BITMAP
C030
C030
C030
C030
C030
C030
C030
C030
C030
C030
C030
C030
FF30
0030
0060
03C0
ENDCHAR
STARTCHAR 01C8
ENCODING 456
SWIDTH 833 0
DWIDTH 15 0
BBX 11 16 2 -3
BITMAP
C060
C000
C000
C060
C060
C060
C060
C060
C060
C060
C060
C060
FF60
0060
0060
03C0
ENDCHAR
STARTCHAR 01C9
ENCODING 457
SWIDTH 555 0
DWIDTH 10 0
BBX 6 17 2 -3
BITMAP
C0
CC
C0
C0
CC
CC
CC
CC
CC
CC
CC
CC
CC
CC
0C
0C
78
ENDCHAR
STARTCHAR 01CA
ENCODING 458
SWIDTH 1000 0
DWIDTH 18 0
BBX 16 16 2 -3
BITMAP
C043
E043
E043
B043
9843
9843
8C43
8643
8643
8343
81C3
81C3
80C3
0003
0006
003C
ENDCHAR
STARTCHAR 01CB
ENCODING 459
SWIDTH 1000 0
DWIDTH 18 0
BBX 14 16 2 -3
BITMAP
C04C
E040
E040
B04C
984C
984C
8C4C
864C
864C
834C
81CC
81CC
80CC
000C
000C
0078
ENDCHAR
STARTCHAR 01CC
ENCODING 460
SWIDTH 888 0
DWIDTH 16 0
BBX 12 16 2 -3
BITMAP
0030
0000
0000
CE30
D330
E330
C330
C330
C330
C330
C330
C330
C330
0030
0030
01E0
ENDCHAR
STARTCHAR 01CD
ENCODING 461
SWIDTH 666 0
DWIDTH 12 0
BBX 12 17 0 0
BITMAP
3180
1B00
0E00
0000
0600
0600
0B00
0B00
1180
1180
1180
20C0
3FC0
4060
4060
4060
8030
ENDCHAR
STARTCHAR 01CE
ENCODING 462
SWIDTH 555 0
DWIDTH 10 0
BBX 8 15 1 0
BITMAP
63
36
1C
00
00
3C
46
06
06
3E
66
C6
C6
CE
73
ENDCHAR
STARTCHAR 01CF
ENCODING 463
SWIDTH 277 0
DWIDTH 5 0
BBX 7 17 0 0
BITMAP
C6
6C
38
00
30
30
30
30
30
30
30
30
30
30
30
30
30
ENDCHAR
STARTCHAR 01D0
ENCODING 464
SWIDTH 277 0
DWIDTH 5 0
BBX 7 15 0 0
BITMAP
C6
6C
38
00
00
30
30
30
30
30
30
30
30
30
30
ENDCHAR
STARTCHAR 01D1
ENCODING 465
SWIDTH 777 0
DWIDTH 14 0
BBX 13 17 1 0
BITMAP
18C0
0D80
0700
0000
0F80
3060
6030
6030
C018
C018
C018
C018
C018
6030
6030
3060
0F80
ENDCHAR
STARTCHAR 01D2
ENCODING 466
SWIDTH 611 0
DWIDTH 11 0
BBX 10 15 1 0
BITMAP
3180
1B00
0E00
0000
0000
1E00
6180
6180
C0C0
C0C0
C0C0
C0C0
6180
6180
1E00
ENDCHAR
STARTCHAR 01D3
ENCODING 467
SWIDTH 666 0
DWIDTH 12 0
BBX 9 17 2 0
BITMAP
6300
3600
1C00
0000
C180
C180
C180
C180
C180
C180
C180
C180
C180
C180
C180
6300
3E00
ENDCHAR
STARTCHAR 01D4
ENCODING 468
SWIDTH 611 0
DWIDTH 11 0
BBX 8 15 2 0
BITMAP
63
36
1C
00
00
C3
C3
C3
C3
C3
C3
C3
C7
CB
73
ENDCHAR
STARTCHAR 01D5
ENCODING 469
SWIDTH 666 0
DWIDTH 12 0
BBX 9 18 2 0
BITMAP
3E00
0000
0000
3600
0000
C180
C180
C180
C180
C180
C180
C180
C180
C180
C180
C180
6300
3E00
ENDCHAR
STARTCHAR 01D6
ENCODING 470
SWIDTH 611 0
DWIDTH 11 0
BBX 8 16 2 0
BITMAP
3E
00
00
36
00
00
C3
C3
C3
C3
C3
C3
C3
C7
CB
73
ENDCHAR
STARTCHAR 01D7
ENCODING 471
SWIDTH 666 0
DWIDTH 12 0
BBX 9 20 2 0
BITMAP
0600
0C00
1800
0000
0000
3600
0000
C180
C180
C180
C180
C180
C180
C180
C180
C180
C180
C180
6300
3E00
ENDCHAR
STARTCHAR 01D8
ENCODING 472
SWIDTH 611 0
DWIDTH 11 0
BBX 8 18 2 0
BITMAP
0C
18
30
00
00
36
00
00
C3
C3
C3
C3
C3
C3
C3
C7
CB
73
ENDCHAR
STARTCHAR 01D9
ENCODING 473
SWIDTH 666 0
DWIDTH 12 0
BBX 9 20 2 0
BITMAP
6300
3600
1C00
0000
0000
6300
0000
C180
C180
C180
C180
C180
C180
C180
C180
C180
C180
C180
6300
3E00
ENDCHAR
STARTCHAR 01DA
ENCODING 474
SWIDTH 611 0
DWIDTH 11 0
BBX 8 18 2 0
BITMAP
63
36
1C
00
00
63
00
00
C3
C3
C3
C3
C3
C3
C3
C7
CB
73
ENDCHAR
STARTCHAR 01DB
ENCODING 475
SWIDTH 666 0
DWIDTH 12 0
BBX 9 20 2 0
BITMAP
6000
3000
1800
0000
0000
3600
0000
C180
C180
C180
C180
C180
C180
C180
C180
C180
C180
C180
6300
3E00
ENDCHAR
STARTCHAR 01DC
ENCODING 476
SWIDTH 611 0
DWIDTH 11 0
BBX 8 18 2 0
BITMAP
C0
60
30
00
00
36
00
00
C3
C3
C3
C3
C3
C3
C3
C7
CB
73
ENDCHAR
STARTCHAR 01DD
ENCODING 477
SWIDTH 555 0
DWIDTH 10 0
BBX 8 10 1 0
BITMAP
78
8E
06
03
03
FF
C3
C3
66
3C
ENDCHAR
STARTCHAR 01DE
ENCODING 478
SWIDTH 666 0
DWIDTH 12 0
BBX 12 18 0 0
BITMAP
1F00
0000
0000
1B00
0000
0600
0600
0B00
0B00
1180
1180
1180
20C0
3FC0
4060
4060
4060
8030
ENDCHAR
STARTCHAR 01DF
ENCODING 479
SWIDTH 555 0
DWIDTH 10 0
BBX 8 16 1 0
BITMAP
7C
00
00
6C
00
00
3C
46
06
06
3E
66
C6
C6
CE
73
ENDCHAR
STARTCHAR 01E0
ENCODING 480
SWIDTH 666 0
DWIDTH 12 0
BBX 12 18 0 0
BITMAP
0F80
0000
0000
0300
0000
0600
0600
0B00
0B00
1180
1180
1180
20C0
3FC0
4060
4060
4060
8030
ENDCHAR
STARTCHAR 01E1
ENCODING 481
SWIDTH 555 0
DWIDTH 10 0
BBX 8 16 1 0
BITMAP
3E
00
00
0C
00
00
3C
46
06
06
3E
66
C6
C6
CE
73
ENDCHAR
STARTCHAR 01E2
ENCODING 482
SWIDTH 888 0
DWIDTH 16 0
BBX 16 15 0 0
BITMAP
007C
0000
00FF
01C0
02C0
02C0
04C0
04C0
08FE
10C0
1FC0
20C0
20C0
40C0
80FF
ENDCHAR
STARTCHAR 01E3
ENCODING 483
SWIDTH 833 0
DWIDTH 15 0
BBX 13 13 1 0
BITMAP
0F80
0000
0000
3DE0
4730
0618
0618
3FF8
6600
C600
C600
CB08
71F0
ENDCHAR
STARTCHAR 01E4
ENCODING 484
SWIDTH 833 0
DWIDTH 15 0
BBX 13 13 1 0
BITMAP
0FC0
3060
6000
6000
C000
C000
C000
C060
C060
61F8
6060
3860
0FE0
ENDCHAR
STARTCHAR 01E5
ENCODING 485
SWIDTH 722 0
DWIDTH 13 0
BBX 11 13 1 -3
BITMAP
3D80
6380
4180
C180
C7E0
C180
C180
C180
6380
3D80
0180
4300
3E00
ENDCHAR
STARTCHAR 01E6
ENCODING 486
SWIDTH 722 0
DWIDTH 13 0
BBX 11 17 1 0
BITMAP
18C0
0D80
0700
0000
0FC0
3060
6000
6000
C000
C000
C000
C060
C060
6060
6060
3860
0FC0
ENDCHAR
STARTCHAR 01E7
ENCODING 487
SWIDTH 611 0
DWIDTH 11 0
BBX 9 18 1 -3
BITMAP
6300
3600
1C00
0000
0000
1D80
6380
6180
C180
C180
C180
C180
C180
6380
3D80
0180
4300
3E00
ENDCHAR
STARTCHAR 01E8
ENCODING 488
SWIDTH 666 0
DWIDTH 12 0
BBX 9 17 2 0
BITMAP
6300
3600
1C00
0000
C100
C200
C400
C800
D000
E000
F000
D800
CC00
CC00
C600
C300
C180
ENDCHAR
STARTCHAR 01E9
ENCODING 489
SWIDTH 611 0
DWIDTH 11 0
BBX 8 17 2 0
BITMAP
C6
6C
38
C0
C0
C0
C0
C2
C4
C8
D0
E0
F0
D8
CC
C6
C3
ENDCHAR
STARTCHAR 01EA
ENCODING 490
SWIDTH 777 0
DWIDTH 14 0
BBX 13 16 1 -4
BITMAP
0F80
3060
6030
6030
C018
C018
C018
C018
C018
6030
6030
3060
0F80
0000
0400
0300
ENDCHAR
STARTCHAR 01EB
ENCODING 491
SWIDTH 611 0
DWIDTH 11 0
BBX 10 13 1 -4
BITMAP
1E00
6180
6180
C0C0
C0C0
C0C0
C0C0
6180
6180
1E00
0000
1000
0C00
ENDCHAR
STARTCHAR 01EC
ENCODING 492
SWIDTH 777 0
DWIDTH 14 0
BBX 13 18 1 -4
BITMAP
0F80
0000
0F80
3060
6030
6030
C018
C018
C018
C018
C018
6030
6030
3060
0F80
0000
0200
0180
ENDCHAR
STARTCHAR 01ED
ENCODING 493
SWIDTH 611 0
DWIDTH 11 0
BBX 10 16 1 -4
BITMAP
1F00
0000
0000
1E00
6180
6180
C0C0
C0C0
C0C0
C0C0
6180
6180
1E00
0000
0800
0600
ENDCHAR
STARTCHAR 01EE
ENCODING 494
SWIDTH 555 0
DWIDTH 10 0
BBX 8 17 1 0
BITMAP
63
36
1C
00
FF
06
0C
18
30
7C
0E
03
03
03
03
06
FC
ENDCHAR
STARTCHAR 01EF
ENCODING 495
SWIDTH 500 0
DWIDTH 9 0
BBX 8 18 1 -3
BITMAP
63
36
1C
00
00
FF
06
0C
18
30
78
0E
07
03
03
03
06
FC
ENDCHAR
STARTCHAR 01F0
ENCODING 496
SWIDTH 277 0
DWIDTH 5 0
BBX 8 17 -1 -3
BITMAP
63
36
1C
00
18
18
18
18
18
18
18
18
18
18
18
18
F0
ENDCHAR
STARTCHAR 01FA
ENCODING 506
SWIDTH 666 0
DWIDTH 12 0
BBX 12 21 0 0
BITMAP
0300
0600
0C00
0000
0300
0480
0480
0300
0600
0600
0B00
0B00
1180
1180
1180
20C0
3FC0
4060
4060
4060
8030
ENDCHAR
STARTCHAR 01FB
ENCODING 507
SWIDTH 555 0
DWIDTH 10 0
BBX 8 18 1 0
BITMAP
0C
18
30
00
18
24
24
18
3C
46
06
06
3E
66
C6
C6
CE
73
ENDCHAR
STARTCHAR 01FC
ENCODING 508
SWIDTH 888 0
DWIDTH 16 0
BBX 16 17 0 0
BITMAP
0030
0060
00C0
0000
00FF
01C0
02C0
02C0
04C0
04C0
08FE
10C0
1FC0
20C0
20C0
40C0
80FF
ENDCHAR
STARTCHAR 01FD
ENCODING 509
SWIDTH 833 0
DWIDTH 15 0
BBX 13 14 1 0
BITMAP
0180
0300
0600
0000
3DE0
4730
0618
0618
3FF8
6600
C600
C600
CB08
71F0
ENDCHAR
STARTCHAR 01FE
ENCODING 510
SWIDTH 777 0
DWIDTH 14 0
BBX 13 17 1 0
BITMAP
0300
0600
0C00
0000
0FD8
3070
6030
6070
C098
C118
C218
C418
C818
7030
6030
7060
DF80
ENDCHAR
STARTCHAR 01FF
ENCODING 511
SWIDTH 611 0
DWIDTH 11 0
BBX 10 14 1 0
BITMAP
0600
0C00
1800
0000
1EC0
6180
6380
C6C0
C4C0
C8C0
D8C0
7180
6180
DE00
ENDCHAR
STARTCHAR 0218
ENCODING 536
SWIDTH 555 0
DWIDTH 10 0
BBX 8 19 1 -6
BITMAP
3C
62
C0
C0
C0
70
3C
0E
03
03
03
86
7C
00
00
18
08
08
10
ENDCHAR
STARTCHAR 0219
ENCODING 537
SWIDTH 500 0
DWIDTH 9 0
BBX 7 16 1 -6
BITMAP
7C
C0
C0
E0
78
1C
06
06
86
78
00
00
30
10
10
20
ENDCHAR
STARTCHAR 021A
ENCODING 538
SWIDTH 611 0
DWIDTH 11 0
BBX 12 19 0 -6
BITMAP
FFF0
0600
0600
0600
0600
0600
0600
0600
0600
0600
0600
0600
0600
0000
0000
0600
0200
0200
0400
ENDCHAR
STARTCHAR 021B
ENCODING 539
SWIDTH 388 0
DWIDTH 7 0
BBX 5 18 1 -6
BITMAP
60
60
F8
60
60
60
60
60
60
60
60
38
00
00
30
10
10
20
ENDCHAR
STARTCHAR 0250
ENCODING 592
SWIDTH 555 0
DWIDTH 10 0
BBX 8 10 1 0
BITMAP
CE
73
63
63
66
7C
60
60
62
3C
ENDCHAR
STARTCHAR 0251
ENCODING 593
SWIDTH 611 0
DWIDTH 11 0
BBX 8 10 1 0
BITMAP
1F
33
63
C3
C3
C3
C3
C7
CB
73
ENDCHAR
STARTCHAR 0252
ENCODING 594
SWIDTH 611 0
DWIDTH 11 0
BBX 8 10 2 0
BITMAP
CE
D3
E3
C3
C3
C3
C3
C6
CC
F8
ENDCHAR
STARTCHAR 0253
ENCODING 595
SWIDTH 611 0
DWIDTH 11 0
BBX 9 14 2 0
BITMAP
3E00
6200
C000
C000
DE00
E300
C180
C180
C180
C180
C180
C100
E300
DE00
ENDCHAR
STARTCHAR 0254
ENCODING 596
SWIDTH 500 0
DWIDTH 9 0
BBX 7 10 1 0
BITMAP
78
8C
0C
06
06
06
06
0E
0C
F8
ENDCHAR
STARTCHAR 0255
ENCODING 597
SWIDTH 555 0
DWIDTH 10 0
BBX 9 12 1 -2
BITMAP
1F00
6000
6000
C000
C000
C700
C880
7080
7180
7E00
4000
4000
ENDCHAR
STARTCHAR 0256
ENCODING 598
SWIDTH 611 0
DWIDTH 11 0
BBX 11 17 1 -3
BITMAP
0180
0180
0180
0180
3D80
6380
4180
C180
C180
C180
C180
C180
6380
3D80
0180
0180
00E0
ENDCHAR
STARTCHAR 0257
ENCODING 599
SWIDTH 611 0
DWIDTH 11 0
BBX 11 14 1 0
BITMAP
00E0
0180
0180
0180
3D80
6380
4180
C180
C180
C180
C180
C180
6380
3D80
ENDCHAR
STARTCHAR 0258
ENCODING 600
SWIDTH 555 0
DWIDTH 10 0
BBX 8 10 1 0
BITMAP
3C
66
C3
C3
FF
03
03
06
8E
78
ENDCHAR
STARTCHAR 0259
ENCODING 601
SWIDTH 555 0
DWIDTH 10 0
BBX 8 10 1 0
BITMAP
78
8E
06
03
03
FF
C3
C3
66
3C
ENDCHAR
STARTCHAR 025A
ENCODING 602
SWIDTH 777 0
DWIDTH 14 0
BBX 13 10 1 0
BITMAP
7800
8E00
0600
0360
0FA0
F320
C320
C318
6600
3C00
ENDCHAR
STARTCHAR 025B
ENCODING 603
SWIDTH 500 0
DWIDTH 9 0
BBX 7 10 1 0
BITMAP
3E
60
60
70
3C
60
C0
C0
E0
3E
ENDCHAR
STARTCHAR 025C
ENCODING 604
SWIDTH 500 0
DWIDTH 9 0
BBX 7 10 1 0
BITMAP
F8
0C
0C
1C
78
0C
06
06
0E
F8
ENDCHAR
STARTCHAR 025D
ENCODING 605
SWIDTH 666 0
DWIDTH 12 0
BBX 11 10 1 0
BITMAP
F980
0F80
0C80
1C80
7860
0C00
0600
0600
8E00
7800
ENDCHAR
STARTCHAR 025E
ENCODING 606
SWIDTH 555 0
DWIDTH 10 0
BBX 9 10 1 0
BITMAP
1F00
6180
6180
C180
CE00
C380
C180
C180
6300
3E00
ENDCHAR
STARTCHAR 025F
ENCODING 607
SWIDTH 388 0
DWIDTH 7 0
BBX 7 13 0 -3
BITMAP
18
18
18
7E
18
18
18
18
18
18
18
98
F0
ENDCHAR
STARTCHAR 0260
ENCODING 608
SWIDTH 611 0
DWIDTH 11 0
BBX 11 17 1 -3
BITMAP
00E0
0180
0180
0180
3D80
6380
4180
C180
C180
C180
C180
C180
6380
3D80
0180
4300
3E00
ENDCHAR
STARTCHAR 0261
ENCODING 609
SWIDTH 611 0
DWIDTH 11 0
BBX 9 13 1 -3
BITMAP
1D80
6380
6180
C180
C180
C180
C180
C180
6380
3D80
0180
4300
3E00
ENDCHAR
STARTCHAR 0262
ENCODING 610
SWIDTH 611 0
DWIDTH 11 0
BBX 8 10 1 0
BITMAP
3F
60
E0
C0
C0
C0
C3
C3
63
3F
ENDCHAR
STARTCHAR 0263
ENCODING 611
SWIDTH 555 0
DWIDTH 10 0
BBX 9 13 0 -3
BITMAP
C180
6180
3300
3300
1E00
1C00
0C00
1C00
3600
2600
2600
2600
1C00
ENDCHAR
STARTCHAR 0264
ENCODING 612
SWIDTH 555 0
DWIDTH 10 0
BBX 10 10 0 0
BITMAP
C1C0
3300
1E00
1C00
1C00
1600
2200
2200
2200
1C00
ENDCHAR
STARTCHAR 0265
ENCODING 613
SWIDTH 611 0
DWIDTH 11 0
BBX 8 13 2 -3
BITMAP
C3
C3
C3
C3
C3
C3
C3
C3
C7
7B
03
03
03
ENDCHAR
STARTCHAR 0266
ENCODING 614
SWIDTH 611 0
DWIDTH 11 0
BBX 8 14 2 0
BITMAP
3E
62
C0
C0
CE
F3
C3
C3
C3
C3
C3
C3
C3
C3
ENDCHAR
STARTCHAR 0267
ENCODING 615
SWIDTH 611 0
DWIDTH 11 0
BBX 8 17 2 -3
BITMAP
3E
62
C0
C0
CE
F3
C3
C3
C3
C3
C3
C3
C3
C3
03
03
0E
ENDCHAR
STARTCHAR 0268
ENCODING 616
SWIDTH 388 0
DWIDTH 7 0
BBX 6 13 1 0
BITMAP
30
00
00
30
30
30
30
FC
30
30
30
30
30
ENDCHAR
STARTCHAR 0269
ENCODING 617
SWIDTH 388 0
DWIDTH 7 0
BBX 4 10 2 0
BITMAP
C0
C0
C0
C0
C0
C0
C0
C0
C0
70
ENDCHAR
STARTCHAR 026A
ENCODING 618
SWIDTH 388 0
DWIDTH 7 0
BBX 6 10 1 0
BITMAP
FC
30
30
30
30
30
30
30
30
FC
ENDCHAR
STARTCHAR 026B
ENCODING 619
SWIDTH 500 0
DWIDTH 9 0
BBX 8 14 1 0
BITMAP
18
18
18
18
18
19
79
9E
98
18
18
18
18
18
ENDCHAR
STARTCHAR 026C
ENCODING 620
SWIDTH 500 0
DWIDTH 9 0
BBX 10 14 0 0
BITMAP
0600
0600
0600
0600
7600
9E00
8600
7FC0
0600
0600
0600
0600
0600
0600
ENDCHAR
STARTCHAR 026D
ENCODING 621
SWIDTH 277 0
DWIDTH 5 0
BBX 4 17 2 -3
BITMAP
C0
C0
C0
C0
C0
C0
C0
C0
C0
C0
C0
C0
C0
C0
C0
C0
70
ENDCHAR
STARTCHAR 026E
ENCODING 622
SWIDTH 666 0
DWIDTH 12 0
BBX 9 17 2 -3
BITMAP
C000
C000
C000
C000
FF80
C180
C300
C200
C400
CC00
CE00
C300
C180
C180
0180
0300
3E00
ENDCHAR
STARTCHAR 026F
ENCODING 623
SWIDTH 944 0
DWIDTH 17 0
BBX 14 10 2 -1
BITMAP
C30C
C30C
C30C
C30C
C30C
C30C
C30C
C30C
C71C
79EC
ENDCHAR
STARTCHAR 0270
ENCODING 624
SWIDTH 944 0
DWIDTH 17 0
BBX 14 13 2 -3
BITMAP
C30C
C30C
C30C
C30C
C30C
C30C
C30C
C30C
C71C
79EC
000C
000C
000C
ENDCHAR
STARTCHAR 0271
ENCODING 625
SWIDTH 944 0
DWIDTH 17 0
BBX 14 13 2 -3
BITMAP
CE78
F38C
C30C
C30C
C30C
C30C
C30C
C30C
C30C
C30C
000C
000C
0038
ENDCHAR
STARTCHAR 0272
ENCODING 626
SWIDTH 611 0
DWIDTH 11 0
BBX 10 13 0 -3
BITMAP
3380
3CC0
30C0
30C0
30C0
30C0
30C0
30C0
30C0
30C0
3000
3000
E000
ENDCHAR
STARTCHAR 0273
ENCODING 627
SWIDTH 611 0
DWIDTH 11 0
BBX 10 13 2 -3
BITMAP
CE00
F300
C300
C300
C300
C300
C300
C300
C300
C300
0300
0300
01C0
ENDCHAR
STARTCHAR 0274
ENCODING 628
SWIDTH 611 0
DWIDTH 11 0
BBX 8 10 2 0
BITMAP
C3
E3
E3
F3
DB
DB
CF
C7
C7
C3
ENDCHAR
STARTCHAR 0275
ENCODING 629
SWIDTH 611 0
DWIDTH 11 0
BBX 9 10 1 0
BITMAP
3E00
6300
C180
C180
FF80
C180
C180
C180
6300
3E00
ENDCHAR
STARTCHAR 0276
ENCODING 630
SWIDTH 833 0
DWIDTH 15 0
BBX 13 10 1 0
BITMAP
1FF8
6380
6180
C180
C1F0
C180
C180
6180
6380
1FF8
ENDCHAR
STARTCHAR 0277
ENCODING 631
SWIDTH 833 0
DWIDTH 15 0
BBX 12 10 1 0
BITMAP
1F80
30C0
6060
C630
C630
C630
C630
C630
6660
39C0
ENDCHAR
STARTCHAR 0278
ENCODING 632
SWIDTH 777 0
DWIDTH 14 0
BBX 12 17 1 -3
BITMAP
0600
0600
0600
0600
0600
3FC0
6660
C630
C630
C630
C630
6660
3FC0
0600
0600
0600
0600
ENDCHAR
STARTCHAR 0279
ENCODING 633
SWIDTH 388 0
DWIDTH 7 0
BBX 5 10 0 0
BITMAP
18
18
18
18
18
18
18
18
38
D8
ENDCHAR
STARTCHAR 027A
ENCODING 634
SWIDTH 388 0
DWIDTH 7 0
BBX 5 14 0 0
BITMAP
18
18
18
18
18
18
18
18
18
18
18
18
38
D8
ENDCHAR
STARTCHAR 027B
ENCODING 635
SWIDTH 444 0
DWIDTH 8 0
BBX 7 13 0 -3
BITMAP
18
18
18
18
18
18
18
18
38
D8
18
18
0E
ENDCHAR
STARTCHAR 027C
ENCODING 636
SWIDTH 388 0
DWIDTH 7 0
BBX 5 13 2 -3
BITMAP
D8
E0
C0
C0
C0
C0
C0
C0
C0
C0
C0
C0
C0
ENDCHAR
STARTCHAR 027D
ENCODING 637
SWIDTH 388 0
DWIDTH 7 0
BBX 5 13 2 -3
BITMAP
D8
E0
C0
C0
C0
C0
C0
C0
C0
C0
C0
C0
70
ENDCHAR
STARTCHAR 027E
ENCODING 638
SWIDTH 388 0
DWIDTH 7 0
BBX 5 10 2 0
BITMAP
78
40
C0
C0
C0
C0
C0
C0
C0
C0
ENDCHAR
STARTCHAR 027F
ENCODING 639
SWIDTH 388 0
DWIDTH 7 0
BBX 5 10 0 0
BITMAP
F0
10
18
18
18
18
18
18
18
18
ENDCHAR
STARTCHAR 0280
ENCODING 640
SWIDTH 555 0
DWIDTH 10 0
BBX 8 10 2 0
BITMAP
FC
C6
C6
C6
CC
F8
DC
CC
C6
C7
ENDCHAR
STARTCHAR 0281
ENCODING 641
SWIDTH 555 0
DWIDTH 10 0
BBX 8 10 2 0
BITMAP
C7
C6
CC
DC
F8
CC
C6
C6
C6
FC
ENDCHAR
STARTCHAR 0282
ENCODING 642
SWIDTH 500 0
DWIDTH 9 0
BBX 6 13 1 -3
BITMAP
78
C0
C0
E0
70
3C
0C
0C
8C
F8
80
80
70
ENDCHAR
STARTCHAR 0283
ENCODING 643
SWIDTH 444 0
DWIDTH 8 0
BBX 10 17 -1 -3
BITMAP
03C0
0600
0C00
0C00
0C00
0C00
0C00
0C00
0C00
0C00
0C00
0C00
0C00
0C00
0C00
1800
F000
ENDCHAR
STARTCHAR 0284
ENCODING 644
SWIDTH 444 0
DWIDTH 8 0
BBX 7 17 0 -3
BITMAP
0E
18
18
18
18
18
7E
18
18
18
7E
18
18
18
18
18
F0
ENDCHAR
STARTCHAR 0285
ENCODING 645
SWIDTH 444 0
DWIDTH 8 0
BBX 10 14 -1 0
BITMAP
F000
1800
0C00
0C00
0C00
0C00
0C00
0C00
0C00
0C00
0C00
0C00
0600
03C0
ENDCHAR
STARTCHAR 0286
ENCODING 646
SWIDTH 500 0
DWIDTH 9 0
BBX 10 17 0 -3
BITMAP
03C0
0600
0C00
0C00
0C00
0C00
0C00
0C00
0C00
0C00
0C00
0C00
0C00
7F80
8C00
8C00
7000
ENDCHAR
STARTCHAR 0287
ENCODING 647
SWIDTH 388 0
DWIDTH 7 0
BBX 6 12 0 -2
BITMAP
F0
38
18
18
18
18
18
18
18
FC
18
18
ENDCHAR
STARTCHAR 0288
ENCODING 648
SWIDTH 388 0
DWIDTH 7 0
BBX 5 15 1 -3
BITMAP
60
60
F8
60
60
60
60
60
60
60
60
60
60
60
38
ENDCHAR
STARTCHAR 0289
ENCODING 649
SWIDTH 666 0
DWIDTH 12 0
BBX 12 10 0 0
BITMAP
30C0
30C0
30C0
30C0
FFF0
30C0
30C0
31C0
31C0
1EC0
ENDCHAR
STARTCHAR 028A
ENCODING 650
SWIDTH 666 0
DWIDTH 12 0
BBX 10 10 1 0
BITMAP
E1C0
6180
4080
C0C0
C0C0
C0C0
C0C0
6180
6180
1E00
ENDCHAR
STARTCHAR 028B
ENCODING 651
SWIDTH 611 0
DWIDTH 11 0
BBX 9 10 0 0
BITMAP
C180
E180
6180
6180
6180
3100
3300
3200
3E00
1800
ENDCHAR
STARTCHAR 028C
ENCODING 652
SWIDTH 500 0
DWIDTH 9 0
BBX 9 10 0 0
BITMAP
0C00
1C00
1C00
3600
2600
2600
4300
4300
4300
8180
ENDCHAR
STARTCHAR 028D
ENCODING 653
SWIDTH 777 0
DWIDTH 14 0
BBX 14 10 0 0
BITMAP
1860
1860
2CB0
2CB0
2CB0
4C98
4718
4718
870C
870C
ENDCHAR
STARTCHAR 028E
ENCODING 654
SWIDTH 500 0
DWIDTH 9 0
BBX 9 13 0 0
BITMAP
0400
0400
0800
0C00
1C00
1C00
1600
2600
2600
4300
4300
4300
8180
ENDCHAR
STARTCHAR 028F
ENCODING 655
SWIDTH 500 0
DWIDTH 9 0
BBX 8 10 0 0
BITMAP
E1
62
72
34
3C
18
18
18
18
18
ENDCHAR
STARTCHAR 0290
ENCODING 656
SWIDTH 555 0
DWIDTH 10 0
BBX 11 13 1 -3
BITMAP
FF00
0700
0600
0C00
1C00
3800
3000
6000
E000
FF00
0100
0100
00E0
ENDCHAR
STARTCHAR 0291
ENCODING 657
SWIDTH 722 0
DWIDTH 13 0
BBX 11 13 1 -3
BITMAP
FF00
0700
0600
0C00
1C00
39C0
3320
6620
E460
FF80
1800
1000
1000
ENDCHAR
STARTCHAR 0292
ENCODING 658
SWIDTH 500 0
DWIDTH 9 0
BBX 8 13 1 -3
BITMAP
FF
06
0C
18
30
78
0E
07
03
03
03
06
FC
ENDCHAR
STARTCHAR 0293
ENCODING 659
SWIDTH 555 0
DWIDTH 10 0
BBX 8 15 1 -5
BITMAP
7F
06
0C
18
70
7C
06
03
73
9B
8F
C6
7E
02
02
ENDCHAR
STARTCHAR 0294
ENCODING 660
SWIDTH 444 0
DWIDTH 8 0
BBX 6 14 1 0
BITMAP
78
8C
0C
0C
0C
18
30
60
60
60
60
60
60
60
ENDCHAR
STARTCHAR 0295
ENCODING 661
SWIDTH 444 0
DWIDTH 8 0
BBX 6 14 0 0
BITMAP
78
C4
C0
C0
C0
60
30
18
18
18
18
18
18
18
ENDCHAR
STARTCHAR 0296
ENCODING 662
SWIDTH 444 0
DWIDTH 8 0
BBX 7 14 1 0
BITMAP
60
60
60
60
60
60
30
18
0C
06
06
06
8E
78
ENDCHAR
STARTCHAR 0297
ENCODING 663
SWIDTH 500 0
DWIDTH 9 0
BBX 7 14 1 -4
BITMAP
1C
32
60
40
C0
C0
C0
C0
C0
C0
40
60
32
1C
ENDCHAR
STARTCHAR 0298
ENCODING 664
SWIDTH 666 0
DWIDTH 12 0
BBX 10 10 1 0
BITMAP
1E00
6180
4080
8040
8C40
8C40
8040
4080
6180
1E00
ENDCHAR
STARTCHAR 0299
ENCODING 665
SWIDTH 500 0
DWIDTH 9 0
BBX 7 10 2 0
BITMAP
FC
C6
C6
C4
F8
CC
C6
C6
C6
FC
ENDCHAR
STARTCHAR 029A
ENCODING 666
SWIDTH 555 0
DWIDTH 10 0
BBX 9 10 1 0
BITMAP
7C00
E300
C100
E080
3880
E080
C080
C180
6300
3E00
ENDCHAR
STARTCHAR 029B
ENCODING 667
SWIDTH 611 0
DWIDTH 11 0
BBX 11 14 1 0
BITMAP
00E0
0100
0100
0100
1F00
6000
E000
C000
C000
C000
C300
C300
6300
3F00
ENDCHAR
STARTCHAR 029C
ENCODING 668
SWIDTH 611 0
DWIDTH 11 0
BBX 8 10 2 0
BITMAP
C3
C3
C3
C3
FF
C3
C3
C3
C3
C3
ENDCHAR
STARTCHAR 029D
ENCODING 669
SWIDTH 500 0
DWIDTH 9 0
BBX 9 16 0 -3
BITMAP
0C00
0000
0000
0C00
0C00
0C00
0C00
0C00
0C00
0C00
0C00
0C00
7F80
8C00
8C00
7000
ENDCHAR
STARTCHAR 029E
ENCODING 670
SWIDTH 611 0
DWIDTH 11 0
BBX 8 13 1 -3
BITMAP
C3
63
73
3B
1F
1F
3B
73
63
C3
03
03
03
ENDCHAR
STARTCHAR 029F
ENCODING 671
SWIDTH 444 0
DWIDTH 8 0
BBX 6 10 2 0
BITMAP
C0
C0
C0
C0
C0
C0
C0
C0
C0
FC
ENDCHAR
STARTCHAR 02A0
ENCODING 672
SWIDTH 611 0
DWIDTH 11 0
BBX 11 17 1 -3
BITMAP
00E0
0180
0180
0180
3D80
6380
4180
C180
C180
C180
C180
C180
6380
3D80
0180
0180
0180
ENDCHAR
STARTCHAR 02A1
ENCODING 673
SWIDTH 444 0
DWIDTH 8 0
BBX 7 14 0 0
BITMAP
3C
46
06
06
0E
0C
18
30
30
FC
30
30
30
30
ENDCHAR
STARTCHAR 02A2
ENCODING 674
SWIDTH 444 0
DWIDTH 8 0
BBX 7 14 0 0
BITMAP
78
C4
C0
C0
E0
60
30
18
18
7E
18
18
18
18
ENDCHAR
STARTCHAR 02A3
ENCODING 675
SWIDTH 1055 0
DWIDTH 19 0
BBX 17 14 1 0
BITMAP
018000
018000
018000
018000
3DFF80
638380
418300
C18600
C18E00
C19C00
C19800
C1B000
63F000
3DFF80
ENDCHAR
STARTCHAR 02A4
ENCODING 676
SWIDTH 1000 0
DWIDTH 18 0
BBX 17 17 1 -3
BITMAP
018000
018000
018000
018000
3DFF80
638100
418200
C18400
C18800
C19E00
C18700
C18180
638180
3D8180
000180
000300
007C00
ENDCHAR
STARTCHAR 02A5
ENCODING 677
SWIDTH 1166 0
DWIDTH 21 0
BBX 20 17 1 -3
BITMAP
018000
018000
018000
018000
3DFF80
638380
418700
C18600
C18E00
C19CE0
C19990
C1BB10
63F230
3DFFC0
000C00
000800
000800
ENDCHAR
STARTCHAR 02A6
ENCODING 678
SWIDTH 777 0
DWIDTH 14 0
BBX 12 12 1 0
BITMAP
6000
6000
FFE0
6300
6300
6380
61C0
60F0
6030
6030
6230
39E0
ENDCHAR
STARTCHAR 02A7
ENCODING 679
SWIDTH 722 0
DWIDTH 13 0
BBX 13 17 1 -3
BITMAP
0078
00C0
6180
6180
FF80
6180
6180
6180
6180
6180
6180
6180
6180
3980
0180
0300
1E00
ENDCHAR
STARTCHAR 02A8
ENCODING 680
SWIDTH 888 0
DWIDTH 16 0
BBX 15 15 1 -3
BITMAP
6000
6000
FFFC
6180
6380
6300
6300
631C
6322
61C2
60C6
39F8
0100
0100
0100
ENDCHAR
STARTCHAR 02B0
ENCODING 688
SWIDTH 388 0
DWIDTH 7 0
BBX 5 8 1 8
BITMAP
80
80
B8
C8
88
88
88
88
ENDCHAR
STARTCHAR 02B1
ENCODING 689
SWIDTH 388 0
DWIDTH 7 0
BBX 5 9 1 8
BITMAP
70
80
80
B0
C8
88
88
88
88
ENDCHAR
STARTCHAR 02B2
ENCODING 690
SWIDTH 222 0
DWIDTH 4 0
BBX 3 11 0 5
BITMAP
20
00
20
20
20
20
20
20
20
20
C0
ENDCHAR
STARTCHAR 02B3
ENCODING 691
SWIDTH 277 0
DWIDTH 5 0
BBX 3 6 1 8
BITMAP
E0
80
80
80
80
80
ENDCHAR
STARTCHAR 02B4
ENCODING 692
SWIDTH 277 0
DWIDTH 5 0
BBX 3 6 0 8
BITMAP
20
20
20
20
20
E0
ENDCHAR
STARTCHAR 02B5
ENCODING 693
SWIDTH 333 0
DWIDTH 6 0
BBX 5 8 0 6
BITMAP
20
20
20
20
20
E0
20
18
ENDCHAR
STARTCHAR 02B6
ENCODING 694
SWIDTH 333 0
DWIDTH 6 0
BBX 5 6 1 8
BITMAP
98
B0
E0
90
90
F0
ENDCHAR
STARTCHAR 02B7
ENCODING 695
SWIDTH 500 0
DWIDTH 9 0
BBX 8 6 0 8
BITMAP
99
DB
5A
5A
6E
24
ENDCHAR
STARTCHAR 02B8
ENCODING 696
SWIDTH 333 0
DWIDTH 6 0
BBX 6 8 0 6
BITMAP
84
48
48
50
30
30
20
60
ENDCHAR
STARTCHAR 02B9
ENCODING 697
SWIDTH 277 0
DWIDTH 5 0
BBX 4 5 1 9
BITMAP
30
60
60
40
80
ENDCHAR
STARTCHAR 02BA
ENCODING 698
SWIDTH 500 0
DWIDTH 9 0
BBX 8 5 1 9
BITMAP
33
66
66
44
88
ENDCHAR
STARTCHAR 02BB
ENCODING 699
SWIDTH 333 0
DWIDTH 6 0
BBX 2 5 2 9
BITMAP
40
80
80
C0
C0
ENDCHAR
STARTCHAR 02BC
ENCODING 700
SWIDTH 333 0
DWIDTH 6 0
BBX 2 5 2 9
BITMAP
C0
C0
40
40
80
ENDCHAR
STARTCHAR 02BD
ENCODING 701
SWIDTH 333 0
DWIDTH 6 0
BBX 2 5 2 9
BITMAP
C0
C0
80
80
40
ENDCHAR
STARTCHAR 02BE
ENCODING 702
SWIDTH 333 0
DWIDTH 6 0
BBX 3 5 1 9
BITMAP
C0
20
20
20
C0
ENDCHAR
STARTCHAR 02BF
ENCODING 703
SWIDTH 333 0
DWIDTH 6 0
BBX 3 5 1 9
BITMAP
60
80
80
80
60
ENDCHAR
STARTCHAR 02C0
ENCODING 704
SWIDTH 333 0
DWIDTH 6 0
BBX 4 6 1 8
BITMAP
E0
10
10
20
40
40
ENDCHAR
STARTCHAR 02C1
ENCODING 705
SWIDTH 333 0
DWIDTH 6 0
BBX 4 6 1 8
BITMAP
70
80
80
40
20
20
ENDCHAR
STARTCHAR 02C2
ENCODING 706
SWIDTH 388 0
DWIDTH 7 0
BBX 6 5 0 9
BITMAP
04
38
C0
38
04
ENDCHAR
STARTCHAR 02C3
ENCODING 707
SWIDTH 388 0
DWIDTH 7 0
BBX 6 5 1 9
BITMAP
80
70
0C
70
80
ENDCHAR
STARTCHAR 02C4
ENCODING 708
SWIDTH 388 0
DWIDTH 7 0
BBX 5 6 1 8
BITMAP
20
20
50
50
50
88
ENDCHAR
STARTCHAR 02C5
ENCODING 709
SWIDTH 388 0
DWIDTH 7 0
BBX 5 6 1 8
BITMAP
88
50
50
50
20
20
ENDCHAR
STARTCHAR 02C6
ENCODING 710
SWIDTH 611 0
DWIDTH 11 0
BBX 7 3 2 11
BITMAP
38
6C
C6
ENDCHAR
STARTCHAR 02C7
ENCODING 711
SWIDTH 611 0
DWIDTH 11 0
BBX 7 3 2 11
BITMAP
C6
6C
38
ENDCHAR
STARTCHAR 02C8
ENCODING 712
SWIDTH 222 0
DWIDTH 4 0
BBX 1 5 2 9
BITMAP
80
80
80
80
80
ENDCHAR
STARTCHAR 02C9
ENCODING 713
SWIDTH 611 0
DWIDTH 11 0
BBX 5 1 3 11
BITMAP
F8
ENDCHAR
STARTCHAR 02CA
ENCODING 714
SWIDTH 611 0
DWIDTH 11 0
BBX 4 3 3 11
BITMAP
30
60
C0
ENDCHAR
STARTCHAR 02CB
ENCODING 715
SWIDTH 611 0
DWIDTH 11 0
BBX 4 3 3 11
BITMAP
C0
60
30
ENDCHAR
STARTCHAR 02CC
ENCODING 716
SWIDTH 222 0
DWIDTH 4 0
BBX 1 5 2 -3
BITMAP
80
80
80
80
80
ENDCHAR
STARTCHAR 02CD
ENCODING 717
SWIDTH 611 0
DWIDTH 11 0
BBX 5 1 3 -3
BITMAP
F8
ENDCHAR
STARTCHAR 02CE
ENCODING 718
SWIDTH 611 0
DWIDTH 11 0
BBX 4 3 3 -5
BITMAP
C0
60
30
ENDCHAR
STARTCHAR 02CF
ENCODING 719
SWIDTH 611 0
DWIDTH 11 0
BBX 4 3 3 -5
BITMAP
30
60
C0
ENDCHAR
STARTCHAR 02D0
ENCODING 720
SWIDTH 388 0
DWIDTH 7 0
BBX 3 10 2 0
BITMAP
E0
40
40
40
00
00
40
40
40
E0
ENDCHAR
STARTCHAR 02D1
ENCODING 721
SWIDTH 388 0
DWIDTH 7 0
BBX 4 3 2 6
BITMAP
F0
60
60
ENDCHAR
STARTCHAR 02D2
ENCODING 722
SWIDTH 277 0
DWIDTH 5 0
BBX 3 5 1 3
BITMAP
C0
20
20
20
C0
ENDCHAR
STARTCHAR 02D3
ENCODING 723
SWIDTH 277 0
DWIDTH 5 0
BBX 3 5 1 3
BITMAP
60
80
80
80
60
ENDCHAR
STARTCHAR 02D4
ENCODING 724
SWIDTH 444 0
DWIDTH 8 0
BBX 5 4 2 4
BITMAP
20
20
20
F8
ENDCHAR
STARTCHAR 02D5
ENCODING 725
SWIDTH 444 0
DWIDTH 8 0
BBX 5 4 2 4
BITMAP
F8
20
20
20
ENDCHAR
STARTCHAR 02D6
ENCODING 726
SWIDTH 444 0
DWIDTH 8 0
BBX 5 5 2 3
BITMAP
20
20
F8
20
20
ENDCHAR
STARTCHAR 02D7
ENCODING 727
SWIDTH 444 0
DWIDTH 8 0
BBX 6 3 1 4
BITMAP
84
FC
84
ENDCHAR
STARTCHAR 02D8
ENCODING 728
SWIDTH 611 0
DWIDTH 11 0
BBX 6 3 3 11
BITMAP
84
CC
78
ENDCHAR
STARTCHAR 02D9
ENCODING 729
SWIDTH 611 0
DWIDTH 11 0
BBX 2 1 5 11
BITMAP
C0
ENDCHAR
STARTCHAR 02DA
ENCODING 730
SWIDTH 611 0
DWIDTH 11 0
BBX 4 4 4 11
BITMAP
60
90
90
60
ENDCHAR
STARTCHAR 02DB
ENCODING 731
SWIDTH 611 0
DWIDTH 11 0
BBX 3 2 4 -3
BITMAP
80
60
ENDCHAR
STARTCHAR 02DC
ENCODING 732
SWIDTH 611 0
DWIDTH 11 0
BBX 6 2 3 11
BITMAP
E4
9C
ENDCHAR
STARTCHAR 02DD
ENCODING 733
SWIDTH 611 0
DWIDTH 11 0
BBX 7 3 2 11
BITMAP
36
6C
D8
ENDCHAR
STARTCHAR 02DE
ENCODING 734
SWIDTH 277 0
DWIDTH 5 0
BBX 5 5 -1 2
BITMAP
60
E0
20
20
18
ENDCHAR
STARTCHAR 02E0
ENCODING 736
SWIDTH 388 0
DWIDTH 7 0
BBX 7 9 0 5
BITMAP
C2
66
24
18
08
18
24
24
38
ENDCHAR
STARTCHAR 02E1
ENCODING 737
SWIDTH 166 0
DWIDTH 3 0
BBX 1 8 1 8
BITMAP
80
80
80
80
80
80
80
80
ENDCHAR
STARTCHAR 02E2
ENCODING 738
SWIDTH 333 0
DWIDTH 6 0
BBX 4 6 1 8
BITMAP
F0
80
C0
30
10
E0
ENDCHAR
STARTCHAR 02E3
ENCODING 739
SWIDTH 444 0
DWIDTH 8 0
BBX 6 6 1 8
BITMAP
CC
48
30
30
48
CC
ENDCHAR
STARTCHAR 02E4
ENCODING 740
SWIDTH 333 0
DWIDTH 6 0
BBX 4 8 0 8
BITMAP
70
80
80
40
20
20
20
20
ENDCHAR
STARTCHAR 02E5
ENCODING 741
SWIDTH 444 0
DWIDTH 8 0
BBX 6 13 0 0
BITMAP
FC
04
04
04
04
04
04
04
04
04
04
04
04
ENDCHAR
STARTCHAR 02E6
ENCODING 742
SWIDTH 444 0
DWIDTH 8 0
BBX 6 13 0 0
BITMAP
04
04
04
FC
04
04
04
04
04
04
04
04
04
ENDCHAR
STARTCHAR 02E7
ENCODING 743
SWIDTH 444 0
DWIDTH 8 0
BBX 6 13 0 0
BITMAP
04
04
04
04
04
04
FC
04
04
04
04
04
04
ENDCHAR
STARTCHAR 02E8
ENCODING 744
SWIDTH 444 0
DWIDTH 8 0
BBX 6 13 0 0
BITMAP
04
04
04
04
04
04
04
04
04
FC
04
04
04
ENDCHAR
STARTCHAR 02E9
ENCODING 745
SWIDTH 444 0
DWIDTH 8 0
BBX 6 13 0 0
BITMAP
04
04
04
04
04
04
04
04
04
04
04
04
FC
ENDCHAR
STARTCHAR 0300
ENCODING 768
SWIDTH 0 0
DWIDTH 0 0
BBX 4 3 -8 11
BITMAP
C0
60
30
ENDCHAR
STARTCHAR 0301
ENCODING 769
SWIDTH 0 0
DWIDTH 0 0
BBX 4 3 -7 11
BITMAP
30
60
C0
ENDCHAR
STARTCHAR 0302
ENCODING 770
SWIDTH 0 0
DWIDTH 0 0
BBX 7 3 -9 11
BITMAP
38
6C
C6
ENDCHAR
STARTCHAR 0303
ENCODING 771
SWIDTH 0 0
DWIDTH 0 0
BBX 6 2 -8 11
BITMAP
E4
9C
ENDCHAR
STARTCHAR 0304
ENCODING 772
SWIDTH 0 0
DWIDTH 0 0
BBX 5 1 -8 11
BITMAP
F8
ENDCHAR
STARTCHAR 0305
ENCODING 773
SWIDTH 0 0
DWIDTH 0 0
BBX 11 1 -11 14
BITMAP
FFE0
ENDCHAR
STARTCHAR 0306
ENCODING 774
SWIDTH 0 0
DWIDTH 0 0
BBX 6 3 -8 11
BITMAP
84
CC
78
ENDCHAR
STARTCHAR 0307
ENCODING 775
SWIDTH 0 0
DWIDTH 0 0
BBX 2 1 -6 12
BITMAP
C0
ENDCHAR
STARTCHAR 0308
ENCODING 776
SWIDTH 0 0
DWIDTH 0 0
BBX 5 1 -8 11
BITMAP
D8
ENDCHAR
STARTCHAR 0309
ENCODING 777
SWIDTH 0 0
DWIDTH 0 0
BBX 2 4 -6 11
BITMAP
C0
40
80
80
ENDCHAR
STARTCHAR 030A
ENCODING 778
SWIDTH 0 0
DWIDTH 0 0
BBX 4 4 -8 11
BITMAP
60
90
90
60
ENDCHAR
STARTCHAR 030B
ENCODING 779
SWIDTH 0 0
DWIDTH 0 0
BBX 7 3 -8 11
BITMAP
36
6C
D8
ENDCHAR
STARTCHAR 030C
ENCODING 780
SWIDTH 0 0
DWIDTH 0 0
BBX 7 3 -9 11
BITMAP
C6
6C
38
ENDCHAR
STARTCHAR 030D
ENCODING 781
SWIDTH 0 0
DWIDTH 0 0
BBX 1 3 -6 11
BITMAP
80
80
80
ENDCHAR
STARTCHAR 030E
ENCODING 782
SWIDTH 0 0
DWIDTH 0 0
BBX 4 3 -8 11
BITMAP
90
90
90
ENDCHAR
STARTCHAR 030F
ENCODING 783
SWIDTH 0 0
DWIDTH 0 0
BBX 7 3 -10 11
BITMAP
D8
6C
36
ENDCHAR
STARTCHAR 0310
ENCODING 784
SWIDTH 0 0
DWIDTH 0 0
BBX 7 5 -9 11
BITMAP
30
00
C6
6C
38
ENDCHAR
STARTCHAR 0311
ENCODING 785
SWIDTH 0 0
DWIDTH 0 0
BBX 6 3 -8 11
BITMAP
78
CC
84
ENDCHAR
STARTCHAR 0312
ENCODING 786
SWIDTH 0 0
DWIDTH 0 0
BBX 2 4 -6 11
BITMAP
40
80
80
C0
ENDCHAR
STARTCHAR 0313
ENCODING 787
SWIDTH 0 0
DWIDTH 0 0
BBX 2 4 -6 11
BITMAP
C0
40
40
80
ENDCHAR
STARTCHAR 0314
ENCODING 788
SWIDTH 0 0
DWIDTH 0 0
BBX 2 4 -6 10
BITMAP
C0
80
80
40
ENDCHAR
STARTCHAR 0315
ENCODING 789
SWIDTH 0 0
DWIDTH 0 0
BBX 2 4 -2 11
BITMAP
C0
40
40
80
ENDCHAR
STARTCHAR 0316
ENCODING 790
SWIDTH 0 0
DWIDTH 0 0
BBX 4 3 -8 -5
BITMAP
C0
60
30
ENDCHAR
STARTCHAR 0317
ENCODING 791
SWIDTH 0 0
DWIDTH 0 0
BBX 4 3 -8 -5
BITMAP
30
60
C0
ENDCHAR
STARTCHAR 0318
ENCODING 792
SWIDTH 0 0
DWIDTH 0 0
BBX 3 5 -8 -5
BITMAP
20
20
E0
20
20
ENDCHAR
STARTCHAR 0319
ENCODING 793
SWIDTH 0 0
DWIDTH 0 0
BBX 3 5 -6 -5
BITMAP
80
80
E0
80
80
ENDCHAR
STARTCHAR 031A
ENCODING 794
SWIDTH 0 0
DWIDTH 0 0
BBX 4 4 -4 10
BITMAP
F0
10
10
10
ENDCHAR
STARTCHAR 031B
ENCODING 795
SWIDTH 0 0
DWIDTH 0 0
BBX 4 4 -4 9
BITMAP
10
10
10
E0
ENDCHAR
STARTCHAR 031C
ENCODING 796
SWIDTH 0 0
DWIDTH 0 0
BBX 2 4 -7 -6
BITMAP
40
80
80
40
ENDCHAR
STARTCHAR 031D
ENCODING 797
SWIDTH 0 0
DWIDTH 0 0
BBX 5 3 -8 -5
BITMAP
20
20
F8
ENDCHAR
STARTCHAR 031E
ENCODING 798
SWIDTH 0 0
DWIDTH 0 0
BBX 5 3 -8 -5
BITMAP
F8
20
20
ENDCHAR
STARTCHAR 031F
ENCODING 799
SWIDTH 0 0
DWIDTH 0 0
BBX 5 5 -8 -7
BITMAP
20
20
F8
20
20
ENDCHAR
STARTCHAR 0320
ENCODING 800
SWIDTH 0 0
DWIDTH 0 0
BBX 5 3 -8 -4
BITMAP
88
F8
88
ENDCHAR
STARTCHAR 0321
ENCODING 801
SWIDTH 0 0
DWIDTH 0 0
BBX 4 3 -4 -3
BITMAP
30
30
E0
ENDCHAR
STARTCHAR 0322
ENCODING 802
SWIDTH 0 0
DWIDTH 0 0
BBX 4 3 -4 -3
BITMAP
C0
C0
70
ENDCHAR
STARTCHAR 0323
ENCODING 803
SWIDTH 0 0
DWIDTH 0 0
BBX 2 1 -6 -3
BITMAP
C0
ENDCHAR
STARTCHAR 0324
ENCODING 804
SWIDTH 0 0
DWIDTH 0 0
BBX 5 1 -8 -3
BITMAP
D8
ENDCHAR
STARTCHAR 0325
ENCODING 805
SWIDTH 0 0
DWIDTH 0 0
BBX 4 4 -8 -6
BITMAP
60
90
90
60
ENDCHAR
STARTCHAR 0326
ENCODING 806
SWIDTH 0 0
DWIDTH 0 0
BBX 2 4 -6 -6
BITMAP
C0
40
40
80
ENDCHAR
STARTCHAR 0327
ENCODING 807
SWIDTH 0 0
DWIDTH 0 0
BBX 3 4 -6 -4
BITMAP
40
E0
20
E0
ENDCHAR
STARTCHAR 0328
ENCODING 808
SWIDTH 0 0
DWIDTH 0 0
BBX 3 2 -7 -3
BITMAP
80
E0
ENDCHAR
STARTCHAR 0329
ENCODING 809
SWIDTH 0 0
DWIDTH 0 0
BBX 1 3 -6 -5
BITMAP
80
80
80
ENDCHAR
STARTCHAR 032A
ENCODING 810
SWIDTH 0 0
DWIDTH 0 0
BBX 5 3 -8 -5
BITMAP
F8
88
88
ENDCHAR
STARTCHAR 032B
ENCODING 811
SWIDTH 0 0
DWIDTH 0 0
BBX 7 2 -9 -4
BITMAP
92
6C
ENDCHAR
STARTCHAR 032C
ENCODING 812
SWIDTH 0 0
DWIDTH 0 0
BBX 7 3 -9 -5
BITMAP
C6
6C
38
ENDCHAR
STARTCHAR 032D
ENCODING 813
SWIDTH 0 0
DWIDTH 0 0
BBX 7 3 -9 -5
BITMAP
38
6C
C6
ENDCHAR
STARTCHAR 032E
ENCODING 814
SWIDTH 0 0
DWIDTH 0 0
BBX 6 3 -8 -4
BITMAP
84
CC
78
ENDCHAR
STARTCHAR 032F
ENCODING 815
SWIDTH 0 0
DWIDTH 0 0
BBX 6 3 -8 -4
BITMAP
78
CC
84
ENDCHAR
STARTCHAR 0330
ENCODING 816
SWIDTH 0 0
DWIDTH 0 0
BBX 6 2 -8 -4
BITMAP
E4
9C
ENDCHAR
STARTCHAR 0331
ENCODING 817
SWIDTH 0 0
DWIDTH 0 0
BBX 5 1 -8 -3
BITMAP
F8
ENDCHAR
STARTCHAR 0332
ENCODING 818
SWIDTH 0 0
DWIDTH 0 0
BBX 11 1 -11 -5
BITMAP
FFE0
ENDCHAR
STARTCHAR 0333
ENCODING 819
SWIDTH 0 0
DWIDTH 0 0
BBX 11 4 -11 -8
BITMAP
FFE0
0000
0000
FFE0
ENDCHAR
STARTCHAR 0334
ENCODING 820
SWIDTH 0 0
DWIDTH 0 0
BBX 9 3 -10 4
BITMAP
7080
9C80
8700
ENDCHAR
STARTCHAR 0335
ENCODING 821
SWIDTH 0 0
DWIDTH 0 0
BBX 9 1 -10 4
BITMAP
FF80
ENDCHAR
STARTCHAR 0336
ENCODING 822
SWIDTH 0 0
DWIDTH 0 0
BBX 11 1 -11 4
BITMAP
FFE0
ENDCHAR
STARTCHAR 0337
ENCODING 823
SWIDTH 0 0
DWIDTH 0 0
BBX 11 10 -11 0
BITMAP
0060
00C0
0180
0300
0600
0C00
1800
3000
6000
C000
ENDCHAR
STARTCHAR 0338
ENCODING 824
SWIDTH 0 0
DWIDTH 0 0
BBX 9 17 -10 -2
BITMAP
0080
0100
0100
0200
0200
0400
0400
0C00
0800
1800
1000
1000
2000
2000
4000
4000
8000
ENDCHAR
STARTCHAR 0339
ENCODING 825
SWIDTH 0 0
DWIDTH 0 0
BBX 2 3 -7 -5
BITMAP
C0
40
C0
ENDCHAR
STARTCHAR 033A
ENCODING 826
SWIDTH 0 0
DWIDTH 0 0
BBX 5 3 -8 -5
BITMAP
88
88
F8
ENDCHAR
STARTCHAR 033B
ENCODING 827
SWIDTH 0 0
DWIDTH 0 0
BBX 5 4 -8 -5
BITMAP
F8
88
88
F8
ENDCHAR
STARTCHAR 033C
ENCODING 828
SWIDTH 0 0
DWIDTH 0 0
BBX 7 2 -9 -4
BITMAP
6C
92
ENDCHAR
STARTCHAR 033D
ENCODING 829
SWIDTH 0 0
DWIDTH 0 0
BBX 5 4 -8 11
BITMAP
D8
70
70
D8
ENDCHAR
STARTCHAR 033E
ENCODING 830
SWIDTH 0 0
DWIDTH 0 0
BBX 2 3 -6 12
BITMAP
80
C0
40
ENDCHAR
STARTCHAR 033F
ENCODING 831
SWIDTH 0 0
DWIDTH 0 0
BBX 11 4 -11 14
BITMAP
FFE0
0000
0000
FFE0
ENDCHAR
STARTCHAR 0340
ENCODING 832
SWIDTH 0 0
DWIDTH 0 0
BBX 4 3 -11 16
BITMAP
C0
60
30
ENDCHAR
STARTCHAR 0341
ENCODING 833
SWIDTH 0 0
DWIDTH 0 0
BBX 4 3 -4 16
BITMAP
30
60
C0
ENDCHAR
STARTCHAR 0344
ENCODING 836
SWIDTH 0 0
DWIDTH 0 0
BBX 8 3 -9 11
BITMAP
18
18
DB
ENDCHAR
STARTCHAR 0345
ENCODING 837
SWIDTH 0 0
DWIDTH 0 0
BBX 3 3 -6 -4
BITMAP
80
80
E0
ENDCHAR
STARTCHAR 0374
ENCODING 884
SWIDTH 333 0
DWIDTH 6 0
BBX 4 5 1 8
BITMAP
30
60
60
40
80
ENDCHAR
STARTCHAR 0375
ENCODING 885
SWIDTH 333 0
DWIDTH 6 0
BBX 4 5 1 0
BITMAP
30
60
60
40
80
ENDCHAR
STARTCHAR 037A
ENCODING 890
SWIDTH 611 0
DWIDTH 11 0
BBX 3 3 5 -4
BITMAP
80
80
E0
ENDCHAR
STARTCHAR 037E
ENCODING 894
SWIDTH 333 0
DWIDTH 6 0
BBX 2 13 2 -3
BITMAP
C0
00
00
00
00
00
00
00
00
C0
40
40
80
ENDCHAR
STARTCHAR 0384
ENCODING 900
SWIDTH 611 0
DWIDTH 11 0
BBX 2 3 5 11
BITMAP
C0
C0
C0
ENDCHAR
STARTCHAR 0385
ENCODING 901
SWIDTH 611 0
DWIDTH 11 0
BBX 8 3 2 11
BITMAP
18
18
DB
ENDCHAR
STARTCHAR 0386
ENCODING 902
SWIDTH 666 0
DWIDTH 12 0
BBX 12 13 0 0
BITMAP
C600
C600
CB00
0B00
1180
1180
1180
20C0
3FC0
4060
4060
4060
8030
ENDCHAR
STARTCHAR 0388
ENCODING 904
SWIDTH 666 0
DWIDTH 12 0
BBX 12 13 0 0
BITMAP
CFF0
CC00
CC00
0C00
0C00
0C00
0FE0
0C00
0C00
0C00
0C00
0C00
0FF0
ENDCHAR
STARTCHAR 0389
ENCODING 905
SWIDTH 833 0
DWIDTH 15 0
BBX 14 13 0 0
BITMAP
CC0C
CC0C
CC0C
0C0C
0C0C
0FFC
0C0C
0C0C
0C0C
0C0C
0C0C
0C0C
0C0C
ENDCHAR
STARTCHAR 038A
ENCODING 906
SWIDTH 388 0
DWIDTH 7 0
BBX 6 13 0 0
BITMAP
CC
CC
CC
0C
0C
0C
0C
0C
0C
0C
0C
0C
0C
ENDCHAR
STARTCHAR 038C
ENCODING 908
SWIDTH 888 0
DWIDTH 16 0
BBX 16 13 0 0
BITMAP
C1F0
C60C
CC06
0C06
1803
1803
1803
1803
1803
0C06
0C06
060C
01F0
ENDCHAR
STARTCHAR 038E
ENCODING 910
SWIDTH 833 0
DWIDTH 15 0
BBX 15 13 0 0
BITMAP
DC06
C608
C310
01A0
01A0
00C0
00C0
00C0
00C0
00C0
00C0
00C0
00C0
ENDCHAR
STARTCHAR 038F
ENCODING 911
SWIDTH 888 0
DWIDTH 16 0
BBX 15 13 0 0
BITMAP
C3F0
C618
CC0C
1806
1806
1806
1806
1806
1806
0C0C
0408
0210
1F3E
ENDCHAR
STARTCHAR 0390
ENCODING 912
SWIDTH 388 0
DWIDTH 7 0
BBX 8 15 0 0
BITMAP
18
18
DB
00
00
18
18
18
18
18
18
18
18
18
0E
ENDCHAR
STARTCHAR 0391
ENCODING 913
SWIDTH 666 0
DWIDTH 12 0
BBX 12 13 0 0
BITMAP
0600
0600
0B00
0B00
1180
1180
1180
20C0
3FC0
4060
4060
4060
8030
ENDCHAR
STARTCHAR 0392
ENCODING 914
SWIDTH 555 0
DWIDTH 10 0
BBX 8 13 2 0
BITMAP
F8
CC
C6
C6
C6
CC
F8
C6
C3
C3
C3
C6
FC
ENDCHAR
STARTCHAR 0393
ENCODING 915
SWIDTH 500 0
DWIDTH 9 0
BBX 7 13 2 0
BITMAP
FE
C0
C0
C0
C0
C0
C0
C0
C0
C0
C0
C0
C0
ENDCHAR
STARTCHAR 0394
ENCODING 916
SWIDTH 722 0
DWIDTH 13 0
BBX 12 13 0 0
BITMAP
0600
0F00
0B00
1B80
1180
1180
30C0
20C0
6060
4060
C030
FFF0
FFF0
ENDCHAR
STARTCHAR 0395
ENCODING 917
SWIDTH 555 0
DWIDTH 10 0
BBX 8 13 2 0
BITMAP
FF
C0
C0
C0
C0
C0
FE
C0
C0
C0
C0
C0
FF
ENDCHAR
STARTCHAR 0396
ENCODING 918
SWIDTH 611 0
DWIDTH 11 0
BBX 9 13 1 0
BITMAP
FF80
0180
0300
0600
0600
0C00
1800
1800
3000
3000
6000
C000
FF80
ENDCHAR
STARTCHAR 0397
ENCODING 919
SWIDTH 722 0
DWIDTH 13 0
BBX 10 13 2 0
BITMAP
C0C0
C0C0
C0C0
C0C0
C0C0
FFC0
C0C0
C0C0
C0C0
C0C0
C0C0
C0C0
C0C0
ENDCHAR
STARTCHAR 0398
ENCODING 920
SWIDTH 777 0
DWIDTH 14 0
BBX 13 13 1 0
BITMAP
0F80
3060
6030
6030
C018
C018
CF98
C018
C018
6030
6030
3060
0F80
ENDCHAR
STARTCHAR 0399
ENCODING 921
SWIDTH 277 0
DWIDTH 5 0
BBX 2 13 2 0
BITMAP
C0
C0
C0
C0
C0
C0
C0
C0
C0
C0
C0
C0
C0
ENDCHAR
STARTCHAR 039A
ENCODING 922
SWIDTH 666 0
DWIDTH 12 0
BBX 9 13 2 0
BITMAP
C100
C200
C400
C800
D000
E000
F000
D800
CC00
CC00
C600
C300
C180
ENDCHAR
STARTCHAR 039B
ENCODING 923
SWIDTH 666 0
DWIDTH 12 0
BBX 11 13 0 0
BITMAP
0C00
0C00
0E00
1600
1300
1300
2300
2180
2180
40C0
40C0
40C0
8060
ENDCHAR
STARTCHAR 039C
ENCODING 924
SWIDTH 888 0
DWIDTH 16 0
BBX 12 13 2 0
BITMAP
C070
E070
E070
E0B0
B0B0
B0B0
9130
9930
9930
8E30
8E30
8630
8030
ENDCHAR
STARTCHAR 039D
ENCODING 925
SWIDTH 722 0
DWIDTH 13 0
BBX 10 13 2 0
BITMAP
C040
E040
E040
B040
9840
9840
8C40
8640
8640
8340
81C0
81C0
80C0
ENDCHAR
STARTCHAR 039E
ENCODING 926
SWIDTH 611 0
DWIDTH 11 0
BBX 10 13 1 0
BITMAP
FFC0
0000
0000
0000
0000
7F80
0000
0000
0000
0000
0000
0000
FFC0
ENDCHAR
STARTCHAR 039F
ENCODING 927
SWIDTH 777 0
DWIDTH 14 0
BBX 13 13 1 0
BITMAP
0F80
3060
6030
6030
C018
C018
C018
C018
C018
6030
6030
3060
0F80
ENDCHAR
STARTCHAR 03A0
ENCODING 928
SWIDTH 777 0
DWIDTH 14 0
BBX 12 13 1 0
BITMAP
FFF0
6060
6060
6060
6060
6060
6060
6060
6060
6060
6060
6060
6060
ENDCHAR
STARTCHAR 03A1
ENCODING 929
SWIDTH 555 0
DWIDTH 10 0
BBX 8 13 2 0
BITMAP
FC
C6
C3
C3
C3
C3
C6
FC
C0
C0
C0
C0
C0
ENDCHAR
STARTCHAR 03A3
ENCODING 931
SWIDTH 611 0
DWIDTH 11 0
BBX 10 13 1 0
BITMAP
FFC0
E000
7000
3800
1C00
0E00
0600
0C00
1800
3000
6000
C000
FFC0
ENDCHAR
STARTCHAR 03A4
ENCODING 932
SWIDTH 611 0
DWIDTH 11 0
BBX 12 13 0 0
BITMAP
FFF0
0600
0600
0600
0600
0600
0600
0600
0600
0600
0600
0600
0600
ENDCHAR
STARTCHAR 03A5
ENCODING 933
SWIDTH 611 0
DWIDTH 11 0
BBX 12 13 0 0
BITMAP
E030
3040
1880
0D00
0D00
0600
0600
0600
0600
0600
0600
0600
0600
ENDCHAR
STARTCHAR 03A6
ENCODING 934
SWIDTH 722 0
DWIDTH 13 0
BBX 12 13 1 0
BITMAP
0600
0600
1F80
6660
C630
C630
C630
C630
C630
6660
1F80
0600
0600
ENDCHAR
STARTCHAR 03A7
ENCODING 935
SWIDTH 611 0
DWIDTH 11 0
BBX 11 13 0 0
BITMAP
E020
6040
3080
3900
1B00
0E00
0E00
0E00
1300
1380
2180
40C0
80E0
ENDCHAR
STARTCHAR 03A8
ENCODING 936
SWIDTH 722 0
DWIDTH 13 0
BBX 14 13 0 0
BITMAP
C30C
6318
2310
3330
3330
3330
1B60
0FC0
0300
0300
0300
0300
0300
ENDCHAR
STARTCHAR 03A9
ENCODING 937
SWIDTH 777 0
DWIDTH 14 0
BBX 12 13 1 0
BITMAP
1F80
30C0
6060
C030
C030
C030
C030
C030
C030
6060
2040
1080
F9F0
ENDCHAR
STARTCHAR 03AA
ENCODING 938
SWIDTH 277 0
DWIDTH 5 0
BBX 5 15 1 0
BITMAP
D8
00
60
60
60
60
60
60
60
60
60
60
60
60
60
ENDCHAR
STARTCHAR 03AB
ENCODING 939
SWIDTH 611 0
DWIDTH 11 0
BBX 12 15 0 0
BITMAP
0D80
0000
E030
3040
1880
0D00
0D00
0600
0600
0600
0600
0600
0600
0600
0600
ENDCHAR
STARTCHAR 03AC
ENCODING 940
SWIDTH 722 0
DWIDTH 13 0
BBX 11 15 1 0
BITMAP
0C00
0C00
0C00
0000
0000
3860
6460
4640
C2C0
C380
C100
C380
C280
64C0
3860
ENDCHAR
STARTCHAR 03AD
ENCODING 941
SWIDTH 555 0
DWIDTH 10 0
BBX 7 15 2 0
BITMAP
0C
0C
0C
00
00
3E
60
C0
C0
FC
C0
C0
C0
62
3C
ENDCHAR
STARTCHAR 03AE
ENCODING 942
SWIDTH 611 0
DWIDTH 11 0
BBX 9 18 1 -3
BITMAP
0C00
0C00
0C00
0000
0000
C700
6B80
7180
6180
6180
6180
6180
6180
6180
6180
0180
0180
0180
ENDCHAR
STARTCHAR 03AF
ENCODING 943
SWIDTH 388 0
DWIDTH 7 0
BBX 4 15 3 0
BITMAP
C0
C0
C0
00
00
C0
C0
C0
C0
C0
C0
C0
C0
C0
70
ENDCHAR
STARTCHAR 03B0
ENCODING 944
SWIDTH 611 0
DWIDTH 11 0
BBX 8 15 2 0
BITMAP
18
18
DB
00
00
C6
C3
C3
C3
C3
C3
C3
C3
66
3C
ENDCHAR
STARTCHAR 03B1
ENCODING 945
SWIDTH 722 0
DWIDTH 13 0
BBX 11 10 1 0
BITMAP
3860
6460
4640
C2C0
C380
C100
C380
C280
64C0
3860
ENDCHAR
STARTCHAR 03B2
ENCODING 946
SWIDTH 611 0
DWIDTH 11 0
BBX 8 17 2 -3
BITMAP
3C
66
C6
C6
C6
CC
D8
C6
C3
C3
C3
C3
C6
FC
C0
C0
C0
ENDCHAR
STARTCHAR 03B3
ENCODING 947
SWIDTH 555 0
DWIDTH 10 0
BBX 10 13 0 -3
BITMAP
C0C0
6180
2180
3300
1300
1A00
0E00
0C00
0C00
0C00
0C00
0C00
0C00
ENDCHAR
STARTCHAR 03B4
ENCODING 948
SWIDTH 611 0
DWIDTH 11 0
BBX 9 14 1 0
BITMAP
7E00
C000
C000
6000
3800
1E00
7700
6380
C180
C180
C180
C180
6300
3E00
ENDCHAR
STARTCHAR 03B5
ENCODING 949
SWIDTH 555 0
DWIDTH 10 0
BBX 7 10 2 0
BITMAP
3E
60
C0
C0
FC
C0
C0
C0
62
3C
ENDCHAR
STARTCHAR 03B6
ENCODING 950
SWIDTH 611 0
DWIDTH 11 0
BBX 10 17 1 -3
BITMAP
00C0
8780
7E00
1800
3000
3000
3000
6000
6000
6000
6000
6000
3000
1F80
0040
0040
0780
ENDCHAR
STARTCHAR 03B7
ENCODING 951
SWIDTH 611 0
DWIDTH 11 0
BBX 9 13 1 -3
BITMAP
C700
6B80
7180
6180
6180
6180
6180
6180
6180
6180
0180
0180
0180
ENDCHAR
STARTCHAR 03B8
ENCODING 952
SWIDTH 611 0
DWIDTH 11 0
BBX 9 14 1 0
BITMAP
3E00
6300
4100
C180
C180
C180
FF80
C180
C180
C180
C180
4100
6300
3E00
ENDCHAR
STARTCHAR 03B9
ENCODING 953
SWIDTH 388 0
DWIDTH 7 0
BBX 4 10 3 0
BITMAP
C0
C0
C0
C0
C0
C0
C0
C0
C0
70
ENDCHAR
STARTCHAR 03BA
ENCODING 954
SWIDTH 555 0
DWIDTH 10 0
BBX 8 10 2 0
BITMAP
C3
C6
CC
D8
F0
F0
D8
CC
C6
C3
ENDCHAR
STARTCHAR 03BB
ENCODING 955
SWIDTH 611 0
DWIDTH 11 0
BBX 10 13 1 0
BITMAP
6000
1000
0800
0800
0C00
0C00
1A00
1A00
3100
3100
6080
6080
C040
ENDCHAR
STARTCHAR 03BC
ENCODING 956
SWIDTH 611 0
DWIDTH 11 0
BBX 9 13 2 -3
BITMAP
C300
C300
C300
C300
C300
C300
C300
C300
E700
D980
C000
C000
C000
ENDCHAR
STARTCHAR 03BD
ENCODING 957
SWIDTH 555 0
DWIDTH 10 0
BBX 10 10 0 0
BITMAP
C0C0
6040
6040
3080
3080
1880
1900
0D00
0E00
0600
ENDCHAR
STARTCHAR 03BE
ENCODING 958
SWIDTH 555 0
DWIDTH 10 0
BBX 10 16 1 -2
BITMAP
8780
7F00
3000
3000
3000
1800
0F00
3000
6000
6000
6000
3000
1F80
0040
0040
0780
ENDCHAR
STARTCHAR 03BF
ENCODING 959
SWIDTH 611 0
DWIDTH 11 0
BBX 10 10 1 0
BITMAP
1E00
6180
6180
C0C0
C0C0
C0C0
C0C0
6180
6180
1E00
ENDCHAR
STARTCHAR 03C0
ENCODING 960
SWIDTH 777 0
DWIDTH 14 0
BBX 13 10 0 0
BITMAP
FFF8
9860
1860
1860
1860
1860
1860
1860
1860
1830
ENDCHAR
STARTCHAR 03C1
ENCODING 961
SWIDTH 611 0
DWIDTH 11 0
BBX 9 13 2 -3
BITMAP
3E00
6300
4180
C180
C180
C180
C180
C300
C600
FC00
C000
C000
C000
ENDCHAR
STARTCHAR 03C2
ENCODING 962
SWIDTH 555 0
DWIDTH 10 0
BBX 9 13 1 -3
BITMAP
0F00
3000
6000
C000
C000
C000
C000
C000
6000
3F00
0080
0080
0F00
ENDCHAR
STARTCHAR 03C3
ENCODING 963
SWIDTH 666 0
DWIDTH 12 0
BBX 11 10 2 0
BITMAP
3FE0
6300
C180
C180
C180
C180
C180
C100
6300
3E00
ENDCHAR
STARTCHAR 03C4
ENCODING 964
SWIDTH 555 0
DWIDTH 10 0
BBX 10 10 0 0
BITMAP
FFC0
0C00
0C00
0C00
0C00
0C00
0C00
0C00
0C00
0600
ENDCHAR
STARTCHAR 03C5
ENCODING 965
SWIDTH 611 0
DWIDTH 11 0
BBX 8 10 2 0
BITMAP
C6
C3
C3
C3
C3
C3
C3
C3
66
3C
ENDCHAR
STARTCHAR 03C6
ENCODING 966
SWIDTH 777 0
DWIDTH 14 0
BBX 12 17 1 -3
BITMAP
0600
0600
0600
0600
0600
3FC0
6660
C630
C630
C630
C630
6660
3FC0
0600
0600
0600
0600
ENDCHAR
STARTCHAR 03C7
ENCODING 967
SWIDTH 555 0
DWIDTH 10 0
BBX 10 13 0 -3
BITMAP
E040
6080
3100
3300
1A00
1C00
0C00
0E00
1600
2300
2300
4180
81C0
ENDCHAR
STARTCHAR 03C8
ENCODING 968
SWIDTH 777 0
DWIDTH 14 0
BBX 12 15 1 -3
BITMAP
0600
0600
C660
C630
C630
C630
C630
C630
C630
6660
66E0
1F80
0600
0600
0600
ENDCHAR
STARTCHAR 03C9
ENCODING 969
SWIDTH 888 0
DWIDTH 16 0
BBX 14 10 1 0
BITMAP
3018
6318
630C
C30C
C30C
C30C
C30C
C30C
6498
3870
ENDCHAR
STARTCHAR 03CA
ENCODING 970
SWIDTH 388 0
DWIDTH 7 0
BBX 6 13 1 0
BITMAP
D8
00
00
30
30
30
30
30
30
30
30
30
1C
ENDCHAR
STARTCHAR 03CB
ENCODING 971
SWIDTH 611 0
DWIDTH 11 0
BBX 8 13 2 0
BITMAP
36
00
00
C6
C3
C3
C3
C3
C3
C3
C3
66
3C
ENDCHAR
STARTCHAR 03CC
ENCODING 972
SWIDTH 611 0
DWIDTH 11 0
BBX 10 15 1 0
BITMAP
0C00
0C00
0C00
0000
0000
1E00
6180
6180
C0C0
C0C0
C0C0
C0C0
6180
6180
1E00
ENDCHAR
STARTCHAR 03CD
ENCODING 973
SWIDTH 611 0
DWIDTH 11 0
BBX 8 15 2 0
BITMAP
18
18
18
00
00
C6
C3
C3
C3
C3
C3
C3
C3
66
3C
ENDCHAR
STARTCHAR 03CE
ENCODING 974
SWIDTH 888 0
DWIDTH 16 0
BBX 14 15 1 0
BITMAP
0300
0300
0300
0000
0000
3018
6318
630C
C30C
C30C
C30C
C30C
C30C
6498
3870
ENDCHAR
STARTCHAR 03D0
ENCODING 976
SWIDTH 500 0
DWIDTH 9 0
BBX 8 14 1 0
BITMAP
1E
33
63
67
DC
C0
C0
DE
E7
C3
C3
63
66
3C
ENDCHAR
STARTCHAR 03D1
ENCODING 977
SWIDTH 611 0
DWIDTH 11 0
BBX 10 14 2 0
BITMAP
3C00
6600
C200
C300
C300
C300
7FC0
0300
0300
0300
C200
4600
6400
3800
ENDCHAR
STARTCHAR 03D2
ENCODING 978
SWIDTH 611 0
DWIDTH 11 0
BBX 11 13 1 0
BITMAP
C0E0
6100
3300
3200
1E00
1C00
0C00
0C00
0C00
0C00
0C00
0C00
0C00
ENDCHAR
STARTCHAR 03D3
ENCODING 979
SWIDTH 833 0
DWIDTH 15 0
BBX 15 13 0 0
BITMAP
CE0E
C618
C330
03A0
01E0
01C0
00C0
00C0
00C0
00C0
00C0
00C0
00C0
ENDCHAR
STARTCHAR 03D4
ENCODING 980
SWIDTH 611 0
DWIDTH 11 0
BBX 11 15 1 0
BITMAP
1B00
0000
C0E0
6100
3300
3200
1E00
1C00
0C00
0C00
0C00
0C00
0C00
0C00
0C00
ENDCHAR
STARTCHAR 03D5
ENCODING 981
SWIDTH 833 0
DWIDTH 15 0
BBX 14 13 1 -3
BITMAP
3CF0
6798
C30C
C30C
C30C
C30C
C30C
6318
3330
0FC0
0300
0300
0300
ENDCHAR
STARTCHAR 03D6
ENCODING 982
SWIDTH 888 0
DWIDTH 16 0
BBX 14 10 1 0
BITMAP
FFFC
3030
6018
6318
6318
6318
6318
6318
3330
1CE0
ENDCHAR
STARTCHAR 03DA
ENCODING 986
SWIDTH 666 0
DWIDTH 12 0
BBX 11 16 2 -3
BITMAP
07C0
1800
3000
6000
6000
C000
C000
C000
C000
C000
6000
7000
1FC0
0020
0020
07C0
ENDCHAR
STARTCHAR 03DC
ENCODING 988
SWIDTH 555 0
DWIDTH 10 0
BBX 7 13 2 0
BITMAP
FE
C0
C0
C0
C0
C0
FC
C0
C0
C0
C0
C0
C0
ENDCHAR
STARTCHAR 03DE
ENCODING 990
SWIDTH 555 0
DWIDTH 10 0
BBX 9 13 1 0
BITMAP
1000
2000
2000
6000
4000
4000
FF80
0100
0100
0300
0200
0200
0400
ENDCHAR
STARTCHAR 03E0
ENCODING 992
SWIDTH 611 0
DWIDTH 11 0
BBX 10 13 0 0
BITMAP
E000
1800
0600
0F00
1900
3180
4180
03C0
0640
0C40
1040
0040
0080
ENDCHAR
STARTCHAR 03EE
ENCODING 1006
SWIDTH 611 0
DWIDTH 11 0
BBX 12 13 0 0
BITMAP
0600
0600
FFF0
0600
0600
0600
0600
0600
0600
0600
0600
0600
0600
ENDCHAR
STARTCHAR 03EF
ENCODING 1007
SWIDTH 555 0
DWIDTH 10 0
BBX 8 17 1 -3
BITMAP
18
18
18
18
FF
18
18
18
18
18
18
18
18
18
18
18
18
ENDCHAR
STARTCHAR 03F0
ENCODING 1008
SWIDTH 555 0
DWIDTH 10 0
BBX 8 10 1 0
BITMAP
C3
63
26
24
3C
3C
24
64
C4
C3
ENDCHAR
STARTCHAR 03F1
ENCODING 1009
SWIDTH 611 0
DWIDTH 11 0
BBX 8 13 1 -3
BITMAP
3C
66
C3
C3
C3
C3
C2
C6
F8
C0
40
60
1F
ENDCHAR
STARTCHAR 03F2
ENCODING 1010
SWIDTH 500 0
DWIDTH 9 0
BBX 7 10 1 0
BITMAP
1E
60
60
C0
C0
C0
C0
60
62
1C
ENDCHAR
STARTCHAR 0401
ENCODING 1025
SWIDTH 555 0
DWIDTH 10 0
BBX 8 15 2 0
BITMAP
6C
00
FF
C0
C0
C0
C0
C0
FE
C0
C0
C0
C0
C0
FF
ENDCHAR
STARTCHAR 0402
ENCODING 1026
SWIDTH 777 0
DWIDTH 14 0
BBX 14 13 -1 0
BITMAP
FFF0
0600
0600
0600
0600
06F0
0718
060C
060C
060C
060C
0618
0670
ENDCHAR
STARTCHAR 0403
ENCODING 1027
SWIDTH 500 0
DWIDTH 9 0
BBX 7 17 2 0
BITMAP
0C
18
30
00
FE
C0
C0
C0
C0
C0
C0
C0
C0
C0
C0
C0
C0
ENDCHAR
STARTCHAR 0404
ENCODING 1028
SWIDTH 611 0
DWIDTH 11 0
BBX 9 13 1 0
BITMAP
1F00
3080
6000
6000
C000
C000
FE00
C000
C000
6000
6000
3080
1F00
ENDCHAR
STARTCHAR 0405
ENCODING 1029
SWIDTH 555 0
DWIDTH 10 0
BBX 8 13 1 0
BITMAP
3C
62
C0
C0
C0
70
3C
0E
03
03
03
86
7C
ENDCHAR
STARTCHAR 0406
ENCODING 1030
SWIDTH 277 0
DWIDTH 5 0
BBX 2 13 2 0
BITMAP
C0
C0
C0
C0
C0
C0
C0
C0
C0
C0
C0
C0
C0
ENDCHAR
STARTCHAR 0407
ENCODING 1031
SWIDTH 277 0
DWIDTH 5 0
BBX 5 15 1 0
BITMAP
D8
00
60
60
60
60
60
60
60
60
60
60
60
60
60
ENDCHAR
STARTCHAR 0408
ENCODING 1032
SWIDTH 333 0
DWIDTH 6 0
BBX 6 16 -1 -3
BITMAP
0C
0C
0C
0C
0C
0C
0C
0C
0C
0C
0C
0C
0C
0C
18
F0
ENDCHAR
STARTCHAR 0409
ENCODING 1033
SWIDTH 1000 0
DWIDTH 18 0
BBX 17 13 1 0
BITMAP
1FE000
186000
186000
186000
186000
186000
187E00
186300
186180
106180
306180
606300
C07E00
ENDCHAR
STARTCHAR 040A
ENCODING 1034
SWIDTH 944 0
DWIDTH 17 0
BBX 15 13 2 0
BITMAP
C180
C180
C180
C180
C180
FFF8
C18C
C186
C186
C186
C186
C18C
C1F8
ENDCHAR
STARTCHAR 040B
ENCODING 1035
SWIDTH 777 0
DWIDTH 14 0
BBX 13 13 0 0
BITMAP
FFC0
0C00
0C00
0C00
0DE0
0E30
0C18
0C18
0C18
0C18
0C18
0C18
0C18
ENDCHAR
STARTCHAR 040C
ENCODING 1036
SWIDTH 611 0
DWIDTH 11 0
BBX 9 17 2 0
BITMAP
0600
0C00
1800
0000
C300
C200
C600
C400
CC00
D800
F000
DC00
CE00
C600
C300
C300
C180
ENDCHAR
STARTCHAR 040E
ENCODING 1038
SWIDTH 666 0
DWIDTH 12 0
BBX 11 17 1 0
BITMAP
2100
3300
1E00
0000
C020
6040
6040
3080
3080
1900
1A00
0E00
0C00
0400
0800
1000
6000
ENDCHAR
STARTCHAR 040F
ENCODING 1039
SWIDTH 722 0
DWIDTH 13 0
BBX 10 16 2 -3
BITMAP
C0C0
C0C0
C0C0
C0C0
C0C0
C0C0
C0C0
C0C0
C0C0
C0C0
C0C0
C0C0
FFC0
0C00
0C00
0C00
ENDCHAR
STARTCHAR 0410
ENCODING 1040
SWIDTH 666 0
DWIDTH 12 0
BBX 12 13 0 0
BITMAP
0600
0600
0B00
0B00
1180
1180
1180
20C0
3FC0
4060
4060
4060
8030
ENDCHAR
STARTCHAR 0411
ENCODING 1041
SWIDTH 555 0
DWIDTH 10 0
BBX 8 13 2 0
BITMAP
FE
C0
C0
C0
C0
C0
FC
C6
C3
C3
C3
C6
FC
ENDCHAR
STARTCHAR 0412
ENCODING 1042
SWIDTH 555 0
DWIDTH 10 0
BBX 8 13 2 0
BITMAP
F8
CC
C6
C6
C6
CC
F8
C6
C3
C3
C3
C6
FC
ENDCHAR
STARTCHAR 0413
ENCODING 1043
SWIDTH 500 0
DWIDTH 9 0
BBX 7 13 2 0
BITMAP
FE
C0
C0
C0
C0
C0
C0
C0
C0
C0
C0
C0
C0
ENDCHAR
STARTCHAR 0414
ENCODING 1044
SWIDTH 777 0
DWIDTH 14 0
BBX 13 16 1 -3
BITMAP
0FE0
0C60
0C60
0C60
0C60
0C60
0C60
1860
1860
1860
3060
3060
FFF8
C018
C018
C018
ENDCHAR
STARTCHAR 0415
ENCODING 1045
SWIDTH 555 0
DWIDTH 10 0
BBX 8 13 2 0
BITMAP
FF
C0
C0
C0
C0
C0
FE
C0
C0
C0
C0
C0
FF
ENDCHAR
STARTCHAR 0416
ENCODING 1046
SWIDTH 833 0
DWIDTH 15 0
BBX 14 13 1 0
BITMAP
4308
2310
3330
1320
1320
1B60
0FC0
1B60
3330
2310
6318
6318
C30C
ENDCHAR
STARTCHAR 0417
ENCODING 1047
SWIDTH 555 0
DWIDTH 10 0
BBX 8 13 1 0
BITMAP
7C
86
03
03
06
38
06
03
03
03
03
86
7C
ENDCHAR
STARTCHAR 0418
ENCODING 1048
SWIDTH 722 0
DWIDTH 13 0
BBX 10 13 2 0
BITMAP
80C0
81C0
81C0
8340
8640
8640
8C40
9840
9840
B040
F040
E040
C040
ENDCHAR
STARTCHAR 0419
ENCODING 1049
SWIDTH 722 0
DWIDTH 13 0
BBX 10 17 2 0
BITMAP
2100
3300
1E00
0000
80C0
81C0
81C0
8340
8640
8640
8C40
9840
9840
B040
F040
E040
C040
ENDCHAR
STARTCHAR 041A
ENCODING 1050
SWIDTH 611 0
DWIDTH 11 0
BBX 9 13 2 0
BITMAP
C300
C200
C600
C400
CC00
D800
F000
DC00
CE00
C600
C300
C300
C180
ENDCHAR
STARTCHAR 041B
ENCODING 1051
SWIDTH 722 0
DWIDTH 13 0
BBX 11 13 0 0
BITMAP
1FE0
1860
1860
1860
1860
1860
1860
1860
1860
1060
3060
6060
C060
ENDCHAR
STARTCHAR 041C
ENCODING 1052
SWIDTH 888 0
DWIDTH 16 0
BBX 12 13 2 0
BITMAP
C070
E070
E070
E0B0
B0B0
B0B0
9930
9930
9930
8E30
8E30
8630
8030
ENDCHAR
STARTCHAR 041D
ENCODING 1053
SWIDTH 722 0
DWIDTH 13 0
BBX 10 13 2 0
BITMAP
C0C0
C0C0
C0C0
C0C0
C0C0
FFC0
C0C0
C0C0
C0C0
C0C0
C0C0
C0C0
C0C0
ENDCHAR
STARTCHAR 041E
ENCODING 1054
SWIDTH 777 0
DWIDTH 14 0
BBX 13 13 1 0
BITMAP
0F80
3060
6030
6030
C018
C018
C018
C018
C018
6030
6030
3060
0F80
ENDCHAR
STARTCHAR 041F
ENCODING 1055
SWIDTH 722 0
DWIDTH 13 0
BBX 10 13 2 0
BITMAP
FFC0
C0C0
C0C0
C0C0
C0C0
C0C0
C0C0
C0C0
C0C0
C0C0
C0C0
C0C0
C0C0
ENDCHAR
STARTCHAR 0420
ENCODING 1056
SWIDTH 555 0
DWIDTH 10 0
BBX 8 13 2 0
BITMAP
FC
C6
C3
C3
C3
C3
C6
FC
C0
C0
C0
C0
C0
ENDCHAR
STARTCHAR 0421
ENCODING 1057
SWIDTH 666 0
DWIDTH 12 0
BBX 11 13 1 0
BITMAP
0FC0
3060
6000
6000
C000
C000
C000
C000
C000
6000
6000
3820
0FC0
ENDCHAR
STARTCHAR 0422
ENCODING 1058
SWIDTH 611 0
DWIDTH 11 0
BBX 12 13 0 0
BITMAP
FFF0
0600
0600
0600
0600
0600
0600
0600
0600
0600
0600
0600
0600
ENDCHAR
STARTCHAR 0423
ENCODING 1059
SWIDTH 666 0
DWIDTH 12 0
BBX 11 13 1 0
BITMAP
C020
6040
6040
3080
3080
1900
1A00
0E00
0C00
0400
0800
1000
6000
ENDCHAR
STARTCHAR 0424
ENCODING 1060
SWIDTH 666 0
DWIDTH 12 0
BBX 12 13 0 0
BITMAP
0600
0600
1F80
6660
C630
C630
C630
C630
C630
6660
1F80
0600
0600
ENDCHAR
STARTCHAR 0425
ENCODING 1061
SWIDTH 611 0
DWIDTH 11 0
BBX 11 13 0 0
BITMAP
E020
6040
3080
3900
1B00
0E00
0E00
0E00
1300
1380
2180
40C0
80E0
ENDCHAR
STARTCHAR 0426
ENCODING 1062
SWIDTH 777 0
DWIDTH 14 0
BBX 12 16 2 -3
BITMAP
C0C0
C0C0
C0C0
C0C0
C0C0
C0C0
C0C0
C0C0
C0C0
C0C0
C0C0
C0C0
FFF0
0030
0030
0030
ENDCHAR
STARTCHAR 0427
ENCODING 1063
SWIDTH 611 0
DWIDTH 11 0
BBX 8 13 2 0
BITMAP
C3
C3
C3
C3
C3
C3
C3
C7
7B
03
03
03
03
ENDCHAR
STARTCHAR 0428
ENCODING 1064
SWIDTH 944 0
DWIDTH 17 0
BBX 14 13 2 0
BITMAP
C30C
C30C
C30C
C30C
C30C
C30C
C30C
C30C
C30C
C30C
C30C
C30C
FFFC
ENDCHAR
STARTCHAR 0429
ENCODING 1065
SWIDTH 1000 0
DWIDTH 18 0
BBX 16 16 2 -3
BITMAP
C30C
C30C
C30C
C30C
C30C
C30C
C30C
C30C
C30C
C30C
C30C
C30C
FFFF
0003
0003
0003
ENDCHAR
STARTCHAR 042A
ENCODING 1066
SWIDTH 666 0
DWIDTH 12 0
BBX 11 13 1 0
BITMAP
F800
1800
1800
1800
1800
1800
1F80
18C0
1860
1860
1860
18C0
1F80
ENDCHAR
STARTCHAR 042B
ENCODING 1067
SWIDTH 777 0
DWIDTH 14 0
BBX 11 13 2 0
BITMAP
C060
C060
C060
C060
C060
C060
FC60
C660
C360
C360
C360
C660
FC60
ENDCHAR
STARTCHAR 042C
ENCODING 1068
SWIDTH 555 0
DWIDTH 10 0
BBX 8 13 2 0
BITMAP
C0
C0
C0
C0
C0
C0
FC
C6
C3
C3
C3
C6
FC
ENDCHAR
STARTCHAR 042D
ENCODING 1069
SWIDTH 611 0
DWIDTH 11 0
BBX 9 13 1 0
BITMAP
7C00
8600
0300
0180
0180
0180
3F80
0180
0180
0300
0300
8600
7C00
ENDCHAR
STARTCHAR 042E
ENCODING 1070
SWIDTH 944 0
DWIDTH 17 0
BBX 15 13 2 0
BITMAP
C1F0
C318
C60C
CC06
CC06
CC06
FC06
CC06
CC06
CC06
C60C
C318
C1F0
ENDCHAR
STARTCHAR 042F
ENCODING 1071
SWIDTH 611 0
DWIDTH 11 0
BBX 10 13 0 0
BITMAP
0FC0
18C0
30C0
30C0
30C0
18C0
0FC0
0CC0
18C0
10C0
30C0
60C0
C0C0
ENDCHAR
STARTCHAR 0430
ENCODING 1072
SWIDTH 555 0
DWIDTH 10 0
BBX 8 10 1 0
BITMAP
3C
46
06
06
3E
66
C6
C6
CE
73
ENDCHAR
STARTCHAR 0431
ENCODING 1073
SWIDTH 611 0
DWIDTH 11 0
BBX 9 14 1 0
BITMAP
1F00
7000
6000
C000
CE00
F300
C180
C180
C180
C180
C180
6100
6300
3E00
ENDCHAR
STARTCHAR 0432
ENCODING 1074
SWIDTH 500 0
DWIDTH 9 0
BBX 7 10 2 0
BITMAP
FC
C6
C6
C4
F8
CC
C6
C6
C6
FC
ENDCHAR
STARTCHAR 0433
ENCODING 1075
SWIDTH 500 0
DWIDTH 9 0
BBX 7 10 2 0
BITMAP
FE
C0
C0
C0
C0
C0
C0
C0
C0
C0
ENDCHAR
STARTCHAR 0434
ENCODING 1076
SWIDTH 666 0
DWIDTH 12 0
BBX 11 12 1 -2
BITMAP
1F80
1980
1980
1980
1980
1980
3180
3180
6180
FFE0
C060
C060
ENDCHAR
STARTCHAR 0435
ENCODING 1077
SWIDTH 555 0
DWIDTH 10 0
BBX 9 10 1 0
BITMAP
1E00
6300
6180
C180
FF80
C000
C000
6000
6080
1F00
ENDCHAR
STARTCHAR 0436
ENCODING 1078
SWIDTH 722 0
DWIDTH 13 0
BBX 12 10 1 0
BITMAP
4620
2640
2640
1680
1F80
36C0
2640
6660
6660
C630
ENDCHAR
STARTCHAR 0437
ENCODING 1079
SWIDTH 500 0
DWIDTH 9 0
BBX 7 10 1 0
BITMAP
7C
86
06
04
38
0C
06
06
8C
78
ENDCHAR
STARTCHAR 0438
ENCODING 1080
SWIDTH 611 0
DWIDTH 11 0
BBX 8 10 2 0
BITMAP
C3
C7
C7
CB
CB
D3
D3
E3
E3
C3
ENDCHAR
STARTCHAR 0439
ENCODING 1081
SWIDTH 611 0
DWIDTH 11 0
BBX 8 15 2 0
BITMAP
42
66
3C
00
00
C3
C7
C7
CB
CB
D3
D3
E3
E3
C3
ENDCHAR
STARTCHAR 043A
ENCODING 1082
SWIDTH 555 0
DWIDTH 10 0
BBX 8 10 2 0
BITMAP
C3
C4
C8
C8
F0
D8
CC
C6
C6
C3
ENDCHAR
STARTCHAR 043B
ENCODING 1083
SWIDTH 611 0
DWIDTH 11 0
BBX 9 10 0 0
BITMAP
3F80
3180
3180
3180
3180
3180
6180
6180
E180
C180
ENDCHAR
STARTCHAR 043C
ENCODING 1084
SWIDTH 722 0
DWIDTH 13 0
BBX 10 10 2 0
BITMAP
E0C0
E1C0
E1C0
F1C0
D2C0
D2C0
DAC0
CCC0
CCC0
C0C0
ENDCHAR
STARTCHAR 043D
ENCODING 1085
SWIDTH 611 0
DWIDTH 11 0
BBX 8 10 2 0
BITMAP
C3
C3
C3
C3
FF
C3
C3
C3
C3
C3
ENDCHAR
STARTCHAR 043E
ENCODING 1086
SWIDTH 611 0
DWIDTH 11 0
BBX 10 10 1 0
BITMAP
1E00
6180
6180
C0C0
C0C0
C0C0
C0C0
6180
6180
1E00
ENDCHAR
STARTCHAR 043F
ENCODING 1087
SWIDTH 611 0
DWIDTH 11 0
BBX 8 10 2 0
BITMAP
FF
C3
C3
C3
C3
C3
C3
C3
C3
C3
ENDCHAR
STARTCHAR 0440
ENCODING 1088
SWIDTH 611 0
DWIDTH 11 0
BBX 9 13 2 -3
BITMAP
DE00
E300
C180
C180
C180
C180
C180
C300
E300
DC00
C000
C000
C000
ENDCHAR
STARTCHAR 0441
ENCODING 1089
SWIDTH 500 0
DWIDTH 9 0
BBX 7 10 1 0
BITMAP
1E
60
60
C0
C0
C0
C0
60
62
1C
ENDCHAR
STARTCHAR 0442
ENCODING 1090
SWIDTH 500 0
DWIDTH 9 0
BBX 8 10 1 0
BITMAP
FF
18
18
18
18
18
18
18
18
18
ENDCHAR
STARTCHAR 0443
ENCODING 1091
SWIDTH 500 0
DWIDTH 9 0
BBX 9 13 0 -3
BITMAP
C080
6100
6100
3100
3200
1A00
1E00
1C00
0C00
0800
0800
1000
6000
ENDCHAR
STARTCHAR 0444
ENCODING 1092
SWIDTH 833 0
DWIDTH 15 0
BBX 12 16 2 -3
BITMAP
0600
0600
0600
3FC0
6660
C630
C630
C630
C630
C630
C630
6660
3FC0
0600
0600
0600
ENDCHAR
STARTCHAR 0445
ENCODING 1093
SWIDTH 611 0
DWIDTH 11 0
BBX 10 10 1 0
BITMAP
E040
7080
3100
1A00
1C00
0C00
1600
2300
4380
81C0
ENDCHAR
STARTCHAR 0446
ENCODING 1094
SWIDTH 666 0
DWIDTH 12 0
BBX 10 12 2 -2
BITMAP
C300
C300
C300
C300
C300
C300
C300
C300
C300
FFC0
00C0
00C0
ENDCHAR
STARTCHAR 0447
ENCODING 1095
SWIDTH 500 0
DWIDTH 9 0
BBX 7 10 1 0
BITMAP
C6
C6
C6
C6
C6
C6
7E
06
06
06
ENDCHAR
STARTCHAR 0448
ENCODING 1096
SWIDTH 833 0
DWIDTH 15 0
BBX 12 10 2 0
BITMAP
C630
C630
C630
C630
C630
C630
C630
C630
C630
FFF0
ENDCHAR
STARTCHAR 0449
ENCODING 1097
SWIDTH 888 0
DWIDTH 16 0
BBX 14 12 2 -2
BITMAP
C630
C630
C630
C630
C630
C630
C630
C630
C630
FFFC
000C
000C
ENDCHAR
STARTCHAR 044A
ENCODING 1098
SWIDTH 555 0
DWIDTH 10 0
BBX 10 10 0 0
BITMAP
F800
1800
1800
1800
1F80
18C0
18C0
18C0
18C0
1F00
ENDCHAR
STARTCHAR 044B
ENCODING 1099
SWIDTH 722 0
DWIDTH 13 0
BBX 10 10 2 0
BITMAP
C0C0
C0C0
C0C0
C0C0
FCC0
C6C0
C6C0
C6C0
CEC0
F8C0
ENDCHAR
STARTCHAR 044C
ENCODING 1100
SWIDTH 500 0
DWIDTH 9 0
BBX 7 10 2 0
BITMAP
C0
C0
C0
C0
FC
C6
C6
C6
CE
F8
ENDCHAR
STARTCHAR 044D
ENCODING 1101
SWIDTH 500 0
DWIDTH 9 0
BBX 7 10 1 0
BITMAP
78
8C
06
06
3E
06
06
0C
0C
F8
ENDCHAR
STARTCHAR 044E
ENCODING 1102
SWIDTH 833 0
DWIDTH 15 0
BBX 13 10 2 0
BITMAP
C3E0
C630
CC18
CC18
FC18
CC18
CC18
C418
C630
C3E0
ENDCHAR
STARTCHAR 044F
ENCODING 1103
SWIDTH 500 0
DWIDTH 9 0
BBX 7 10 1 0
BITMAP
3E
66
66
66
26
1E
36
66
66
C6
ENDCHAR
STARTCHAR 0451
ENCODING 1105
SWIDTH 555 0
DWIDTH 10 0
BBX 9 13 1 0
BITMAP
3600
0000
0000
1E00
6300
6180
C180
FF80
C000
C000
6000
6080
1F00
ENDCHAR
STARTCHAR 0452
ENCODING 1106
SWIDTH 611 0
DWIDTH 11 0
BBX 10 17 0 -3
BITMAP
3000
3000
3000
FE00
3000
3000
3380
3CC0
38C0
30C0
30C0
30C0
30C0
30C0
00C0
00C0
0380
ENDCHAR
STARTCHAR 0453
ENCODING 1107
SWIDTH 500 0
DWIDTH 9 0
BBX 7 15 2 0
BITMAP
0C
18
30
00
00
FE
C0
C0
C0
C0
C0
C0
C0
C0
C0
ENDCHAR
STARTCHAR 0454
ENCODING 1108
SWIDTH 500 0
DWIDTH 9 0
BBX 7 10 1 0
BITMAP
3E
60
C0
C0
F8
C0
C0
C0
62
3C
ENDCHAR
STARTCHAR 0455
ENCODING 1109
SWIDTH 500 0
DWIDTH 9 0
BBX 7 10 1 0
BITMAP
7C
C0
C0
E0
78
1C
06
06
86
78
ENDCHAR
STARTCHAR 0456
ENCODING 1110
SWIDTH 277 0
DWIDTH 5 0
BBX 2 13 2 0
BITMAP
C0
00
00
C0
C0
C0
C0
C0
C0
C0
C0
C0
C0
ENDCHAR
STARTCHAR 0457
ENCODING 1111
SWIDTH 277 0
DWIDTH 5 0
BBX 5 13 1 0
BITMAP
D8
00
00
60
60
60
60
60
60
60
60
60
60
ENDCHAR
STARTCHAR 0458
ENCODING 1112
SWIDTH 277 0
DWIDTH 5 0
BBX 5 16 -1 -3
BITMAP
18
00
00
18
18
18
18
18
18
18
18
18
18
18
18
F0
ENDCHAR
STARTCHAR 0459
ENCODING 1113
SWIDTH 777 0
DWIDTH 14 0
BBX 13 10 0 0
BITMAP
3F80
3180
3180
3180
31F0
3198
2198
6198
6198
C1F0
ENDCHAR
STARTCHAR 045A
ENCODING 1114
SWIDTH 833 0
DWIDTH 15 0
BBX 13 10 2 0
BITMAP
C300
C300
C300
C300
FFF0
C318
C318
C318
C338
C3E0
ENDCHAR
STARTCHAR 045B
ENCODING 1115
SWIDTH 611 0
DWIDTH 11 0
BBX 10 14 0 0
BITMAP
3000
3000
3000
FE00
3000
3000
3380
3CC0
38C0
30C0
30C0
30C0
30C0
30C0
ENDCHAR
STARTCHAR 045C
ENCODING 1116
SWIDTH 555 0
DWIDTH 10 0
BBX 8 15 2 0
BITMAP
0C
18
30
00
00
C3
C4
C8
C8
F0
D8
CC
C6
C6
C3
ENDCHAR
STARTCHAR 045E
ENCODING 1118
SWIDTH 500 0
DWIDTH 9 0
BBX 9 18 0 -3
BITMAP
4200
6600
3C00
0000
0000
C080
6100
6100
3100
3200
1A00
1E00
1C00
0C00
0800
0800
1000
6000
ENDCHAR
STARTCHAR 045F
ENCODING 1119
SWIDTH 611 0
DWIDTH 11 0
BBX 8 12 2 -2
BITMAP
C3
C3
C3
C3
C3
C3
C3
C3
C3
FF
18
18
ENDCHAR
STARTCHAR 0462
ENCODING 1122
SWIDTH 666 0
DWIDTH 12 0
BBX 11 13 0 0
BITMAP
1800
1800
FF00
1800
1800
1800
1F80
18C0
1860
1860
1860
18C0
1F80
ENDCHAR
STARTCHAR 0463
ENCODING 1123
SWIDTH 555 0
DWIDTH 10 0
BBX 9 14 0 0
BITMAP
3000
3000
3000
3000
FE00
3000
3000
3000
3F00
3180
3180
3180
3380
3E00
ENDCHAR
STARTCHAR 046A
ENCODING 1130
SWIDTH 833 0
DWIDTH 15 0
BBX 14 13 1 0
BITMAP
7FF8
6018
2010
1020
0840
0CC0
0FC0
1B60
3330
2310
6318
6318
C30C
ENDCHAR
STARTCHAR 046B
ENCODING 1131
SWIDTH 722 0
DWIDTH 13 0
BBX 12 10 1 0
BITMAP
7FE0
7060
3040
1880
0D00
1F80
36C0
6660
6660
C630
ENDCHAR
STARTCHAR 0490
ENCODING 1168
SWIDTH 500 0
DWIDTH 9 0
BBX 7 16 2 0
BITMAP
06
06
06
FE
C0
C0
C0
C0
C0
C0
C0
C0
C0
C0
C0
C0
ENDCHAR
STARTCHAR 0491
ENCODING 1169
SWIDTH 500 0
DWIDTH 9 0
BBX 7 12 2 0
BITMAP
06
06
FE
C0
C0
C0
C0
C0
C0
C0
C0
C0
ENDCHAR
STARTCHAR 0492
ENCODING 1170
SWIDTH 555 0
DWIDTH 10 0
BBX 9 13 1 0
BITMAP
3F80
3000
3000
3000
3000
3000
FE00
3000
3000
3000
3000
3000
3000
ENDCHAR
STARTCHAR 0493
ENCODING 1171
SWIDTH 500 0
DWIDTH 9 0
BBX 8 10 1 0
BITMAP
7F
60
60
60
60
FC
60
60
60
60
ENDCHAR
STARTCHAR 0494
ENCODING 1172
SWIDTH 611 0
DWIDTH 11 0
BBX 9 16 2 -3
BITMAP
FE00
C000
C000
C000
C000
DE00
E300
C180
C180
C180
C180
C180
C180
0300
0600
1C00
ENDCHAR
STARTCHAR 0495
ENCODING 1173
SWIDTH 555 0
DWIDTH 10 0
BBX 7 13 2 -3
BITMAP
FC
C0
C0
C0
FC
CC
C6
C6
C6
C6
06
0C
18
ENDCHAR
STARTCHAR 0496
ENCODING 1174
SWIDTH 888 0
DWIDTH 16 0
BBX 15 16 1 -3
BITMAP
4308
2310
3330
1320
1B60
1B60
0FC0
1B60
3330
2310
6310
6318
C30E
0006
0006
0006
ENDCHAR
STARTCHAR 0497
ENCODING 1175
SWIDTH 777 0
DWIDTH 14 0
BBX 13 12 0 -2
BITMAP
4620
2640
2640
36C0
1F80
36C0
2640
6640
6660
C638
0018
0018
ENDCHAR
STARTCHAR 0498
ENCODING 1176
SWIDTH 555 0
DWIDTH 10 0
BBX 8 17 1 -4
BITMAP
7C
86
03
03
06
38
06
03
03
03
03
86
7C
20
30
10
70
ENDCHAR
STARTCHAR 0499
ENCODING 1177
SWIDTH 500 0
DWIDTH 9 0
BBX 7 14 1 -4
BITMAP
7C
86
06
04
38
0C
06
06
8C
78
00
60
10
60
ENDCHAR
STARTCHAR 049A
ENCODING 1178
SWIDTH 666 0
DWIDTH 12 0
BBX 10 16 2 -3
BITMAP
C300
C200
C400
CC00
C800
D800
F000
CC00
CC00
C600
C200
C300
C1C0
00C0
00C0
00C0
ENDCHAR
STARTCHAR 049B
ENCODING 1179
SWIDTH 555 0
DWIDTH 10 0
BBX 8 12 2 -2
BITMAP
C4
C8
C8
D0
E0
D8
C8
C8
CC
C7
03
03
ENDCHAR
STARTCHAR 049C
ENCODING 1180
SWIDTH 722 0
DWIDTH 13 0
BBX 11 13 2 0
BITMAP
C0C0
C180
C180
D300
D300
D600
FC00
D700
D380
D180
C0C0
C0C0
C060
ENDCHAR
STARTCHAR 049D
ENCODING 1181
SWIDTH 666 0
DWIDTH 12 0
BBX 9 10 2 0
BITMAP
C180
C300
D200
D600
FC00
D600
D200
D300
C100
C180
ENDCHAR
STARTCHAR 049E
ENCODING 1182
SWIDTH 611 0
DWIDTH 11 0
BBX 10 13 0 0
BITMAP
30C0
3080
FD00
3300
3200
3600
3C00
3600
3300
3300
3180
3180
30C0
ENDCHAR
STARTCHAR 049F
ENCODING 1183
SWIDTH 555 0
DWIDTH 10 0
BBX 9 14 0 0
BITMAP
3000
3000
FC00
3000
3180
3100
3200
3600
3C00
3600
3200
3300
3300
3180
ENDCHAR
STARTCHAR 04A0
ENCODING 1184
SWIDTH 666 0
DWIDTH 12 0
BBX 11 13 0 0
BITMAP
F860
1840
1880
1980
1900
1B00
1E00
1B00
1980
1880
18C0
18C0
1860
ENDCHAR
STARTCHAR 04A1
ENCODING 1185
SWIDTH 611 0
DWIDTH 11 0
BBX 10 10 0 0
BITMAP
F8C0
1880
1900
1B00
1E00
1B00
1900
1980
1980
18C0
ENDCHAR
STARTCHAR 04A2
ENCODING 1186
SWIDTH 777 0
DWIDTH 14 0
BBX 12 16 2 -3
BITMAP
C0C0
C0C0
C0C0
C0C0
C0C0
FFC0
C0C0
C0C0
C0C0
C0C0
C0C0
C0C0
C0F0
0030
0030
0030
ENDCHAR
STARTCHAR 04A3
ENCODING 1187
SWIDTH 666 0
DWIDTH 12 0
BBX 10 12 2 -2
BITMAP
C300
C300
C300
C300
FF00
C300
C300
C300
C300
C3C0
00C0
00C0
ENDCHAR
STARTCHAR 04A4
ENCODING 1188
SWIDTH 833 0
DWIDTH 15 0
BBX 13 13 2 0
BITMAP
C0F8
C0C0
C0C0
C0C0
C0C0
FFC0
C0C0
C0C0
C0C0
C0C0
C0C0
C0C0
C0C0
ENDCHAR
STARTCHAR 04A5
ENCODING 1189
SWIDTH 666 0
DWIDTH 12 0
BBX 11 10 2 0
BITMAP
C3E0
C300
C300
C300
FF00
C300
C300
C300
C300
C300
ENDCHAR
STARTCHAR 04A6
ENCODING 1190
SWIDTH 1000 0
DWIDTH 18 0
BBX 16 16 2 -3
BITMAP
FF80
C180
C180
C180
C180
C1BC
C1C6
C183
C183
C183
C183
C183
C183
0006
000C
0038
ENDCHAR
STARTCHAR 04A7
ENCODING 1191
SWIDTH 888 0
DWIDTH 16 0
BBX 13 13 2 -3
BITMAP
FF00
C300
C300
C300
C3F0
C330
C318
C318
C318
C318
0018
0030
0060
ENDCHAR
STARTCHAR 04A8
ENCODING 1192
SWIDTH 777 0
DWIDTH 14 0
BBX 13 15 1 -2
BITMAP
1F00
30C0
60C0
41E0
C360
C630
C630
C630
C630
4620
6360
31C0
1FC0
0060
0038
ENDCHAR
STARTCHAR 04A9
ENCODING 1193
SWIDTH 611 0
DWIDTH 11 0
BBX 10 12 1 -2
BITMAP
3C00
6300
C700
CD80
CD80
CD80
CD80
CD00
6700
3F00
0380
00C0
ENDCHAR
STARTCHAR 04AA
ENCODING 1194
SWIDTH 666 0
DWIDTH 12 0
BBX 11 17 1 -4
BITMAP
0FC0
3060
6000
6000
C000
C000
C000
C000
C000
6000
6000
3820
0FC0
0200
0700
0100
0700
ENDCHAR
STARTCHAR 04AB
ENCODING 1195
SWIDTH 500 0
DWIDTH 9 0
BBX 7 14 1 -4
BITMAP
1E
60
60
C0
C0
C0
C0
60
62
1C
00
18
04
18
ENDCHAR
STARTCHAR 04AC
ENCODING 1196
SWIDTH 611 0
DWIDTH 11 0
BBX 12 16 0 -3
BITMAP
FFF0
0600
0600
0600
0600
0600
0600
0600
0600
0600
0600
0600
0780
0180
0180
0180
ENDCHAR
STARTCHAR 04AD
ENCODING 1197
SWIDTH 500 0
DWIDTH 9 0
BBX 8 12 1 -2
BITMAP
FF
18
18
18
18
18
18
18
18
1E
06
06
ENDCHAR
STARTCHAR 04AE
ENCODING 1198
SWIDTH 611 0
DWIDTH 11 0
BBX 11 13 0 0
BITMAP
E060
6040
7080
3180
3900
1A00
1E00
0C00
0C00
0C00
0C00
0C00
0C00
ENDCHAR
STARTCHAR 04AF
ENCODING 1199
SWIDTH 500 0
DWIDTH 9 0
BBX 8 10 0 0
BITMAP
E1
62
72
34
3C
18
18
18
18
18
ENDCHAR
STARTCHAR 04B0
ENCODING 1200
SWIDTH 611 0
DWIDTH 11 0
BBX 11 13 0 0
BITMAP
E060
6040
7080
3180
3900
1A00
1E00
0C00
0C00
7FC0
0C00
0C00
0C00
ENDCHAR
STARTCHAR 04B1
ENCODING 1201
SWIDTH 500 0
DWIDTH 9 0
BBX 8 10 0 0
BITMAP
E1
62
72
34
3C
18
18
7E
18
18
ENDCHAR
STARTCHAR 04B2
ENCODING 1202
SWIDTH 666 0
DWIDTH 12 0
BBX 11 16 0 -3
BITMAP
E0C0
6080
7100
3300
3A00
1C00
0C00
0E00
1600
3700
2300
4380
C1E0
0060
0060
0060
ENDCHAR
STARTCHAR 04B3
ENCODING 1203
SWIDTH 611 0
DWIDTH 11 0
BBX 10 12 1 -2
BITMAP
E180
6100
3200
3E00
1C00
1C00
1C00
2600
4700
C3C0
00C0
00C0
ENDCHAR
STARTCHAR 04B4
ENCODING 1204
SWIDTH 888 0
DWIDTH 16 0
BBX 15 16 1 -3
BITMAP
FF18
1818
1818
1818
1818
1818
1818
1818
1818
1818
1818
1818
1FFE
0006
0006
0006
ENDCHAR
STARTCHAR 04B5
ENCODING 1205
SWIDTH 666 0
DWIDTH 12 0
BBX 12 12 0 -2
BITMAP
FCC0
30C0
30C0
30C0
30C0
30C0
30C0
30C0
30C0
3FF0
0030
0030
ENDCHAR
STARTCHAR 04B6
ENCODING 1206
SWIDTH 666 0
DWIDTH 12 0
BBX 11 16 1 -3
BITMAP
C180
C180
C180
C180
C180
C180
C180
6380
3D80
0180
0180
0180
01E0
0060
0060
0060
ENDCHAR
STARTCHAR 04B7
ENCODING 1207
SWIDTH 555 0
DWIDTH 10 0
BBX 9 12 1 -2
BITMAP
C600
C600
C600
C600
C600
C600
7E00
0600
0600
0780
0180
0180
ENDCHAR
STARTCHAR 04B8
ENCODING 1208
SWIDTH 611 0
DWIDTH 11 0
BBX 9 13 1 0
BITMAP
C180
C180
C180
C180
C980
C980
C980
6B80
3D80
0980
0980
0180
0180
ENDCHAR
STARTCHAR 04B9
ENCODING 1209
SWIDTH 500 0
DWIDTH 9 0
BBX 7 10 1 0
BITMAP
C6
C6
C6
D6
D6
D6
7E
16
16
06
ENDCHAR
STARTCHAR 04BA
ENCODING 1210
SWIDTH 611 0
DWIDTH 11 0
BBX 9 13 2 0
BITMAP
C000
C000
C000
C000
DE00
E300
C180
C180
C180
C180
C180
C180
C180
ENDCHAR
STARTCHAR 04BB
ENCODING 1211
SWIDTH 500 0
DWIDTH 9 0
BBX 7 10 2 0
BITMAP
C0
C0
C0
FC
C6
C6
C6
C6
C6
C6
ENDCHAR
STARTCHAR 04BC
ENCODING 1212
SWIDTH 833 0
DWIDTH 15 0
BBX 14 13 0 0
BITMAP
01F0
0318
060C
8C0C
8C0C
7FFC
0C00
0C00
0C00
0600
0600
0304
00F8
ENDCHAR
STARTCHAR 04BD
ENCODING 1213
SWIDTH 722 0
DWIDTH 13 0
BBX 12 10 0 0
BITMAP
03C0
8660
8430
8C30
7FF0
0C00
0C00
0600
0710
01E0
ENDCHAR
STARTCHAR 04BE
ENCODING 1214
SWIDTH 833 0
DWIDTH 15 0
BBX 14 16 0 -4
BITMAP
01F0
0318
060C
8C0C
8C0C
7FFC
0C00
0C00
0C00
0600
0600
0304
00F8
0000
0080
0060
ENDCHAR
STARTCHAR 04BF
ENCODING 1215
SWIDTH 722 0
DWIDTH 13 0
BBX 12 13 0 -4
BITMAP
03C0
8720
8610
8E10
7FF0
0C00
0C00
0600
0710
01E0
0100
0200
0180
ENDCHAR
STARTCHAR 04C0
ENCODING 1216
SWIDTH 277 0
DWIDTH 5 0
BBX 2 13 2 0
BITMAP
C0
C0
C0
C0
C0
C0
C0
C0
C0
C0
C0
C0
C0
ENDCHAR
STARTCHAR 04C1
ENCODING 1217
SWIDTH 833 0
DWIDTH 15 0
BBX 14 17 1 0
BITMAP
0840
0CC0
0780
0000
4308
2310
3330
1320
1320
1B60
0FC0
1B60
3330
2310
6318
6318
C30C
ENDCHAR
STARTCHAR 04C2
ENCODING 1218
SWIDTH 722 0
DWIDTH 13 0
BBX 12 15 1 0
BITMAP
1080
1980
0F00
0000
0000
4620
2640
2640
1680
1F80
36C0
2640
6660
6660
C630
ENDCHAR
STARTCHAR 04C3
ENCODING 1219
SWIDTH 611 0
DWIDTH 11 0
BBX 8 16 2 -3
BITMAP
C3
C2
C4
CC
C8
D8
F8
CE
C6
C3
C3
C3
C3
02
06
1C
ENDCHAR
STARTCHAR 04C4
ENCODING 1220
SWIDTH 555 0
DWIDTH 10 0
BBX 7 13 2 -3
BITMAP
C6
C4
C8
D8
F0
CC
C6
C6
C6
C6
06
0C
18
ENDCHAR
STARTCHAR 04C7
ENCODING 1223
SWIDTH 722 0
DWIDTH 13 0
BBX 10 16 2 -3
BITMAP
C0C0
C0C0
C0C0
C0C0
C0C0
FFC0
C0C0
C0C0
C0C0
C0C0
C0C0
C0C0
C0C0
00C0
00C0
0380
ENDCHAR
STARTCHAR 04C8
ENCODING 1224
SWIDTH 611 0
DWIDTH 11 0
BBX 8 13 2 -3
BITMAP
C3
C3
C3
C3
FF
C3
C3
C3
C3
C3
03
03
0E
ENDCHAR
STARTCHAR 04CB
ENCODING 1227
SWIDTH 611 0
DWIDTH 11 0
BBX 9 16 1 -3
BITMAP
C180
C180
C180
C180
C180
C180
C180
6380
3D80
0180
0180
0180
0780
0600
0600
0600
ENDCHAR
STARTCHAR 04CC
ENCODING 1228
SWIDTH 500 0
DWIDTH 9 0
BBX 7 12 1 -2
BITMAP
C6
C6
C6
C6
C6
C6
7E
06
06
1E
18
18
ENDCHAR
STARTCHAR 05B0
ENCODING 1456
SWIDTH 0 0
DWIDTH 0 0
BBX 2 5 5 -6
BITMAP
80
C0
00
80
C0
ENDCHAR
STARTCHAR 05B1
ENCODING 1457
SWIDTH 0 0
DWIDTH 0 0
BBX 8 5 2 -6
BITMAP
92
DB
00
22
33
ENDCHAR
STARTCHAR 05B2
ENCODING 1458
SWIDTH 0 0
DWIDTH 0 0
BBX 7 5 3 -6
BITMAP
F4
06
00
04
06
ENDCHAR
STARTCHAR 05B3
ENCODING 1459
SWIDTH 0 0
DWIDTH 0 0
BBX 7 5 3 -6
BITMAP
F4
26
20
24
06
ENDCHAR
STARTCHAR 05B4
ENCODING 1460
SWIDTH 0 0
DWIDTH 0 0
BBX 2 2 5 -3
BITMAP
80
C0
ENDCHAR
STARTCHAR 05B5
ENCODING 1461
SWIDTH 0 0
DWIDTH 0 0
BBX 5 2 4 -3
BITMAP
90
D8
ENDCHAR
STARTCHAR 05B6
ENCODING 1462
SWIDTH 0 0
DWIDTH 0 0
BBX 5 5 4 -6
BITMAP
90
D8
00
40
60
ENDCHAR
STARTCHAR 05B7
ENCODING 1463
SWIDTH 0 0
DWIDTH 0 0
BBX 4 1 4 -2
BITMAP
F0
ENDCHAR
STARTCHAR 05B8
ENCODING 1464
SWIDTH 0 0
DWIDTH 0 0
BBX 4 4 4 -5
BITMAP
F0
20
20
20
ENDCHAR
STARTCHAR 05B9
ENCODING 1465
SWIDTH 0 0
DWIDTH 0 0
BBX 2 2 -1 11
BITMAP
80
C0
ENDCHAR
STARTCHAR 05BB
ENCODING 1467
SWIDTH 0 0
DWIDTH 0 0
BBX 8 4 2 -5
BITMAP
80
D0
1A
03
ENDCHAR
STARTCHAR 05BC
ENCODING 1468
SWIDTH 0 0
DWIDTH 0 0
BBX 2 1 4 5
BITMAP
C0
ENDCHAR
STARTCHAR 05BD
ENCODING 1469
SWIDTH 0 0
DWIDTH 0 0
BBX 1 3 6 -4
BITMAP
80
80
80
ENDCHAR
STARTCHAR 05BE
ENCODING 1470
SWIDTH 444 0
DWIDTH 8 0
BBX 6 1 1 9
BITMAP
FC
ENDCHAR
STARTCHAR 05BF
ENCODING 1471
SWIDTH 0 0
DWIDTH 0 0
BBX 4 1 4 12
BITMAP
F0
ENDCHAR
STARTCHAR 05C0
ENCODING 1472
SWIDTH 277 0
DWIDTH 5 0
BBX 2 11 2 0
BITMAP
40
C0
C0
C0
C0
C0
C0
C0
C0
C0
80
ENDCHAR
STARTCHAR 05C1
ENCODING 1473
SWIDTH 0 0
DWIDTH 0 0
BBX 2 2 10 11
BITMAP
80
C0
ENDCHAR
STARTCHAR 05C2
ENCODING 1474
SWIDTH 0 0
DWIDTH 0 0
BBX 1 2 1 11
BITMAP
80
80
ENDCHAR
STARTCHAR 05C3
ENCODING 1475
SWIDTH 222 0
DWIDTH 4 0
BBX 2 11 1 0
BITMAP
80
C0
00
00
00
00
00
00
00
80
C0
ENDCHAR
STARTCHAR 05D0
ENCODING 1488
SWIDTH 666 0
DWIDTH 12 0
BBX 10 10 1 0
BITMAP
C0C0
60C0
30C0
3D80
6F80
4700
C300
C180
C0C0
C040
ENDCHAR
STARTCHAR 05D1
ENCODING 1489
SWIDTH 555 0
DWIDTH 10 0
BBX 9 10 0 0
BITMAP
7E00
0300
0300
0300
0300
0300
0300
0300
0300
FF80
ENDCHAR
STARTCHAR 05D2
ENCODING 1490
SWIDTH 444 0
DWIDTH 8 0
BBX 7 11 0 0
BITMAP
08
0C
02
02
02
02
02
0E
36
E6
42
ENDCHAR
STARTCHAR 05D3
ENCODING 1491
SWIDTH 500 0
DWIDTH 9 0
BBX 8 10 1 0
BITMAP
FF
06
06
06
06
06
06
06
06
06
ENDCHAR
STARTCHAR 05D4
ENCODING 1492
SWIDTH 722 0
DWIDTH 13 0
BBX 10 10 1 0
BITMAP
FF80
00C0
00C0
60C0
60C0
60C0
60C0
60C0
60C0
60C0
ENDCHAR
STARTCHAR 05D5
ENCODING 1493
SWIDTH 333 0
DWIDTH 6 0
BBX 4 11 0 0
BITMAP
C0
70
30
30
30
30
30
30
30
30
30
ENDCHAR
STARTCHAR 05D6
ENCODING 1494
SWIDTH 333 0
DWIDTH 6 0
BBX 5 11 0 1
BITMAP
C0
E0
38
60
60
60
60
60
60
60
60
ENDCHAR
STARTCHAR 05D7
ENCODING 1495
SWIDTH 722 0
DWIDTH 13 0
BBX 10 10 1 0
BITMAP
FF80
60C0
60C0
60C0
60C0
60C0
60C0
60C0
60C0
60C0
ENDCHAR
STARTCHAR 05D8
ENCODING 1496
SWIDTH 666 0
DWIDTH 12 0
BBX 9 12 1 0
BITMAP
4000
C700
C180
C180
C180
C180
6180
6300
6300
6600
7C00
7000
ENDCHAR
STARTCHAR 05D9
ENCODING 1497
SWIDTH 333 0
DWIDTH 6 0
BBX 4 6 0 5
BITMAP
60
F0
70
30
30
30
ENDCHAR
STARTCHAR 05DA
ENCODING 1498
SWIDTH 555 0
DWIDTH 10 0
BBX 8 13 0 -3
BITMAP
FF
03
03
03
03
03
03
03
03
03
03
03
03
ENDCHAR
STARTCHAR 05DB
ENCODING 1499
SWIDTH 555 0
DWIDTH 10 0
BBX 9 10 0 0
BITMAP
7E00
0300
0180
0180
0180
0180
0180
0100
0300
FF00
ENDCHAR
STARTCHAR 05DC
ENCODING 1500
SWIDTH 555 0
DWIDTH 10 0
BBX 7 14 1 0
BITMAP
40
C0
C0
C0
FC
06
06
06
06
0C
1C
38
F0
C0
ENDCHAR
STARTCHAR 05DD
ENCODING 1501
SWIDTH 722 0
DWIDTH 13 0
BBX 10 10 1 0
BITMAP
FF80
60C0
60C0
60C0
60C0
60C0
60C0
60C0
60C0
7F80
ENDCHAR
STARTCHAR 05DE
ENCODING 1502
SWIDTH 666 0
DWIDTH 12 0
BBX 10 11 1 0
BITMAP
4F00
D980
7180
6180
6080
60C0
60C0
60C0
C0C0
C0C0
CF80
ENDCHAR
STARTCHAR 05DF
ENCODING 1503
SWIDTH 333 0
DWIDTH 6 0
BBX 4 14 0 -3
BITMAP
C0
60
30
30
30
30
30
30
30
30
30
30
30
30
ENDCHAR
STARTCHAR 05E0
ENCODING 1504
SWIDTH 388 0
DWIDTH 7 0
BBX 5 11 0 0
BITMAP
20
38
18
18
18
18
18
18
18
18
F0
ENDCHAR
STARTCHAR 05E1
ENCODING 1505
SWIDTH 666 0
DWIDTH 12 0
BBX 10 10 1 0
BITMAP
FF80
60C0
60C0
60C0
70C0
3080
3180
3100
3200
3C00
ENDCHAR
STARTCHAR 05E2
ENCODING 1506
SWIDTH 611 0
DWIDTH 11 0
BBX 10 11 0 -1
BITMAP
30C0
30C0
30C0
18C0
1880
1880
1980
1900
0E00
1800
E000
ENDCHAR
STARTCHAR 05E3
ENCODING 1507
SWIDTH 500 0
DWIDTH 9 0
BBX 7 14 0 -3
BITMAP
60
5C
C6
C6
C6
66
06
06
06
06
06
06
06
06
ENDCHAR
STARTCHAR 05E4
ENCODING 1508
SWIDTH 555 0
DWIDTH 10 0
BBX 8 11 0 0
BITMAP
30
2E
63
63
63
33
03
03
03
03
FF
ENDCHAR
STARTCHAR 05E5
ENCODING 1509
SWIDTH 500 0
DWIDTH 9 0
BBX 8 13 0 -3
BITMAP
83
C3
43
66
36
3C
18
18
18
18
18
18
18
ENDCHAR
STARTCHAR 05E6
ENCODING 1510
SWIDTH 555 0
DWIDTH 10 0
BBX 9 10 0 0
BITMAP
6180
6180
2180
3100
1B00
0E00
0C00
0600
0300
FF80
ENDCHAR
STARTCHAR 05E7
ENCODING 1511
SWIDTH 666 0
DWIDTH 12 0
BBX 10 14 1 -4
BITMAP
FF80
00C0
00C0
00C0
60C0
61C0
6180
6300
6700
6C00
6800
6000
6000
6000
ENDCHAR
STARTCHAR 05E8
ENCODING 1512
SWIDTH 500 0
DWIDTH 9 0
BBX 8 10 0 0
BITMAP
FE
C3
03
03
03
03
03
03
03
03
ENDCHAR
STARTCHAR 05E9
ENCODING 1513
SWIDTH 722 0
DWIDTH 13 0
BBX 11 10 1 0
BITMAP
4660
C660
C660
C660
CC40
D8C0
6180
4380
7E00
7800
ENDCHAR
STARTCHAR 05EA
ENCODING 1514
SWIDTH 666 0
DWIDTH 12 0
BBX 11 10 0 0
BITMAP
7FC0
1860
3060
3060
3060
3060
3060
3060
1860
F860
ENDCHAR
STARTCHAR 05F0
ENCODING 1520
SWIDTH 611 0
DWIDTH 11 0
BBX 10 11 0 0
BITMAP
E700
3180
18C0
18C0
18C0
18C0
18C0
18C0
18C0
18C0
18C0
ENDCHAR
STARTCHAR 05F1
ENCODING 1521
SWIDTH 611 0
DWIDTH 11 0
BBX 9 11 0 0
BITMAP
6200
F780
7380
3180
3180
3180
0180
0180
0180
0180
0180
ENDCHAR
STARTCHAR 05F2
ENCODING 1522
SWIDTH 611 0
DWIDTH 11 0
BBX 9 6 0 5
BITMAP
6300
F780
7380
3180
3180
3180
ENDCHAR
STARTCHAR 05F3
ENCODING 1523
SWIDTH 277 0
DWIDTH 5 0
BBX 3 4 1 9
BITMAP
60
40
C0
80
ENDCHAR
STARTCHAR 05F4
ENCODING 1524
SWIDTH 500 0
DWIDTH 9 0
BBX 7 4 1 9
BITMAP
66
44
CC
88
ENDCHAR
STARTCHAR 1E80
ENCODING 7808
SWIDTH 833 0
DWIDTH 15 0
BBX 15 17 0 0
BITMAP
0C00
0600
0300
0000
C182
C182
62C4
62C4
62C4
62C4
32EC
3468
3468
3468
3478
1830
1830
ENDCHAR
STARTCHAR 1E81
ENCODING 7809
SWIDTH 777 0
DWIDTH 14 0
BBX 14 14 0 0
BITMAP
1800
0C00
0600
0000
C384
C384
6388
6388
64C8
34D0
34D0
34D0
1860
1860
ENDCHAR
STARTCHAR 1E82
ENCODING 7810
SWIDTH 833 0
DWIDTH 15 0
BBX 15 17 0 0
BITMAP
00C0
0180
0300
0000
C182
C182
62C4
62C4
62C4
62C4
32EC
3468
3468
3468
3478
1830
1830
ENDCHAR
STARTCHAR 1E83
ENCODING 7811
SWIDTH 777 0
DWIDTH 14 0
BBX 14 14 0 0
BITMAP
00C0
0180
0300
0000
C384
C384
6388
6388
64C8
34D0
34D0
34D0
1860
1860
ENDCHAR
STARTCHAR 1E84
ENCODING 7812
SWIDTH 833 0
DWIDTH 15 0
BBX 15 15 0 0
BITMAP
06C0
0000
C182
C182
62C4
62C4
62C4
62C4
32EC
3468
3468
3468
3478
1830
1830
ENDCHAR
STARTCHAR 1E85
ENCODING 7813
SWIDTH 777 0
DWIDTH 14 0
BBX 14 12 0 0
BITMAP
0D80
0000
C384
C384
6388
6388
64C8
34D0
34D0
34D0
1860
1860
ENDCHAR
STARTCHAR 1EF2
ENCODING 7922
SWIDTH 611 0
DWIDTH 11 0
BBX 11 17 0 0
BITMAP
3000
1800
0C00
0000
C020
6040
6080
3080
3100
1A00
1A00
0C00
0C00
0C00
0C00
0C00
0C00
ENDCHAR
STARTCHAR 1EF3
ENCODING 7923
SWIDTH 500 0
DWIDTH 9 0
BBX 9 17 0 -3
BITMAP
6000
3000
1800
0000
C080
6100
6100
6100
3200
3200
3400
1C00
1C00
1800
0800
1000
1000
ENDCHAR
STARTCHAR 2000
ENCODING 8192
SWIDTH 500 0
DWIDTH 9 0
BBX 0 0 0 0
BITMAP
ENDCHAR
STARTCHAR 2001
ENCODING 8193
SWIDTH 1000 0
DWIDTH 18 0
BBX 0 0 0 0
BITMAP
ENDCHAR
STARTCHAR 2002
ENCODING 8194
SWIDTH 500 0
DWIDTH 9 0
BBX 0 0 0 0
BITMAP
ENDCHAR
STARTCHAR 2003
ENCODING 8195
SWIDTH 1000 0
DWIDTH 18 0
BBX 0 0 0 0
BITMAP
ENDCHAR
STARTCHAR 2004
ENCODING 8196
SWIDTH 333 0
DWIDTH 6 0
BBX 0 0 0 0
BITMAP
ENDCHAR
STARTCHAR 2005
ENCODING 8197
SWIDTH 277 0
DWIDTH 5 0
BBX 0 0 0 0
BITMAP
ENDCHAR
STARTCHAR 2006
ENCODING 8198
SWIDTH 166 0
DWIDTH 3 0
BBX 0 0 0 0
BITMAP
ENDCHAR
STARTCHAR 2007
ENCODING 8199
SWIDTH 611 0
DWIDTH 11 0
BBX 0 0 0 0
BITMAP
ENDCHAR
STARTCHAR 2008
ENCODING 8200
SWIDTH 333 0
DWIDTH 6 0
BBX 0 0 0 0
BITMAP
ENDCHAR
STARTCHAR 2009
ENCODING 8201
SWIDTH 111 0
DWIDTH 2 0
BBX 0 0 0 0
BITMAP
ENDCHAR
STARTCHAR 200A
ENCODING 8202
SWIDTH 55 0
DWIDTH 1 0
BBX 0 0 0 0
BITMAP
ENDCHAR
STARTCHAR 200B
ENCODING 8203
SWIDTH 0 0
DWIDTH 0 0
BBX 0 0 0 0
BITMAP
ENDCHAR
STARTCHAR 200C
ENCODING 8204
SWIDTH 0 0
DWIDTH 0 0
BBX 0 0 0 0
BITMAP
ENDCHAR
STARTCHAR 200D
ENCODING 8205
SWIDTH 0 0
DWIDTH 0 0
BBX 0 0 0 0
BITMAP
ENDCHAR
STARTCHAR 200E
ENCODING 8206
SWIDTH 0 0
DWIDTH 0 0
BBX 0 0 0 0
BITMAP
ENDCHAR
STARTCHAR 200F
ENCODING 8207
SWIDTH 0 0
DWIDTH 0 0
BBX 0 0 0 0
BITMAP
ENDCHAR
STARTCHAR 2010
ENCODING 8208
SWIDTH 333 0
DWIDTH 6 0
BBX 4 1 1 5
BITMAP
F0
ENDCHAR
STARTCHAR 2011
ENCODING 8209
SWIDTH 333 0
DWIDTH 6 0
BBX 4 1 1 5
BITMAP
F0
ENDCHAR
STARTCHAR 2012
ENCODING 8210
SWIDTH 611 0
DWIDTH 11 0
BBX 7 1 2 5
BITMAP
FE
ENDCHAR
STARTCHAR 2013
ENCODING 8211
SWIDTH 500 0
DWIDTH 9 0
BBX 7 1 1 5
BITMAP
FE
ENDCHAR
STARTCHAR 2014
ENCODING 8212
SWIDTH 1000 0
DWIDTH 18 0
BBX 16 1 1 5
BITMAP
FFFF
ENDCHAR
STARTCHAR 2015
ENCODING 8213
SWIDTH 1000 0
DWIDTH 18 0
BBX 16 1 1 5
BITMAP
FFFF
ENDCHAR
STARTCHAR 2016
ENCODING 8214
SWIDTH 555 0
DWIDTH 10 0
BBX 5 17 3 -3
BITMAP
88
88
88
88
88
88
88
88
88
88
88
88
88
88
88
88
88
ENDCHAR
STARTCHAR 2017
ENCODING 8215
SWIDTH 500 0
DWIDTH 9 0
BBX 7 4 1 -4
BITMAP
FE
00
00
FE
ENDCHAR
STARTCHAR 2018
ENCODING 8216
SWIDTH 333 0
DWIDTH 6 0
BBX 2 5 2 9
BITMAP
40
80
80
C0
C0
ENDCHAR
STARTCHAR 2019
ENCODING 8217
SWIDTH 333 0
DWIDTH 6 0
BBX 2 5 2 9
BITMAP
C0
C0
40
40
80
ENDCHAR
STARTCHAR 201A
ENCODING 8218
SWIDTH 333 0
DWIDTH 6 0
BBX 2 5 2 -3
BITMAP
C0
C0
40
40
80
ENDCHAR
STARTCHAR 201B
ENCODING 8219
SWIDTH 333 0
DWIDTH 6 0
BBX 3 5 2 9
BITMAP
C0
C0
80
C0
60
ENDCHAR
STARTCHAR 201C
ENCODING 8220
SWIDTH 388 0
DWIDTH 7 0
BBX 5 5 1 9
BITMAP
48
90
90
90
D8
ENDCHAR
STARTCHAR 201D
ENCODING 8221
SWIDTH 388 0
DWIDTH 7 0
BBX 5 5 1 9
BITMAP
D8
48
48
48
90
ENDCHAR
STARTCHAR 201E
ENCODING 8222
SWIDTH 388 0
DWIDTH 7 0
BBX 5 5 1 -3
BITMAP
D8
D8
48
48
90
ENDCHAR
STARTCHAR 201F
ENCODING 8223
SWIDTH 388 0
DWIDTH 7 0
BBX 5 5 1 9
BITMAP
D8
D8
90
D8
48
ENDCHAR
STARTCHAR 2020
ENCODING 8224
SWIDTH 611 0
DWIDTH 11 0
BBX 8 16 2 -3
BITMAP
18
18
18
18
18
FF
18
18
18
18
18
18
18
18
18
18
ENDCHAR
STARTCHAR 2021
ENCODING 8225
SWIDTH 611 0
DWIDTH 11 0
BBX 8 16 2 -3
BITMAP
18
18
18
18
18
FF
18
18
18
18
FF
18
18
18
18
18
ENDCHAR
STARTCHAR 2022
ENCODING 8226
SWIDTH 611 0
DWIDTH 11 0
BBX 3 3 4 4
BITMAP
E0
E0
E0
ENDCHAR
STARTCHAR 2023
ENCODING 8227
SWIDTH 333 0
DWIDTH 6 0
BBX 3 5 2 3
BITMAP
80
C0
E0
C0
80
ENDCHAR
STARTCHAR 2024
ENCODING 8228
SWIDTH 333 0
DWIDTH 6 0
BBX 2 1 2 0
BITMAP
C0
ENDCHAR
STARTCHAR 2025
ENCODING 8229
SWIDTH 666 0
DWIDTH 12 0
BBX 8 2 2 0
BITMAP
C3
C3
ENDCHAR
STARTCHAR 2026
ENCODING 8230
SWIDTH 1000 0
DWIDTH 18 0
BBX 14 1 2 0
BITMAP
C30C
ENDCHAR
STARTCHAR 2027
ENCODING 8231
SWIDTH 333 0
DWIDTH 6 0
BBX 2 2 2 4
BITMAP
C0
C0
ENDCHAR
STARTCHAR 2028
ENCODING 8232
SWIDTH 0 0
DWIDTH 0 0
BBX 0 0 0 0
BITMAP
ENDCHAR
STARTCHAR 2029
ENCODING 8233
SWIDTH 0 0
DWIDTH 0 0
BBX 0 0 0 0
BITMAP
ENDCHAR
STARTCHAR 202A
ENCODING 8234
SWIDTH 0 0
DWIDTH 0 0
BBX 0 0 0 0
BITMAP
ENDCHAR
STARTCHAR 202B
ENCODING 8235
SWIDTH 0 0
DWIDTH 0 0
BBX 0 0 0 0
BITMAP
ENDCHAR
STARTCHAR 202C
ENCODING 8236
SWIDTH 0 0
DWIDTH 0 0
BBX 0 0 0 0
BITMAP
ENDCHAR
STARTCHAR 202D
ENCODING 8237
SWIDTH 0 0
DWIDTH 0 0
BBX 0 0 0 0
BITMAP
ENDCHAR
STARTCHAR 202E
ENCODING 8238
SWIDTH 0 0
DWIDTH 0 0
BBX 0 0 0 0
BITMAP
ENDCHAR
STARTCHAR 2030
ENCODING 8240
SWIDTH 1000 0
DWIDTH 18 0
BBX 18 13 0 0
BITMAP
782000
846000
844000
848000
850000
860000
7FE780
061840
0A1840
121840
221840
621840
41E780
ENDCHAR
STARTCHAR 2031
ENCODING 8241
SWIDTH 1333 0
DWIDTH 24 0
BBX 26 13 0 0
BITMAP
78100000
CC200000
84400000
84800000
85000000
CE000000
7DE3C780
07366CC0
0A142840
12142840
22142840
43366CC0
81E3C780
ENDCHAR
STARTCHAR 2032
ENCODING 8242
SWIDTH 333 0
DWIDTH 6 0
BBX 4 5 1 9
BITMAP
30
60
60
40
80
ENDCHAR
STARTCHAR 2033
ENCODING 8243
SWIDTH 555 0
DWIDTH 10 0
BBX 9 5 1 9
BITMAP
3180
6300
6300
4200
8400
ENDCHAR
STARTCHAR 2034
ENCODING 8244
SWIDTH 777 0
DWIDTH 14 0
BBX 14 5 1 9
BITMAP
318C
6318
6318
4210
8420
ENDCHAR
STARTCHAR 2035
ENCODING 8245
SWIDTH 333 0
DWIDTH 6 0
BBX 4 5 1 9
BITMAP
C0
60
60
20
10
ENDCHAR
STARTCHAR 2036
ENCODING 8246
SWIDTH 555 0
DWIDTH 10 0
BBX 9 5 -1 9
BITMAP
C600
6300
6300
2100
1080
ENDCHAR
STARTCHAR 2037
ENCODING 8247
SWIDTH 777 0
DWIDTH 14 0
BBX 14 5 -2 9
BITMAP
C630
6318
6318
2108
1084
ENDCHAR
STARTCHAR 2038
ENCODING 8248
SWIDTH 333 0
DWIDTH 6 0
BBX 5 6 0 -3
BITMAP
20
20
50
50
50
88
ENDCHAR
STARTCHAR 2039
ENCODING 8249
SWIDTH 333 0
DWIDTH 6 0
BBX 4 7 1 1
BITMAP
10
20
60
C0
60
20
10
ENDCHAR
STARTCHAR 203A
ENCODING 8250
SWIDTH 333 0
DWIDTH 6 0
BBX 4 7 1 1
BITMAP
80
40
60
30
60
40
80
ENDCHAR
STARTCHAR 203B
ENCODING 8251
SWIDTH 722 0
DWIDTH 13 0
BBX 11 11 1 1
BITMAP
0600
4640
2080
1100
CA60
C460
0A00
1100
2080
4640
0600
ENDCHAR
STARTCHAR 203C
ENCODING 8252
SWIDTH 500 0
DWIDTH 9 0
BBX 6 13 2 0
BITMAP
CC
CC
CC
CC
CC
CC
CC
CC
CC
CC
00
00
CC
ENDCHAR
STARTCHAR 203D
ENCODING 8253
SWIDTH 444 0
DWIDTH 8 0
BBX 7 13 0 0
BITMAP
78
8E
06
36
36
3C
38
30
30
30
00
00
30
ENDCHAR
STARTCHAR 203E
ENCODING 8254
SWIDTH 500 0
DWIDTH 9 0
BBX 7 1 1 14
BITMAP
FE
ENDCHAR
STARTCHAR 2040
ENCODING 8256
SWIDTH 611 0
DWIDTH 11 0
BBX 10 3 0 15
BITMAP
1E00
6180
8040
ENDCHAR
STARTCHAR 2041
ENCODING 8257
SWIDTH 444 0
DWIDTH 8 0
BBX 8 13 0 -3
BITMAP
03
02
06
04
0C
08
18
10
30
30
68
48
C4
ENDCHAR
STARTCHAR 2042
ENCODING 8258
SWIDTH 888 0
DWIDTH 16 0
BBX 14 13 2 0
BITMAP
0200
1240
0A80
0700
0F80
1240
1220
9324
54A8
3870
7CF8
9324
1020
ENDCHAR
STARTCHAR 2043
ENCODING 8259
SWIDTH 333 0
DWIDTH 6 0
BBX 4 2 1 4
BITMAP
F0
F0
ENDCHAR
STARTCHAR 2044
ENCODING 8260
SWIDTH 0 0
DWIDTH 0 0
BBX 11 13 -5 0
BITMAP
0020
0040
0080
0100
0100
0200
0400
0800
1000
1000
2000
4000
8000
ENDCHAR
STARTCHAR 2070
ENCODING 8304
SWIDTH 444 0
DWIDTH 8 0
BBX 6 8 1 5
BITMAP
78
48
84
84
84
84
48
78
ENDCHAR
STARTCHAR 2074
ENCODING 8308
SWIDTH 444 0
DWIDTH 8 0
BBX 6 8 1 5
BITMAP
08
18
28
48
88
FC
08
08
ENDCHAR
STARTCHAR 2075
ENCODING 8309
SWIDTH 444 0
DWIDTH 8 0
BBX 5 8 2 5
BITMAP
F8
80
80
F0
18
08
08
F0
ENDCHAR
STARTCHAR 2076
ENCODING 8310
SWIDTH 444 0
DWIDTH 8 0
BBX 6 8 1 5
BITMAP
3C
40
80
F8
84
84
C4
78
ENDCHAR
STARTCHAR 2077
ENCODING 8311
SWIDTH 444 0
DWIDTH 8 0
BBX 5 8 1 5
BITMAP
F8
08
10
30
20
60
C0
C0
ENDCHAR
STARTCHAR 2078
ENCODING 8312
SWIDTH 444 0
DWIDTH 8 0
BBX 5 8 1 5
BITMAP
70
88
88
70
D0
88
88
70
ENDCHAR
STARTCHAR 2079
ENCODING 8313
SWIDTH 444 0
DWIDTH 8 0
BBX 6 8 1 5
BITMAP
78
8C
84
84
7C
04
08
F0
ENDCHAR
STARTCHAR 207A
ENCODING 8314
SWIDTH 444 0
DWIDTH 8 0
BBX 5 5 1 7
BITMAP
20
20
F8
20
20
ENDCHAR
STARTCHAR 207B
ENCODING 8315
SWIDTH 444 0
DWIDTH 8 0
BBX 6 1 1 9
BITMAP
FC
ENDCHAR
STARTCHAR 207C
ENCODING 8316
SWIDTH 444 0
DWIDTH 8 0
BBX 6 3 1 8
BITMAP
FC
00
FC
ENDCHAR
STARTCHAR 207D
ENCODING 8317
SWIDTH 222 0
DWIDTH 4 0
BBX 3 10 1 4
BITMAP
20
40
40
80
80
80
80
40
40
20
ENDCHAR
STARTCHAR 207E
ENCODING 8318
SWIDTH 222 0
DWIDTH 4 0
BBX 3 10 1 4
BITMAP
80
40
40
20
20
20
20
40
40
80
ENDCHAR
STARTCHAR 207F
ENCODING 8319
SWIDTH 388 0
DWIDTH 7 0
BBX 5 6 1 5
BITMAP
B8
C8
88
88
88
88
ENDCHAR
STARTCHAR 2080
ENCODING 8320
SWIDTH 444 0
DWIDTH 8 0
BBX 6 8 1 0
BITMAP
78
48
84
84
84
84
48
78
ENDCHAR
STARTCHAR 2081
ENCODING 8321
SWIDTH 444 0
DWIDTH 8 0
BBX 3 8 2 0
BITMAP
E0
20
20
20
20
20
20
20
ENDCHAR
STARTCHAR 2082
ENCODING 8322
SWIDTH 444 0
DWIDTH 8 0
BBX 5 8 1 0
BITMAP
F0
08
08
08
30
40
80
F8
ENDCHAR
STARTCHAR 2083
ENCODING 8323
SWIDTH 444 0
DWIDTH 8 0
BBX 5 8 1 0
BITMAP
F0
08
08
70
18
08
08
F0
ENDCHAR
STARTCHAR 2084
ENCODING 8324
SWIDTH 444 0
DWIDTH 8 0
BBX 6 8 1 0
BITMAP
08
18
28
48
88
FC
08
08
ENDCHAR
STARTCHAR 2085
ENCODING 8325
SWIDTH 444 0
DWIDTH 8 0
BBX 5 8 2 0
BITMAP
F8
80
80
F0
18
08
08
F0
ENDCHAR
STARTCHAR 2086
ENCODING 8326
SWIDTH 444 0
DWIDTH 8 0
BBX 6 8 1 0
BITMAP
3C
40
80
F8
84
84
C4
78
ENDCHAR
STARTCHAR 2087
ENCODING 8327
SWIDTH 444 0
DWIDTH 8 0
BBX 5 8 1 0
BITMAP
F8
08
10
30
20
60
C0
C0
ENDCHAR
STARTCHAR 2088
ENCODING 8328
SWIDTH 444 0
DWIDTH 8 0
BBX 5 8 1 0
BITMAP
70
88
88
70
D0
88
88
70
ENDCHAR
STARTCHAR 2089
ENCODING 8329
SWIDTH 444 0
DWIDTH 8 0
BBX 6 8 1 0
BITMAP
78
88
84
84
7C
04
08
F0
ENDCHAR
STARTCHAR 208A
ENCODING 8330
SWIDTH 444 0
DWIDTH 8 0
BBX 5 5 1 1
BITMAP
20
20
F8
20
20
ENDCHAR
STARTCHAR 208B
ENCODING 8331
SWIDTH 444 0
DWIDTH 8 0
BBX 6 1 1 3
BITMAP
FC
ENDCHAR
STARTCHAR 208C
ENCODING 8332
SWIDTH 444 0
DWIDTH 8 0
BBX 6 3 1 2
BITMAP
FC
00
FC
ENDCHAR
STARTCHAR 208D
ENCODING 8333
SWIDTH 222 0
DWIDTH 4 0
BBX 2 10 1 -2
BITMAP
40
40
80
80
80
80
80
80
40
40
ENDCHAR
STARTCHAR 208E
ENCODING 8334
SWIDTH 222 0
DWIDTH 4 0
BBX 2 10 1 -2
BITMAP
80
80
40
40
40
40
40
40
80
80
ENDCHAR
STARTCHAR 20A0
ENCODING 8352
SWIDTH 722 0
DWIDTH 13 0
BBX 10 13 1 0
BITMAP
3E00
6000
C000
C000
C7C0
C600
C600
6600
3FC0
0600
0600
0600
07C0
ENDCHAR
STARTCHAR 20A1
ENCODING 8353
SWIDTH 722 0
DWIDTH 13 0
BBX 13 15 0 -1
BITMAP
0048
07F0
1DB0
3120
3240
6240
6480
6D80
6900
7200
3200
3400
7C10
4FE0
9000
ENDCHAR
STARTCHAR 20A2
ENCODING 8354
SWIDTH 666 0
DWIDTH 12 0
BBX 10 13 1 0
BITMAP
1F80
3040
6000
4000
C6C0
C700
C600
C600
C600
6600
6600
3640
1F80
ENDCHAR
STARTCHAR 20A3
ENCODING 8355
SWIDTH 611 0
DWIDTH 11 0
BBX 9 13 1 0
BITMAP
3F80
3000
3000
3000
3000
3000
3F00
3000
3000
FC00
3000
3000
3000
ENDCHAR
STARTCHAR 20A4
ENCODING 8356
SWIDTH 611 0
DWIDTH 11 0
BBX 7 13 2 0
BITMAP
1E
10
30
30
30
F8
30
F8
30
30
30
60
FE
ENDCHAR
STARTCHAR 20A5
ENCODING 8357
SWIDTH 944 0
DWIDTH 17 0
BBX 14 15 2 -2
BITMAP
0020
0040
0040
DEF8
E28C
C30C
C30C
C30C
C70C
C70C
CB0C
CB0C
D30C
1000
2000
ENDCHAR
STARTCHAR 20A6
ENCODING 8358
SWIDTH 833 0
DWIDTH 15 0
BBX 14 13 0 0
BITMAP
3010
3810
3C10
2C10
2E10
FFFC
2310
FFFC
21D0
20D0
2070
2070
2030
ENDCHAR
STARTCHAR 20A7
ENCODING 8359
SWIDTH 1333 0
DWIDTH 24 0
BBX 21 13 2 0
BITMAP
FC0000
C73000
C33000
C37CF0
C33180
C33180
C63180
FC30E0
C03070
C03018
C03018
C03118
C01CF0
ENDCHAR
STARTCHAR 20A8
ENCODING 8360
SWIDTH 1000 0
DWIDTH 18 0
BBX 15 13 2 0
BITMAP
FE00
C700
C300
C33C
C360
C660
F870
CC38
CC1E
C606
C706
C346
C3BC
ENDCHAR
STARTCHAR 20A9
ENCODING 8361
SWIDTH 1055 0
DWIDTH 19 0
BBX 17 13 1 0
BITMAP
61C100
61C100
FFFF80
316200
316200
FFFF80
3A6400
1A3400
1A3400
1A3400
1A3400
0C1800
0C1800
ENDCHAR
STARTCHAR 20AA
ENCODING 8362
SWIDTH 1055 0
DWIDTH 19 0
BBX 16 13 2 0
BITMAP
FF83
C0E3
C063
C063
C663
C663
C663
C663
C663
C603
C603
C607
C7FC
ENDCHAR
STARTCHAR 20AC
ENCODING 8364
SWIDTH 611 0
DWIDTH 11 0
BBX 10 13 0 0
BITMAP
0F80
1840
3000
6000
6000
FF00
6000
FF00
6000
3000
3000
1840
0F80
ENDCHAR
STARTCHAR 2100
ENCODING 8448
SWIDTH 777 0
DWIDTH 14 0
BBX 13 13 0 0
BITMAP
3C18
4430
4C60
88C0
B880
E900
0200
0470
0880
1900
3100
6120
C1C0
ENDCHAR
STARTCHAR 2101
ENCODING 8449
SWIDTH 777 0
DWIDTH 14 0
BBX 13 13 0 0
BITMAP
3C18
4430
4C60
88C0
B880
E900
0200
0470
0880
18C0
3060
6020
C1C0
ENDCHAR
STARTCHAR 2102
ENCODING 8450
SWIDTH 722 0
DWIDTH 13 0
BBX 11 13 1 0
BITMAP
0FC0
3420
6800
5000
9000
9000
9000
9000
9000
5000
6800
3420
0FC0
ENDCHAR
STARTCHAR 2103
ENCODING 8451
SWIDTH 944 0
DWIDTH 17 0
BBX 15 13 1 0
BITMAP
60FC
9306
9600
6600
0C00
0C00
0C00
0C00
0C00
0600
0600
0382
00FC
ENDCHAR
STARTCHAR 2104
ENCODING 8452
SWIDTH 666 0
DWIDTH 12 0
BBX 10 13 1 0
BITMAP
0C00
3F00
6C00
CC00
CC00
CC00
CC00
CC00
6C00
3F00
0C00
0C00
0FC0
ENDCHAR
STARTCHAR 2105
ENCODING 8453
SWIDTH 777 0
DWIDTH 14 0
BBX 13 13 0 0
BITMAP
1C18
2030
4060
40C0
4880
7100
0200
0470
0888
1908
3108
6110
C0E0
ENDCHAR
STARTCHAR 2106
ENCODING 8454
SWIDTH 777 0
DWIDTH 14 0
BBX 13 13 0 0
BITMAP
1C18
2030
4060
40C0
4880
7100
0200
0488
0888
1910
3130
6150
C190
ENDCHAR
STARTCHAR 2107
ENCODING 8455
SWIDTH 611 0
DWIDTH 11 0
BBX 8 13 2 0
BITMAP
3E
71
60
60
30
1C
60
C0
C0
C0
C1
63
3E
ENDCHAR
STARTCHAR 2108
ENCODING 8456
SWIDTH 611 0
DWIDTH 11 0
BBX 9 13 1 0
BITMAP
7C00
8600
0300
0180
0180
0180
3F80
0180
0180
0300
0300
8600
7C00
ENDCHAR
STARTCHAR 2109
ENCODING 8457
SWIDTH 777 0
DWIDTH 14 0
BBX 12 13 1 0
BITMAP
67F0
9600
9600
6600
0600
0600
07E0
0600
0600
0600
0600
0600
0600
ENDCHAR
STARTCHAR 210A
ENCODING 8458
SWIDTH 777 0
DWIDTH 14 0
BBX 14 16 0 -6
BITMAP
0760
0D60
18E0
30C0
30C0
30C4
31C8
32C8
1DB0
03C0
1D80
6180
8300
8300
8600
7800
ENDCHAR
STARTCHAR 210B
ENCODING 8459
SWIDTH 1111 0
DWIDTH 20 0
BBX 19 14 0 0
BITMAP
0001C0
07C360
18C660
218460
218C60
1D8CC0
018D80
03FE00
011800
331800
631800
C21900
C41A00
780C00
ENDCHAR
STARTCHAR 210C
ENCODING 8460
SWIDTH 666 0
DWIDTH 12 0
BBX 11 16 0 -3
BITMAP
0780
1880
2000
2100
2380
25C0
38C0
1860
1020
1020
1020
2020
FC40
0040
0040
0380
ENDCHAR
STARTCHAR 210D
ENCODING 8461
SWIDTH 888 0
DWIDTH 16 0
BBX 12 13 2 0
BITMAP
E070
A050
A050
A050
A050
A050
BFD0
A050
A050
A050
A050
A050
E070
ENDCHAR
STARTCHAR 210E
ENCODING 8462
SWIDTH 722 0
DWIDTH 13 0
BBX 10 14 1 0
BITMAP
7800
3800
3000
3000
3380
3580
7980
7180
7180
6300
6300
E300
C340
C380
ENDCHAR
STARTCHAR 210F
ENCODING 8463
SWIDTH 722 0
DWIDTH 13 0
BBX 11 14 1 0
BITMAP
7800
3000
3300
3C00
F1C0
36C0
68C0
68C0
70C0
6180
6180
E180
C1A0
C1C0
ENDCHAR
STARTCHAR 2110
ENCODING 8464
SWIDTH 666 0
DWIDTH 12 0
BBX 12 16 -1 -3
BITMAP
0040
00C0
0380
0580
0990
1990
19A0
1BE0
0F80
0300
0300
0300
0600
8600
8C00
7000
ENDCHAR
STARTCHAR 2111
ENCODING 8465
SWIDTH 722 0
DWIDTH 13 0
BBX 10 13 1 0
BITMAP
18C0
6F80
C100
E300
3300
1380
2380
0180
0180
0180
4100
E200
3C00
ENDCHAR
STARTCHAR 2112
ENCODING 8466
SWIDTH 777 0
DWIDTH 14 0
BBX 13 13 0 0
BITMAP
0078
2198
2318
1330
0FC0
0300
0700
0700
0600
0600
7E08
8710
F9E0
ENDCHAR
STARTCHAR 2113
ENCODING 8467
SWIDTH 611 0
DWIDTH 11 0
BBX 11 14 0 0
BITMAP
01C0
0320
0620
0620
0C40
0C40
0C80
0F00
1C00
F800
1880
1900
1A00
1C00
ENDCHAR
STARTCHAR 2114
ENCODING 8468
SWIDTH 1000 0
DWIDTH 18 0
BBX 16 14 1 0
BITMAP
6180
6180
FFE0
6180
61BC
61C6
6183
6183
6183
6183
6183
6182
61C6
61BC
ENDCHAR
STARTCHAR 2115
ENCODING 8469
SWIDTH 833 0
DWIDTH 15 0
BBX 11 13 2 0
BITMAP
C020
E020
B020
8820
C420
A220
9120
88A0
8460
8220
8120
80A0
8060
ENDCHAR
STARTCHAR 2116
ENCODING 8470
SWIDTH 944 0
DWIDTH 17 0
BBX 15 13 2 0
BITMAP
C300
C300
E318
E334
F366
D366
DB66
CB34
CF18
C700
C73C
C300
C300
ENDCHAR
STARTCHAR 2117
ENCODING 8471
SWIDTH 833 0
DWIDTH 15 0
BBX 14 13 1 0
BITMAP
0FC0
1020
6018
4788
8444
8444
8784
8404
8404
4408
6018
1020
0FC0
ENDCHAR
STARTCHAR 2118
ENCODING 8472
SWIDTH 722 0
DWIDTH 13 0
BBX 12 14 0 -3
BITMAP
0800
30E0
6330
4430
4830
7030
2030
3020
5860
4B40
8B80
8800
9000
E000
ENDCHAR
STARTCHAR 2119
ENCODING 8473
SWIDTH 722 0
DWIDTH 13 0
BBX 10 13 2 0
BITMAP
FF00
A480
A240
A240
A240
A2C0
A580
BE00
A000
A000
A000
A000
E000
ENDCHAR
STARTCHAR 211A
ENCODING 8474
SWIDTH 888 0
DWIDTH 16 0
BBX 14 16 1 -3
BITMAP
0FC0
3CF0
6858
5028
9024
9024
9024
9024
9024
5028
6858
34B0
0FC0
0040
0038
000C
ENDCHAR
STARTCHAR 211B
ENCODING 8475
SWIDTH 944 0
DWIDTH 17 0
BBX 16 13 0 0
BITMAP
03F8
0DDC
118C
118C
0D88
0190
03E0
0320
3330
6310
C611
C41A
780C
ENDCHAR
STARTCHAR 211C
ENCODING 8476
SWIDTH 888 0
DWIDTH 16 0
BBX 15 13 1 0
BITMAP
1860
FDE0
8E60
C630
6660
2680
27C0
0460
0420
0430
0838
101E
3E18
ENDCHAR
STARTCHAR 211D
ENCODING 8477
SWIDTH 777 0
DWIDTH 14 0
BBX 11 13 2 1
BITMAP
FF00
A480
A240
A240
A240
A580
BE00
B100
A900
A480
A640
A240
E1E0
ENDCHAR
STARTCHAR 211E
ENCODING 8478
SWIDTH 611 0
DWIDTH 11 0
BBX 10 13 2 0
BITMAP
FE00
C700
C300
C300
C300
C600
FC00
CCC0
C780
C700
C700
CD80
D9C0
ENDCHAR
STARTCHAR 211F
ENCODING 8479
SWIDTH 611 0
DWIDTH 11 0
BBX 10 19 2 -2
BITMAP
0600
0300
00C0
FE80
C780
C300
C300
C300
C600
FC00
CC00
CE00
CF00
D300
D180
E1C0
2000
4000
4000
ENDCHAR
STARTCHAR 2120
ENCODING 8480
SWIDTH 833 0
DWIDTH 15 0
BBX 13 7 1 6
BITMAP
7318
8318
C318
62A8
12A8
12A8
E248
ENDCHAR
STARTCHAR 2121
ENCODING 8481
SWIDTH 1500 0
DWIDTH 27 0
BBX 23 10 2 0
BITMAP
FF7E60
186060
186060
186060
187C60
186060
186060
186060
186060
187E7E
ENDCHAR
STARTCHAR 2122
ENCODING 8482
SWIDTH 833 0
DWIDTH 15 0
BBX 14 7 0 6
BITMAP
F98C
218C
21CC
2154
2174
2174
2124
ENDCHAR
STARTCHAR 2123
ENCODING 8483
SWIDTH 666 0
DWIDTH 12 0
BBX 11 19 0 -2
BITMAP
0400
0200
0180
C1A0
6140
6240
6240
3480
3480
3880
1900
1900
1D00
2E00
2E00
4600
4000
8000
8000
ENDCHAR
STARTCHAR 2124
ENCODING 8484
SWIDTH 666 0
DWIDTH 12 0
BBX 10 13 1 0
BITMAP
FFC0
0240
0480
0480
0900
1900
1200
2600
2400
4800
4800
9000
FFC0
ENDCHAR
STARTCHAR 2125
ENCODING 8485
SWIDTH 500 0
DWIDTH 9 0
BBX 8 17 1 -3
BITMAP
FF
06
0C
30
40
FF
06
0C
18
30
7C
0E
03
03
03
06
FC
ENDCHAR
STARTCHAR 2126
ENCODING 8486
SWIDTH 888 0
DWIDTH 16 0
BBX 12 13 2 0
BITMAP
1F80
30C0
6060
C030
C030
C030
C030
C030
6060
6060
B0D0
9990
F9F0
ENDCHAR
STARTCHAR 2127
ENCODING 8487
SWIDTH 888 0
DWIDTH 16 0
BBX 12 13 2 0
BITMAP
F9F0
9990
B0D0
6060
6060
C030
C030
C030
C030
C030
6060
30C0
1F80
ENDCHAR
STARTCHAR 2128
ENCODING 8488
SWIDTH 555 0
DWIDTH 10 0
BBX 9 13 0 0
BITMAP
7180
4F00
8600
0C00
1000
3E00
4380
0180
0180
0180
0100
E200
3C00
ENDCHAR
STARTCHAR 2129
ENCODING 8489
SWIDTH 388 0
DWIDTH 7 0
BBX 4 10 1 0
BITMAP
E0
30
30
30
30
30
30
30
30
30
ENDCHAR
STARTCHAR 212A
ENCODING 8490
SWIDTH 666 0
DWIDTH 12 0
BBX 9 13 2 0
BITMAP
C100
C200
C400
C800
D000
E000
F000
D800
CC00
CC00
C600
C300
C180
ENDCHAR
STARTCHAR 212B
ENCODING 8491
SWIDTH 666 0
DWIDTH 12 0
BBX 12 16 0 0
BITMAP
0E00
0A00
0E00
0600
0700
0B00
0B00
1180
1180
1180
20C0
3FC0
40E0
4060
4060
8030
ENDCHAR
STARTCHAR 212C
ENCODING 8492
SWIDTH 777 0
DWIDTH 14 0
BBX 13 13 0 0
BITMAP
07E0
19B8
2198
2318
1B18
0320
03C0
0670
0618
0618
7C18
8E30
7BE0
ENDCHAR
STARTCHAR 212D
ENCODING 8493
SWIDTH 666 0
DWIDTH 12 0
BBX 11 13 0 0
BITMAP
0220
0FC0
3000
5800
C800
C600
C200
C200
C400
6000
7020
38C0
0F00
ENDCHAR
STARTCHAR 212E
ENCODING 8494
SWIDTH 833 0
DWIDTH 15 0
BBX 14 13 1 0
BITMAP
0FC0
1860
2010
4008
C008
C00C
FFFC
C000
C000
4000
6008
3030
0FC0
ENDCHAR
STARTCHAR 212F
ENCODING 8495
SWIDTH 500 0
DWIDTH 9 0
BBX 7 10 1 0
BITMAP
1C
26
66
46
CC
F0
C0
C4
C8
70
ENDCHAR
STARTCHAR 2130
ENCODING 8496
SWIDTH 555 0
DWIDTH 10 0
BBX 9 16 1 0
BITMAP
0800
1800
1000
1780
1880
3700
3000
3000
3800
1E00
7000
C000
C080
C100
E200
3C00
ENDCHAR
STARTCHAR 2131
ENCODING 8497
SWIDTH 833 0
DWIDTH 15 0
BBX 16 14 0 0
BITMAP
0001
07FE
1980
2180
2180
1B88
07F0
0300
0300
3300
6300
C600
C400
7800
ENDCHAR
STARTCHAR 2132
ENCODING 8498
SWIDTH 666 0
DWIDTH 12 0
BBX 8 13 2 0
BITMAP
01
01
01
01
01
01
FF
01
01
01
01
01
FF
ENDCHAR
STARTCHAR 2133
ENCODING 8499
SWIDTH 1055 0
DWIDTH 19 0
BBX 18 13 1 1
BITMAP
38E380
DB6D80
9C7180
186180
186380
30C300
30C300
30C300
30C300
30C600
618640
618680
618700
ENDCHAR
STARTCHAR 2134
ENCODING 8500
SWIDTH 555 0
DWIDTH 10 0
BBX 8 10 1 0
BITMAP
1E
32
63
63
C3
C3
C6
C6
4C
78
ENDCHAR
STARTCHAR 2135
ENCODING 8501
SWIDTH 666 0
DWIDTH 12 0
BBX 10 10 0 1
BITMAP
03C0
63C0
3080
3880
5D00
4600
4300
4180
70C0
F080
ENDCHAR
STARTCHAR 2136
ENCODING 8502
SWIDTH 666 0
DWIDTH 12 0
BBX 9 11 2 0
BITMAP
4000
FE00
0300
0100
0100
0100
0100
0100
0100
0100
FF80
ENDCHAR
STARTCHAR 2137
ENCODING 8503
SWIDTH 444 0
DWIDTH 8 0
BBX 7 11 1 0
BITMAP
40
60
78
08
08
08
04
0C
14
24
E2
ENDCHAR
STARTCHAR 2138
ENCODING 8504
SWIDTH 611 0
DWIDTH 11 0
BBX 9 11 1 0
BITMAP
8000
FF80
0200
0200
0200
0200
0200
0200
0200
0200
0200
ENDCHAR
STARTCHAR 215B
ENCODING 8539
SWIDTH 777 0
DWIDTH 14 0
BBX 11 13 1 0
BITMAP
E020
2040
2080
2100
2100
23C0
2620
2A20
11C0
1340
2220
4220
81C0
ENDCHAR
STARTCHAR 215C
ENCODING 8540
SWIDTH 777 0
DWIDTH 14 0
BBX 13 13 0 0
BITMAP
F008
0810
0820
7040
1840
08F0
0988
F288
0470
04D0
0888
1088
2070
ENDCHAR
STARTCHAR 215D
ENCODING 8541
SWIDTH 777 0
DWIDTH 14 0
BBX 12 13 1 0
BITMAP
F810
8020
8040
F080
1880
09E0
0B10
F510
08E0
09A0
1110
2110
40E0
ENDCHAR
STARTCHAR 215E
ENCODING 8542
SWIDTH 777 0
DWIDTH 14 0
BBX 12 13 1 0
BITMAP
F820
0840
1080
3100
2100
62E0
C510
C910
10E0
11A0
2110
4110
80E0
ENDCHAR
STARTCHAR 2190
ENCODING 8592
SWIDTH 944 0
DWIDTH 17 0
BBX 13 5 2 3
BITMAP
1000
2000
FFF8
2000
1000
ENDCHAR
STARTCHAR 2191
ENCODING 8593
SWIDTH 555 0
DWIDTH 10 0
BBX 5 13 2 0
BITMAP
20
20
70
A8
20
20
20
20
20
20
20
20
20
ENDCHAR
STARTCHAR 2192
ENCODING 8594
SWIDTH 944 0
DWIDTH 17 0
BBX 13 5 2 3
BITMAP
0040
0020
FFF8
0020
0040
ENDCHAR
STARTCHAR 2193
ENCODING 8595
SWIDTH 555 0
DWIDTH 10 0
BBX 5 13 2 0
BITMAP
20
20
20
20
20
20
20
20
20
A8
70
20
20
ENDCHAR
STARTCHAR 2194
ENCODING 8596
SWIDTH 1222 0
DWIDTH 22 0
BBX 18 5 2 3
BITMAP
100200
200100
FFFFC0
200100
100200
ENDCHAR
STARTCHAR 2195
ENCODING 8597
SWIDTH 555 0
DWIDTH 10 0
BBX 5 18 2 -4
BITMAP
20
20
70
A8
20
20
20
20
20
20
20
20
20
20
A8
70
20
20
ENDCHAR
STARTCHAR 2196
ENCODING 8598
SWIDTH 722 0
DWIDTH 13 0
BBX 10 10 2 1
BITMAP
8000
7000
6000
5000
0800
0400
0200
0100
0080
0040
ENDCHAR
STARTCHAR 2197
ENCODING 8599
SWIDTH 722 0
DWIDTH 13 0
BBX 10 10 1 1
BITMAP
0040
0380
0180
0280
0400
0800
1000
2000
4000
8000
ENDCHAR
STARTCHAR 2198
ENCODING 8600
SWIDTH 722 0
DWIDTH 13 0
BBX 10 10 2 2
BITMAP
8000
4000
2000
1000
0800
0400
0280
0180
0780
00C0
ENDCHAR
STARTCHAR 2199
ENCODING 8601
SWIDTH 722 0
DWIDTH 13 0
BBX 10 10 2 2
BITMAP
0040
0080
0100
0200
0400
0800
5000
6000
7000
8000
ENDCHAR
STARTCHAR 219A
ENCODING 8602
SWIDTH 944 0
DWIDTH 17 0
BBX 13 6 2 2
BITMAP
0080
1080
2080
FFF8
2100
1100
ENDCHAR
STARTCHAR 219B
ENCODING 8603
SWIDTH 944 0
DWIDTH 17 0
BBX 13 6 2 3
BITMAP
0440
0420
FFF8
0820
0840
0800
ENDCHAR
STARTCHAR 219C
ENCODING 8604
SWIDTH 777 0
DWIDTH 14 0
BBX 10 5 2 3
BITMAP
8000
F300
C480
A440
1800
ENDCHAR
STARTCHAR 219D
ENCODING 8605
SWIDTH 777 0
DWIDTH 14 0
BBX 10 5 2 3
BITMAP
0040
33C0
48C0
8940
0600
ENDCHAR
STARTCHAR 219E
ENCODING 8606
SWIDTH 944 0
DWIDTH 17 0
BBX 13 5 2 3
BITMAP
1200
2400
FFF8
2400
1200
ENDCHAR
STARTCHAR 219F
ENCODING 8607
SWIDTH 555 0
DWIDTH 10 0
BBX 5 13 2 0
BITMAP
20
20
70
A8
20
70
A8
20
20
20
20
20
20
ENDCHAR
STARTCHAR 21A0
ENCODING 8608
SWIDTH 944 0
DWIDTH 17 0
BBX 13 5 2 3
BITMAP
0240
0120
FFF8
0120
0240
ENDCHAR
STARTCHAR 21A1
ENCODING 8609
SWIDTH 555 0
DWIDTH 10 0
BBX 5 13 2 0
BITMAP
20
20
20
20
20
20
A8
70
20
A8
70
20
20
ENDCHAR
STARTCHAR 21A2
ENCODING 8610
SWIDTH 944 0
DWIDTH 17 0
BBX 13 5 2 3
BITMAP
1008
2010
FFE0
2010
1008
ENDCHAR
STARTCHAR 21A3
ENCODING 8611
SWIDTH 944 0
DWIDTH 17 0
BBX 13 5 2 3
BITMAP
8040
4020
3FF8
4020
8040
ENDCHAR
STARTCHAR 21A4
ENCODING 8612
SWIDTH 944 0
DWIDTH 17 0
BBX 13 5 2 3
BITMAP
1008
2008
FFF8
2008
1008
ENDCHAR
STARTCHAR 21A5
ENCODING 8613
SWIDTH 555 0
DWIDTH 10 0
BBX 5 13 2 0
BITMAP
20
20
70
A8
20
20
20
20
20
20
20
20
F8
ENDCHAR
STARTCHAR 21A6
ENCODING 8614
SWIDTH 944 0
DWIDTH 17 0
BBX 13 5 2 3
BITMAP
8040
8020
FFF8
8020
8040
ENDCHAR
STARTCHAR 21A7
ENCODING 8615
SWIDTH 555 0
DWIDTH 10 0
BBX 5 13 2 0
BITMAP
F8
20
20
20
20
20
20
20
20
A8
70
20
20
ENDCHAR
STARTCHAR 21A8
ENCODING 8616
SWIDTH 555 0
DWIDTH 10 0
BBX 7 13 1 0
BITMAP
10
10
38
54
10
10
10
54
38
10
10
00
FE
ENDCHAR
STARTCHAR 21A9
ENCODING 8617
SWIDTH 944 0
DWIDTH 17 0
BBX 13 5 2 3
BITMAP
1010
2008
FFF8
2000
1000
ENDCHAR
STARTCHAR 21AA
ENCODING 8618
SWIDTH 944 0
DWIDTH 17 0
BBX 13 5 2 3
BITMAP
4040
8020
FFF8
0020
0040
ENDCHAR
STARTCHAR 21AB
ENCODING 8619
SWIDTH 944 0
DWIDTH 17 0
BBX 13 5 2 3
BITMAP
1070
2048
FFF8
2040
1040
ENDCHAR
STARTCHAR 21AC
ENCODING 8620
SWIDTH 944 0
DWIDTH 17 0
BBX 13 5 2 3
BITMAP
7040
9020
7FF8
1020
1040
ENDCHAR
STARTCHAR 21AD
ENCODING 8621
SWIDTH 1222 0
DWIDTH 22 0
BBX 18 5 2 3
BITMAP
100200
20C100
F9E7C0
273900
121200
ENDCHAR
STARTCHAR 21AE
ENCODING 8622
SWIDTH 1222 0
DWIDTH 22 0
BBX 18 7 2 2
BITMAP
004000
104200
204100
FFFFC0
208100
108200
008000
ENDCHAR
STARTCHAR 21AF
ENCODING 8623
SWIDTH 666 0
DWIDTH 12 0
BBX 8 13 2 0
BITMAP
02
04
08
10
20
7F
02
04
08
90
60
E0
C0
ENDCHAR
STARTCHAR 21B0
ENCODING 8624
SWIDTH 666 0
DWIDTH 12 0
BBX 8 13 2 0
BITMAP
10
20
FF
21
11
01
01
01
01
01
01
01
01
ENDCHAR
STARTCHAR 21B1
ENCODING 8625
SWIDTH 666 0
DWIDTH 12 0
BBX 8 13 3 0
BITMAP
08
04
FF
84
88
80
80
80
80
80
80
80
80
ENDCHAR
STARTCHAR 21B2
ENCODING 8626
SWIDTH 666 0
DWIDTH 12 0
BBX 8 13 2 0
BITMAP
01
01
01
01
01
01
01
01
11
21
FF
20
10
ENDCHAR
STARTCHAR 21B3
ENCODING 8627
SWIDTH 666 0
DWIDTH 12 0
BBX 8 13 3 0
BITMAP
80
80
80
80
80
80
80
80
88
84
FF
04
08
ENDCHAR
STARTCHAR 21B4
ENCODING 8628
SWIDTH 666 0
DWIDTH 12 0
BBX 8 13 2 0
BITMAP
FC
04
04
04
04
04
04
04
04
15
0E
04
04
ENDCHAR
STARTCHAR 21B5
ENCODING 8629
SWIDTH 944 0
DWIDTH 17 0
BBX 13 13 2 0
BITMAP
0008
0008
0008
0008
0008
0008
0008
0008
1008
2008
FFF8
2000
1000
ENDCHAR
STARTCHAR 21B6
ENCODING 8630
SWIDTH 1000 0
DWIDTH 18 0
BBX 14 7 2 3
BITMAP
07C0
1820
2010
C008
F00C
6004
4004
ENDCHAR
STARTCHAR 21B7
ENCODING 8631
SWIDTH 1000 0
DWIDTH 18 0
BBX 14 7 2 3
BITMAP
0F80
1060
2010
400C
C03C
8018
8008
ENDCHAR
STARTCHAR 21B8
ENCODING 8632
SWIDTH 944 0
DWIDTH 17 0
BBX 13 13 2 0
BITMAP
FFF8
0000
0000
2000
1C00
1800
1400
0200
0100
0080
0040
0020
0010
ENDCHAR
STARTCHAR 21B9
ENCODING 8633
SWIDTH 944 0
DWIDTH 17 0
BBX 13 11 2 0
BITMAP
0400
8800
BFF8
8800
8400
0000
0108
0088
FFE8
0088
0108
ENDCHAR
STARTCHAR 21BA
ENCODING 8634
SWIDTH 944 0
DWIDTH 17 0
BBX 13 13 2 0
BITMAP
0060
0070
2030
4010
8008
8008
8008
8008
8008
4010
6030
3060
0F80
ENDCHAR
STARTCHAR 21BB
ENCODING 8635
SWIDTH 944 0
DWIDTH 17 0
BBX 13 13 2 0
BITMAP
3000
7000
6020
4010
8008
8008
8008
8008
8008
4010
6030
3060
0F80
ENDCHAR
STARTCHAR 21BC
ENCODING 8636
SWIDTH 944 0
DWIDTH 17 0
BBX 12 3 3 5
BITMAP
1000
6000
FFF0
ENDCHAR
STARTCHAR 21BD
ENCODING 8637
SWIDTH 944 0
DWIDTH 17 0
BBX 12 3 3 3
BITMAP
FFF0
2000
1000
ENDCHAR
STARTCHAR 21BE
ENCODING 8638
SWIDTH 444 0
DWIDTH 8 0
BBX 3 12 3 1
BITMAP
80
80
C0
A0
80
80
80
80
80
80
80
80
ENDCHAR
STARTCHAR 21BF
ENCODING 8639
SWIDTH 444 0
DWIDTH 8 0
BBX 3 12 2 1
BITMAP
20
60
60
A0
20
20
20
20
20
20
20
20
ENDCHAR
STARTCHAR 21C0
ENCODING 8640
SWIDTH 944 0
DWIDTH 17 0
BBX 12 3 2 5
BITMAP
0080
0040
FFF0
ENDCHAR
STARTCHAR 21C1
ENCODING 8641
SWIDTH 944 0
DWIDTH 17 0
BBX 12 3 2 3
BITMAP
FFF0
0060
0080
ENDCHAR
STARTCHAR 21C2
ENCODING 8642
SWIDTH 444 0
DWIDTH 8 0
BBX 3 12 3 0
BITMAP
80
80
80
80
80
80
80
80
A0
C0
C0
80
ENDCHAR
STARTCHAR 21C3
ENCODING 8643
SWIDTH 444 0
DWIDTH 8 0
BBX 3 12 2 0
BITMAP
20
20
20
20
20
20
20
20
A0
60
20
20
ENDCHAR
STARTCHAR 21C4
ENCODING 8644
SWIDTH 944 0
DWIDTH 17 0
BBX 13 10 2 0
BITMAP
0040
0020
FFF8
0020
0040
1000
2000
FFF8
2000
1000
ENDCHAR
STARTCHAR 21C5
ENCODING 8645
SWIDTH 777 0
DWIDTH 14 0
BBX 9 13 2 0
BITMAP
2200
2200
7200
AA00
2200
2200
2200
2200
2200
2A80
2700
2200
2200
ENDCHAR
STARTCHAR 21C6
ENCODING 8646
SWIDTH 944 0
DWIDTH 17 0
BBX 13 10 2 0
BITMAP
1000
2000
FFF8
2000
1000
0040
0020
FFF8
0020
0040
ENDCHAR
STARTCHAR 21C7
ENCODING 8647
SWIDTH 944 0
DWIDTH 17 0
BBX 13 10 2 0
BITMAP
1000
2000
FFF8
2000
1000
1000
2000
FFF8
2000
1000
ENDCHAR
STARTCHAR 21C8
ENCODING 8648
SWIDTH 777 0
DWIDTH 14 0
BBX 9 13 2 0
BITMAP
2200
2200
7700
AA80
2200
2200
2200
2200
2200
2200
2200
2200
2200
ENDCHAR
STARTCHAR 21C9
ENCODING 8649
SWIDTH 944 0
DWIDTH 17 0
BBX 13 10 2 0
BITMAP
0040
0020
FFF8
0020
0040
0040
0020
FFF8
0020
0040
ENDCHAR
STARTCHAR 21CA
ENCODING 8650
SWIDTH 777 0
DWIDTH 14 0
BBX 9 13 2 0
BITMAP
2200
2200
2200
2200
2200
2200
2200
2200
2200
AA80
7700
2200
2200
ENDCHAR
STARTCHAR 21CB
ENCODING 8651
SWIDTH 944 0
DWIDTH 17 0
BBX 13 9 2 1
BITMAP
0800
3000
7FF8
0000
0000
0000
FFF0
0060
0080
ENDCHAR
STARTCHAR 21CC
ENCODING 8652
SWIDTH 944 0
DWIDTH 17 0
BBX 13 10 2 0
BITMAP
0080
0040
FFF0
0000
0000
0000
0000
7FF8
1000
0800
ENDCHAR
STARTCHAR 21CD
ENCODING 8653
SWIDTH 944 0
DWIDTH 17 0
BBX 12 10 3 0
BITMAP
0040
0840
3040
7FF0
8080
8100
7FF0
3100
0A00
0200
ENDCHAR
STARTCHAR 21CE
ENCODING 8654
SWIDTH 1222 0
DWIDTH 22 0
BBX 16 10 3 0
BITMAP
0040
0850
308C
7FFE
8081
8101
7FFE
310C
0A10
0200
ENDCHAR
STARTCHAR 21CF
ENCODING 8655
SWIDTH 944 0
DWIDTH 17 0
BBX 12 10 2 0
BITMAP
0400
0900
08C0
FFE0
1010
1010
FFE0
20C0
2100
2000
ENDCHAR
STARTCHAR 21D0
ENCODING 8656
SWIDTH 944 0
DWIDTH 17 0
BBX 12 8 3 1
BITMAP
0800
3000
7FF0
8000
8000
7FF0
3000
0800
ENDCHAR
STARTCHAR 21D1
ENCODING 8657
SWIDTH 777 0
DWIDTH 14 0
BBX 8 12 3 1
BITMAP
18
24
66
66
A5
24
24
24
24
24
24
24
ENDCHAR
STARTCHAR 21D2
ENCODING 8658
SWIDTH 944 0
DWIDTH 17 0
BBX 12 8 2 1
BITMAP
0100
00C0
FFE0
0010
0010
FFE0
00C0
0100
ENDCHAR
STARTCHAR 21D3
ENCODING 8659
SWIDTH 777 0
DWIDTH 14 0
BBX 8 12 3 0
BITMAP
24
24
24
24
24
24
24
A5
66
66
24
18
ENDCHAR
STARTCHAR 21D4
ENCODING 8660
SWIDTH 1222 0
DWIDTH 22 0
BBX 16 8 3 1
BITMAP
0810
300C
7FFE
8001
8001
7FFE
300C
0810
ENDCHAR
STARTCHAR 21D5
ENCODING 8661
SWIDTH 777 0
DWIDTH 14 0
BBX 8 16 3 -3
BITMAP
18
24
66
66
A5
24
24
24
24
24
24
A5
66
66
24
18
ENDCHAR
STARTCHAR 21D6
ENCODING 8662
SWIDTH 833 0
DWIDTH 15 0
BBX 11 11 2 0
BITMAP
F000
9E00
8C00
4600
6300
7180
58C0
0C60
0600
0300
0100
ENDCHAR
STARTCHAR 21D7
ENCODING 8663
SWIDTH 833 0
DWIDTH 15 0
BBX 11 11 2 0
BITMAP
01E0
0F20
0620
0C60
18C0
31C0
6340
C600
0C00
1800
1000
ENDCHAR
STARTCHAR 21D8
ENCODING 8664
SWIDTH 833 0
DWIDTH 15 0
BBX 11 11 2 0
BITMAP
1000
1800
0C00
C600
6340
31C0
18C0
0C40
0620
0F20
01E0
ENDCHAR
STARTCHAR 21D9
ENCODING 8665
SWIDTH 833 0
DWIDTH 15 0
BBX 11 11 2 0
BITMAP
0100
0300
0600
0C60
58C0
7180
6300
C600
8C00
9E00
F000
ENDCHAR
STARTCHAR 21DA
ENCODING 8666
SWIDTH 944 0
DWIDTH 17 0
BBX 13 11 2 0
BITMAP
0400
0C00
17F8
2000
4000
FFF8
4000
2000
17F8
0C00
0400
ENDCHAR
STARTCHAR 21DB
ENCODING 8667
SWIDTH 944 0
DWIDTH 17 0
BBX 13 11 2 0
BITMAP
0100
0180
FF40
0020
0010
FFF8
0010
0020
FF40
0180
0100
ENDCHAR
STARTCHAR 21DC
ENCODING 8668
SWIDTH 1222 0
DWIDTH 22 0
BBX 18 5 2 3
BITMAP
100000
20C600
F8C5C0
252800
121000
ENDCHAR
STARTCHAR 21DD
ENCODING 8669
SWIDTH 1222 0
DWIDTH 22 0
BBX 18 5 2 3
BITMAP
000200
18C100
E947C0
052900
021200
ENDCHAR
STARTCHAR 21DE
ENCODING 8670
SWIDTH 555 0
DWIDTH 10 0
BBX 5 13 2 0
BITMAP
20
20
70
A8
20
20
20
F8
20
20
F8
20
20
ENDCHAR
STARTCHAR 21DF
ENCODING 8671
SWIDTH 555 0
DWIDTH 10 0
BBX 5 13 2 0
BITMAP
20
20
F8
20
20
F8
20
20
20
A8
70
20
20
ENDCHAR
STARTCHAR 21E0
ENCODING 8672
SWIDTH 944 0
DWIDTH 17 0
BBX 13 5 2 3
BITMAP
1000
2000
F6A8
2000
1000
ENDCHAR
STARTCHAR 21E1
ENCODING 8673
SWIDTH 555 0
DWIDTH 10 0
BBX 5 13 2 0
BITMAP
20
20
70
A8
00
20
20
00
20
00
20
00
20
ENDCHAR
STARTCHAR 21E2
ENCODING 8674
SWIDTH 944 0
DWIDTH 17 0
BBX 13 5 2 3
BITMAP
0040
0020
AB78
0020
0040
ENDCHAR
STARTCHAR 21E3
ENCODING 8675
SWIDTH 555 0
DWIDTH 10 0
BBX 5 13 2 0
BITMAP
20
00
20
00
20
00
20
20
00
A8
70
20
20
ENDCHAR
STARTCHAR 21E4
ENCODING 8676
SWIDTH 944 0
DWIDTH 17 0
BBX 13 5 2 3
BITMAP
8400
8800
BFF8
8800
8400
ENDCHAR
STARTCHAR 21E5
ENCODING 8677
SWIDTH 944 0
DWIDTH 17 0
BBX 13 5 2 3
BITMAP
0108
0088
FFE8
0088
0108
ENDCHAR
STARTCHAR 21E6
ENCODING 8678
SWIDTH 944 0
DWIDTH 17 0
BBX 12 8 3 2
BITMAP
1000
3000
5FF0
8010
8010
5FF0
3000
1000
ENDCHAR
STARTCHAR 21E7
ENCODING 8679
SWIDTH 777 0
DWIDTH 14 0
BBX 8 12 3 1
BITMAP
18
24
42
E7
24
24
24
24
24
24
24
3C
ENDCHAR
STARTCHAR 21E8
ENCODING 8680
SWIDTH 944 0
DWIDTH 17 0
BBX 12 8 2 2
BITMAP
0080
00C0
FFA0
8010
8010
FFA0
00C0
0080
ENDCHAR
STARTCHAR 21E9
ENCODING 8681
SWIDTH 777 0
DWIDTH 14 0
BBX 8 12 3 0
BITMAP
3C
24
24
24
24
24
24
24
E7
42
24
18
ENDCHAR
STARTCHAR 21EA
ENCODING 8682
SWIDTH 777 0
DWIDTH 14 0
BBX 8 16 3 -3
BITMAP
18
24
42
E7
24
24
24
24
24
24
3C
00
3C
24
24
3C
ENDCHAR
STARTCHAR 2200
ENCODING 8704
SWIDTH 888 0
DWIDTH 16 0
BBX 12 13 2 0
BITMAP
8010
4020
4020
4020
3FC0
2040
1080
1080
1880
0900
0900
0600
0600
ENDCHAR
STARTCHAR 2201
ENCODING 8705
SWIDTH 722 0
DWIDTH 13 0
BBX 9 19 2 -3
BITMAP
3E00
6300
4100
8080
8080
8000
8000
8000
8000
8000
8000
8000
8000
8000
8080
8080
4100
6300
3E00
ENDCHAR
STARTCHAR 2202
ENCODING 8706
SWIDTH 666 0
DWIDTH 12 0
BBX 8 14 2 0
BITMAP
38
C6
02
01
01
1D
33
61
41
C1
C2
C2
E4
78
ENDCHAR
STARTCHAR 2203
ENCODING 8707
SWIDTH 666 0
DWIDTH 12 0
BBX 8 13 2 0
BITMAP
FF
01
01
01
01
01
FF
01
01
01
01
01
FF
ENDCHAR
STARTCHAR 2204
ENCODING 8708
SWIDTH 666 0
DWIDTH 12 0
BBX 8 16 2 -2
BITMAP
02
04
FF
05
09
09
09
09
FF
11
11
21
21
21
FF
40
ENDCHAR
STARTCHAR 2205
ENCODING 8709
SWIDTH 1000 0
DWIDTH 18 0
BBX 14 14 2 0
BITMAP
0FC4
1868
2010
4028
C04C
8084
8104
8204
8404
C80C
5008
2010
5860
8FC0
ENDCHAR
STARTCHAR 2206
ENCODING 8710
SWIDTH 888 0
DWIDTH 16 0
BBX 12 13 2 0
BITMAP
0200
0600
0700
0B00
1380
1180
1180
20C0
20C0
4060
4060
8070
FFF0
ENDCHAR
STARTCHAR 2207
ENCODING 8711
SWIDTH 888 0
DWIDTH 16 0
BBX 12 13 2 -1
BITMAP
FFF0
C010
4020
6020
2040
3040
3080
1880
1900
0D00
0E00
0600
0400
ENDCHAR
STARTCHAR 2208
ENCODING 8712
SWIDTH 777 0
DWIDTH 14 0
BBX 10 10 2 0
BITMAP
1FC0
6000
4000
8000
8000
FFC0
8000
4000
6000
1FC0
ENDCHAR
STARTCHAR 2209
ENCODING 8713
SWIDTH 777 0
DWIDTH 14 0
BBX 11 14 2 -2
BITMAP
0040
0080
1FC0
2080
4100
8100
8100
FFC0
8200
4200
2400
1FE0
0800
0800
ENDCHAR
STARTCHAR 220A
ENCODING 8714
SWIDTH 666 0
DWIDTH 12 0
BBX 8 10 2 0
BITMAP
1F
30
60
40
FE
C0
C0
C0
60
3E
ENDCHAR
STARTCHAR 220B
ENCODING 8715
SWIDTH 777 0
DWIDTH 14 0
BBX 10 10 2 0
BITMAP
FE00
0180
0080
0040
0040
FFC0
0040
0080
0180
FE00
ENDCHAR
STARTCHAR 220C
ENCODING 8716
SWIDTH 833 0
DWIDTH 15 0
BBX 10 14 2 -2
BITMAP
0200
0400
FF00
0580
0880
0840
0840
FFC0
1040
1080
2180
FE00
4000
4000
ENDCHAR
STARTCHAR 220D
ENCODING 8717
SWIDTH 666 0
DWIDTH 12 0
BBX 8 10 2 0
BITMAP
7C
06
03
03
03
7F
02
06
0C
F8
ENDCHAR
STARTCHAR 220E
ENCODING 8718
SWIDTH 777 0
DWIDTH 14 0
BBX 10 10 2 0
BITMAP
FFC0
FFC0
FFC0
FFC0
FFC0
FFC0
FFC0
FFC0
FFC0
FFC0
ENDCHAR
STARTCHAR 220F
ENCODING 8719
SWIDTH 944 0
DWIDTH 17 0
BBX 13 13 2 0
BITMAP
FFF8
3060
3060
3060
3060
3060
3060
3060
3060
3060
3060
3060
FDF8
ENDCHAR
STARTCHAR 2210
ENCODING 8720
SWIDTH 944 0
DWIDTH 17 0
BBX 13 13 2 0
BITMAP
FDF8
3060
3060
3060
3060
3060
3060
3060
3060
3060
3060
3060
FFF8
ENDCHAR
STARTCHAR 2211
ENCODING 8721
SWIDTH 833 0
DWIDTH 15 0
BBX 11 13 2 0
BITMAP
FFE0
6020
3020
1800
0C00
0600
0300
0400
0800
1000
2020
4020
FFE0
ENDCHAR
STARTCHAR 2212
ENCODING 8722
SWIDTH 777 0
DWIDTH 14 0
BBX 10 1 2 5
BITMAP
FFC0
ENDCHAR
STARTCHAR 2213
ENCODING 8723
SWIDTH 777 0
DWIDTH 14 0
BBX 11 10 2 0
BITMAP
FFE0
0000
0000
0400
0400
0400
FFE0
0400
0400
0400
ENDCHAR
STARTCHAR 2214
ENCODING 8724
SWIDTH 777 0
DWIDTH 14 0
BBX 11 12 2 0
BITMAP
0600
0600
0000
0000
0400
0400
0400
0400
FFE0
0400
0400
0400
ENDCHAR
STARTCHAR 2215
ENCODING 8725
SWIDTH 500 0
DWIDTH 9 0
BBX 6 16 2 -3
BITMAP
04
04
08
08
08
10
10
10
20
20
20
40
40
40
80
80
ENDCHAR
STARTCHAR 2216
ENCODING 8726
SWIDTH 500 0
DWIDTH 9 0
BBX 6 16 2 -3
BITMAP
80
80
40
40
40
20
20
20
10
10
10
08
08
08
04
04
ENDCHAR
STARTCHAR 2217
ENCODING 8727
SWIDTH 777 0
DWIDTH 14 0
BBX 9 10 3 0
BITMAP
0800
0800
8880
6B00
1C00
1C00
6B00
8880
0800
0800
ENDCHAR
STARTCHAR 2218
ENCODING 8728
SWIDTH 555 0
DWIDTH 10 0
BBX 6 6 2 2
BITMAP
78
CC
84
84
CC
78
ENDCHAR
STARTCHAR 2219
ENCODING 8729
SWIDTH 555 0
DWIDTH 10 0
BBX 6 6 2 2
BITMAP
78
FC
FC
FC
FC
78
ENDCHAR
STARTCHAR 221A
ENCODING 8730
SWIDTH 833 0
DWIDTH 15 0
BBX 13 18 2 -2
BITMAP
0008
0010
0010
0010
0020
0020
0040
0040
0040
0080
6080
A100
2100
1100
1200
0A00
0A00
0400
ENDCHAR
STARTCHAR 221B
ENCODING 8731
SWIDTH 833 0
DWIDTH 15 0
BBX 13 18 2 -2
BITMAP
1E08
0110
0110
0E10
0320
0120
0140
1E40
0040
0080
6080
A100
2100
1100
1200
0A00
0A00
0400
ENDCHAR
STARTCHAR 221C
ENCODING 8732
SWIDTH 833 0
DWIDTH 15 0
BBX 13 18 2 -2
BITMAP
0208
0610
0A10
1210
3220
3F20
0240
0240
0040
0080
6080
A100
2100
1100
1200
0A00
0A00
0400
ENDCHAR
STARTCHAR 221D
ENCODING 8733
SWIDTH 944 0
DWIDTH 17 0
BBX 13 7 2 2
BITMAP
3878
4D80
8700
8200
8300
C580
78F8
ENDCHAR
STARTCHAR 221E
ENCODING 8734
SWIDTH 944 0
DWIDTH 17 0
BBX 13 7 2 2
BITMAP
3860
4C90
8708
8208
8708
4990
30E0
ENDCHAR
STARTCHAR 221F
ENCODING 8735
SWIDTH 777 0
DWIDTH 14 0
BBX 10 10 2 0
BITMAP
8000
8000
8000
8000
8000
8000
8000
8000
8000
FFC0
ENDCHAR
STARTCHAR 2220
ENCODING 8736
SWIDTH 777 0
DWIDTH 14 0
BBX 10 10 2 0
BITMAP
0040
0080
0100
0200
0400
0800
1000
3000
6000
FFC0
ENDCHAR
STARTCHAR 2221
ENCODING 8737
SWIDTH 777 0
DWIDTH 14 0
BBX 10 13 2 -3
BITMAP
0040
00C0
0180
1300
0E00
0C00
1A00
3300
6100
FFC0
0100
0100
0100
ENDCHAR
STARTCHAR 2222
ENCODING 8738
SWIDTH 777 0
DWIDTH 14 0
BBX 10 11 2 0
BITMAP
0400
0240
0380
0700
3900
C100
3100
0F00
0380
0240
0400
ENDCHAR
STARTCHAR 2223
ENCODING 8739
SWIDTH 388 0
DWIDTH 7 0
BBX 1 17 3 -3
BITMAP
80
80
80
80
80
80
80
80
80
80
80
80
80
80
80
80
80
ENDCHAR
STARTCHAR 2224
ENCODING 8740
SWIDTH 500 0
DWIDTH 9 0
BBX 5 17 2 -3
BITMAP
20
20
20
20
20
20
28
30
20
60
A0
20
20
20
20
20
20
ENDCHAR
STARTCHAR 2225
ENCODING 8741
SWIDTH 555 0
DWIDTH 10 0
BBX 5 17 3 -3
BITMAP
88
88
88
88
88
88
88
88
88
88
88
88
88
88
88
88
88
ENDCHAR
STARTCHAR 2226
ENCODING 8742
SWIDTH 722 0
DWIDTH 13 0
BBX 9 17 2 -3
BITMAP
2200
2200
2200
2200
2280
2300
2200
2600
2A00
3200
2200
6200
A200
2200
2200
2200
2200
ENDCHAR
STARTCHAR 2227
ENCODING 8743
SWIDTH 777 0
DWIDTH 14 0
BBX 11 10 2 0
BITMAP
0400
0400
0A00
0A00
1100
3180
2080
4040
4040
8020
ENDCHAR
STARTCHAR 2228
ENCODING 8744
SWIDTH 777 0
DWIDTH 14 0
BBX 11 10 2 0
BITMAP
8020
4040
4040
2080
2080
1100
1200
0A00
0400
0400
ENDCHAR
STARTCHAR 2229
ENCODING 8745
SWIDTH 777 0
DWIDTH 14 0
BBX 10 10 2 0
BITMAP
1E00
6180
4080
8040
8040
8040
8040
8040
8040
8040
ENDCHAR
STARTCHAR 222A
ENCODING 8746
SWIDTH 777 0
DWIDTH 14 0
BBX 10 10 2 0
BITMAP
8040
8040
8040
8040
8040
8040
8040
4080
6180
1E00
ENDCHAR
STARTCHAR 222B
ENCODING 8747
SWIDTH 555 0
DWIDTH 10 0
BBX 8 17 1 -3
BITMAP
07
0B
18
18
18
18
18
18
18
18
18
18
18
18
18
D0
E0
ENDCHAR
STARTCHAR 222C
ENCODING 8748
SWIDTH 833 0
DWIDTH 15 0
BBX 13 17 1 -3
BITMAP
0738
0B58
18C0
18C0
18C0
18C0
18C0
18C0
18C0
18C0
18C0
18C0
18C0
18C0
1080
D680
E700
ENDCHAR
STARTCHAR 222D
ENCODING 8749
SWIDTH 1111 0
DWIDTH 20 0
BBX 18 17 1 -3
BITMAP
0739C0
0B5AC0
18C600
18C600
18C600
18C600
18C600
18C600
18C600
18C600
18C600
18C600
18C600
18C600
108400
D6B400
E73800
ENDCHAR
STARTCHAR 222E
ENCODING 8750
SWIDTH 611 0
DWIDTH 11 0
BBX 8 17 2 -3
BITMAP
07
0B
18
18
18
3C
5A
99
99
99
5A
3C
18
18
18
70
70
ENDCHAR
STARTCHAR 222F
ENCODING 8751
SWIDTH 888 0
DWIDTH 16 0
BBX 13 17 2 -3
BITMAP
0770
0B70
18C0
18C0
1FC0
78F0
98C8
98C8
98C8
78F0
1FC0
18C0
18C0
18C0
1080
7380
6380
ENDCHAR
STARTCHAR 2230
ENCODING 8752
SWIDTH 1166 0
DWIDTH 21 0
BBX 18 17 2 -3
BITMAP
0771C0
0B72C0
18C200
18C600
18C600
1FFE00
38C700
D8C6C0
98C640
D8C6C0
38C700
1FFE00
18C600
18C600
18C400
73B400
73B800
ENDCHAR
STARTCHAR 2231
ENCODING 8753
SWIDTH 611 0
DWIDTH 11 0
BBX 9 17 2 -3
BITMAP
0700
0B00
1800
1800
1800
3E00
5B00
9B80
9900
1900
1800
1800
1800
1800
1800
7000
7000
ENDCHAR
STARTCHAR 2232
ENCODING 8754
SWIDTH 611 0
DWIDTH 11 0
BBX 9 17 2 -3
BITMAP
0700
0B00
1800
1800
1800
3C00
5A00
9900
9B80
9900
5A00
3C00
1800
1800
1800
7000
7000
ENDCHAR
STARTCHAR 2233
ENCODING 8755
SWIDTH 611 0
DWIDTH 11 0
BBX 9 17 2 -3
BITMAP
0700
0B00
1800
1800
1800
3C00
5A00
9900
9B80
9900
5A00
3C00
1800
1800
1800
7000
7000
ENDCHAR
STARTCHAR 2234
ENCODING 8756
SWIDTH 777 0
DWIDTH 14 0
BBX 10 10 2 0
BITMAP
0C00
0C00
0000
0000
0000
0000
0000
0000
C0C0
C0C0
ENDCHAR
STARTCHAR 2235
ENCODING 8757
SWIDTH 777 0
DWIDTH 14 0
BBX 10 10 2 0
BITMAP
C0C0
C0C0
0000
0000
0000
0000
0000
0000
0C00
0C00
ENDCHAR
STARTCHAR 2236
ENCODING 8758
SWIDTH 444 0
DWIDTH 8 0
BBX 2 10 3 0
BITMAP
C0
C0
00
00
C0
C0
00
00
C0
C0
ENDCHAR
STARTCHAR 2237
ENCODING 8759
SWIDTH 777 0
DWIDTH 14 0
BBX 10 10 2 0
BITMAP
C0C0
C0C0
0000
0000
0000
0000
0000
0000
C0C0
C0C0
ENDCHAR
STARTCHAR 2238
ENCODING 8760
SWIDTH 777 0
DWIDTH 14 0
BBX 10 5 2 5
BITMAP
0C00
0C00
0000
0000
FFC0
ENDCHAR
STARTCHAR 2239
ENCODING 8761
SWIDTH 777 0
DWIDTH 14 0
BBX 10 9 2 1
BITMAP
00C0
00C0
0000
0000
FF00
0000
0000
00C0
00C0
ENDCHAR
STARTCHAR 223A
ENCODING 8762
SWIDTH 777 0
DWIDTH 14 0
BBX 10 9 2 1
BITMAP
C0C0
C0C0
0000
0000
FFC0
0000
0000
C0C0
C0C0
ENDCHAR
STARTCHAR 223B
ENCODING 8763
SWIDTH 777 0
DWIDTH 14 0
BBX 10 9 2 1
BITMAP
0C00
0C00
0000
7040
8C40
8380
0000
0C00
0C00
ENDCHAR
STARTCHAR 223C
ENCODING 8764
SWIDTH 777 0
DWIDTH 14 0
BBX 10 3 2 4
BITMAP
7040
8C40
8380
ENDCHAR
STARTCHAR 223D
ENCODING 8765
SWIDTH 777 0
DWIDTH 14 0
BBX 10 3 2 4
BITMAP
8380
8C40
7040
ENDCHAR
STARTCHAR 223E
ENCODING 8766
SWIDTH 777 0
DWIDTH 14 0
BBX 10 5 2 3
BITMAP
7180
8840
8440
8440
6380
ENDCHAR
STARTCHAR 223F
ENCODING 8767
SWIDTH 777 0
DWIDTH 14 0
BBX 10 10 2 0
BITMAP
3000
4800
4800
8800
8800
0440
0440
0480
0280
0300
ENDCHAR
STARTCHAR 2240
ENCODING 8768
SWIDTH 500 0
DWIDTH 9 0
BBX 3 13 3 -2
BITMAP
C0
60
20
20
20
40
40
40
80
80
80
C0
60
ENDCHAR
STARTCHAR 2241
ENCODING 8769
SWIDTH 777 0
DWIDTH 14 0
BBX 10 7 2 2
BITMAP
0200
0400
7440
8C40
8B80
0800
1000
ENDCHAR
STARTCHAR 2242
ENCODING 8770
SWIDTH 777 0
DWIDTH 14 0
BBX 10 6 2 2
BITMAP
FFC0
0000
0000
7040
8C40
8380
ENDCHAR
STARTCHAR 2243
ENCODING 8771
SWIDTH 777 0
DWIDTH 14 0
BBX 10 6 2 2
BITMAP
7040
8C40
8380
0000
0000
FFC0
ENDCHAR
STARTCHAR 2244
ENCODING 8772
SWIDTH 777 0
DWIDTH 14 0
BBX 10 9 2 0
BITMAP
0200
7640
8C40
8780
0C00
0800
FFC0
1800
1000
ENDCHAR
STARTCHAR 2245
ENCODING 8773
SWIDTH 777 0
DWIDTH 14 0
BBX 10 9 2 1
BITMAP
7040
8C40
8380
0000
0000
FFC0
0000
0000
FFC0
ENDCHAR
STARTCHAR 2246
ENCODING 8774
SWIDTH 777 0
DWIDTH 14 0
BBX 10 10 2 0
BITMAP
7040
8C40
8380
0000
0400
FFC0
0800
0800
FFC0
1000
ENDCHAR
STARTCHAR 2247
ENCODING 8775
SWIDTH 777 0
DWIDTH 14 0
BBX 10 12 2 -1
BITMAP
0200
7640
8C40
8780
0C00
0800
FFC0
1800
1000
FFC0
3000
2000
ENDCHAR
STARTCHAR 2248
ENCODING 8776
SWIDTH 777 0
DWIDTH 14 0
BBX 10 7 2 2
BITMAP
7040
8C40
8380
0000
7040
8C40
8380
ENDCHAR
STARTCHAR 2249
ENCODING 8777
SWIDTH 777 0
DWIDTH 14 0
BBX 10 9 2 1
BITMAP
0200
7640
8C40
8780
0C00
7840
8C40
9B80
1000
ENDCHAR
STARTCHAR 224A
ENCODING 8778
SWIDTH 777 0
DWIDTH 14 0
BBX 10 10 2 0
BITMAP
7040
8C40
8380
0000
7040
8C40
8380
0000
0000
FFC0
ENDCHAR
STARTCHAR 224B
ENCODING 8779
SWIDTH 777 0
DWIDTH 14 0
BBX 10 11 2 0
BITMAP
7040
8C40
8380
0000
7040
8C40
8380
0000
7040
8C40
8380
ENDCHAR
STARTCHAR 224C
ENCODING 8780
SWIDTH 777 0
DWIDTH 14 0
BBX 10 11 2 0
BITMAP
6380
8440
8440
8840
7180
0000
0000
FFC0
0000
0000
FFC0
ENDCHAR
STARTCHAR 224D
ENCODING 8781
SWIDTH 777 0
DWIDTH 14 0
BBX 10 8 2 1
BITMAP
8040
6180
1E00
0000
0000
1E00
6180
8040
ENDCHAR
STARTCHAR 224E
ENCODING 8782
SWIDTH 777 0
DWIDTH 14 0
BBX 10 9 2 1
BITMAP
0C00
1200
F3C0
0000
0000
0000
F3C0
1200
0C00
ENDCHAR
STARTCHAR 224F
ENCODING 8783
SWIDTH 777 0
DWIDTH 14 0
BBX 10 7 2 3
BITMAP
0C00
1200
F3C0
0000
0000
0000
FFC0
ENDCHAR
STARTCHAR 2250
ENCODING 8784
SWIDTH 777 0
DWIDTH 14 0
BBX 10 7 2 4
BITMAP
0C00
0C00
0000
FFC0
0000
0000
FFC0
ENDCHAR
STARTCHAR 2251
ENCODING 8785
SWIDTH 777 0
DWIDTH 14 0
BBX 10 11 2 0
BITMAP
0C00
0C00
0000
FFC0
0000
0000
FFC0
0000
0000
0C00
0C00
ENDCHAR
STARTCHAR 2252
ENCODING 8786
SWIDTH 777 0
DWIDTH 14 0
BBX 10 11 2 0
BITMAP
C000
C000
0000
FFC0
0000
0000
FFC0
0000
0000
00C0
00C0
ENDCHAR
STARTCHAR 2253
ENCODING 8787
SWIDTH 777 0
DWIDTH 14 0
BBX 10 11 2 0
BITMAP
00C0
00C0
0000
FFC0
0000
0000
FFC0
0000
0000
C000
C000
ENDCHAR
STARTCHAR 2254
ENCODING 8788
SWIDTH 777 0
DWIDTH 14 0
BBX 10 5 2 3
BITMAP
C000
DFC0
0000
C000
DFC0
ENDCHAR
STARTCHAR 2255
ENCODING 8789
SWIDTH 777 0
DWIDTH 14 0
BBX 10 5 2 3
BITMAP
00C0
FEC0
0000
00C0
FEC0
ENDCHAR
STARTCHAR 2256
ENCODING 8790
SWIDTH 777 0
DWIDTH 14 0
BBX 10 4 2 3
BITMAP
FFC0
1200
1200
FFC0
ENDCHAR
STARTCHAR 2257
ENCODING 8791
SWIDTH 777 0
DWIDTH 14 0
BBX 10 11 2 0
BITMAP
0E00
1100
1100
1100
0E00
0000
0000
FFC0
0000
0000
FFC0
ENDCHAR
STARTCHAR 2258
ENCODING 8792
SWIDTH 777 0
DWIDTH 14 0
BBX 10 10 2 0
BITMAP
1E00
6180
8040
0000
0000
0000
FFC0
0000
0000
FFC0
ENDCHAR
STARTCHAR 2259
ENCODING 8793
SWIDTH 777 0
DWIDTH 14 0
BBX 10 13 2 0
BITMAP
0400
0400
0A00
0A00
1100
1100
2080
0000
0000
FFC0
0000
0000
FFC0
ENDCHAR
STARTCHAR 225A
ENCODING 8794
SWIDTH 777 0
DWIDTH 14 0
BBX 10 13 2 0
BITMAP
4100
2200
2200
2400
1400
1400
0800
0800
0000
FFC0
0000
0000
FFC0
ENDCHAR
STARTCHAR 225B
ENCODING 8795
SWIDTH 777 0
DWIDTH 14 0
BBX 10 13 2 0
BITMAP
0400
0400
0400
3F80
0E00
0A00
1100
0000
0000
FFC0
0000
0000
FFC0
ENDCHAR
STARTCHAR 225C
ENCODING 8796
SWIDTH 777 0
DWIDTH 14 0
BBX 10 12 2 1
BITMAP
0C00
0C00
1200
2100
2100
7F80
0000
0000
FFC0
0000
0000
FFC0
ENDCHAR
STARTCHAR 225D
ENCODING 8797
SWIDTH 777 0
DWIDTH 14 0
BBX 10 12 2 0
BITMAP
10C0
1080
7FC0
9A80
9E80
F680
0000
0000
FFC0
0000
0000
FFC0
ENDCHAR
STARTCHAR 225E
ENCODING 8798
SWIDTH 777 0
DWIDTH 14 0
BBX 10 11 2 0
BITMAP
3F80
2480
2480
2480
2480
0000
0000
FFC0
0000
0000
FFC0
ENDCHAR
STARTCHAR 225F
ENCODING 8799
SWIDTH 777 0
DWIDTH 14 0
BBX 10 12 2 0
BITMAP
0E00
0200
0200
0400
0400
0000
0400
0000
FFC0
0000
0000
FFC0
ENDCHAR
STARTCHAR 2260
ENCODING 8800
SWIDTH 777 0
DWIDTH 14 0
BBX 10 10 2 0
BITMAP
0200
0200
0400
FFC0
0400
0800
FFC0
0800
1000
1000
ENDCHAR
STARTCHAR 2261
ENCODING 8801
SWIDTH 777 0
DWIDTH 14 0
BBX 10 7 2 2
BITMAP
FFC0
0000
0000
FFC0
0000
0000
FFC0
ENDCHAR
STARTCHAR 2262
ENCODING 8802
SWIDTH 777 0
DWIDTH 14 0
BBX 10 11 2 0
BITMAP
0200
0200
FFC0
0400
0400
FFC0
0800
0800
FFC0
1000
1000
ENDCHAR
STARTCHAR 2263
ENCODING 8803
SWIDTH 777 0
DWIDTH 14 0
BBX 10 10 2 0
BITMAP
FFC0
0000
0000
FFC0
0000
0000
FFC0
0000
0000
FFC0
ENDCHAR
STARTCHAR 2264
ENCODING 8804
SWIDTH 777 0
DWIDTH 14 0
BBX 10 11 2 0
BITMAP
0040
0180
0E00
3000
C000
3000
0E00
0180
0040
0000
FFC0
ENDCHAR
STARTCHAR 2265
ENCODING 8805
SWIDTH 777 0
DWIDTH 14 0
BBX 10 11 2 0
BITMAP
8000
6000
1C00
0300
00C0
0300
1C00
6000
8000
0000
FFC0
ENDCHAR
STARTCHAR 2266
ENCODING 8806
SWIDTH 777 0
DWIDTH 14 0
BBX 10 14 2 0
BITMAP
0040
0180
0E00
3000
C000
3000
0E00
0180
0040
0000
FFC0
0000
0000
FFC0
ENDCHAR
STARTCHAR 2267
ENCODING 8807
SWIDTH 777 0
DWIDTH 14 0
BBX 10 14 2 0
BITMAP
8000
6000
1C00
0300
00C0
0300
1C00
6000
8000
0000
FFC0
0000
0000
FFC0
ENDCHAR
STARTCHAR 2268
ENCODING 8808
SWIDTH 777 0
DWIDTH 14 0
BBX 10 16 2 -2
BITMAP
0040
0180
0E00
3000
C000
3000
0E00
0180
0440
0400
FFC0
0800
0800
FFC0
1000
1000
ENDCHAR
STARTCHAR 2269
ENCODING 8809
SWIDTH 777 0
DWIDTH 14 0
BBX 10 16 2 -2
BITMAP
8000
6000
1C00
0300
00C0
0300
1C00
6000
8200
0400
FFC0
0400
0800
FFC0
0800
1000
ENDCHAR
STARTCHAR 226A
ENCODING 8810
SWIDTH 1111 0
DWIDTH 20 0
BBX 16 11 2 0
BITMAP
0041
0186
0618
0C30
30C0
C300
30C0
0C30
0618
0186
0041
ENDCHAR
STARTCHAR 226B
ENCODING 8811
SWIDTH 1111 0
DWIDTH 20 0
BBX 16 11 2 0
BITMAP
8200
6180
1860
0C30
030C
00C3
030C
0C30
1860
6180
8200
ENDCHAR
STARTCHAR 226C
ENCODING 8812
SWIDTH 555 0
DWIDTH 10 0
BBX 6 17 2 -3
BITMAP
48
30
10
28
48
84
84
84
84
84
84
84
48
28
10
30
48
ENDCHAR
STARTCHAR 226D
ENCODING 8813
SWIDTH 777 0
DWIDTH 14 0
BBX 10 12 2 -1
BITMAP
0400
0400
8440
6480
1F00
0400
0400
1F00
6480
8440
0400
0400
ENDCHAR
STARTCHAR 226E
ENCODING 8814
SWIDTH 777 0
DWIDTH 14 0
BBX 10 14 2 -1
BITMAP
0200
0200
0440
0580
0600
1C00
2400
C800
3800
0C00
0A00
0980
1040
1000
ENDCHAR
STARTCHAR 226F
ENCODING 8815
SWIDTH 777 0
DWIDTH 14 0
BBX 10 14 2 -1
BITMAP
0200
0200
8400
6400
1400
0C00
0700
08C0
0B00
0E00
1800
6800
9000
1000
ENDCHAR
STARTCHAR 2270
ENCODING 8816
SWIDTH 777 0
DWIDTH 14 0
BBX 10 14 2 -1
BITMAP
0100
0140
0380
0E00
3200
C400
3C00
0600
8580
7840
0C00
0B80
1040
1000
ENDCHAR
STARTCHAR 2271
ENCODING 8817
SWIDTH 777 0
DWIDTH 14 0
BBX 10 15 2 -2
BITMAP
0200
8200
6400
1C00
0700
04C0
0B00
1C00
6840
9180
1E00
3000
D000
2000
2000
ENDCHAR
STARTCHAR 2272
ENCODING 8818
SWIDTH 777 0
DWIDTH 14 0
BBX 10 13 2 0
BITMAP
0040
0180
0E00
3000
C000
3000
0E00
0180
0040
0000
7040
8C40
8380
ENDCHAR
STARTCHAR 2273
ENCODING 8819
SWIDTH 777 0
DWIDTH 14 0
BBX 10 13 2 0
BITMAP
8000
6000
1C00
0700
01C0
0700
1C00
6000
8000
0000
7040
8C40
8380
ENDCHAR
STARTCHAR 2274
ENCODING 8820
SWIDTH 777 0
DWIDTH 14 0
BBX 10 14 2 -1
BITMAP
0140
0280
0700
1A00
E400
3400
0E00
0980
0840
0800
7040
9C40
9380
2000
ENDCHAR
STARTCHAR 2275
ENCODING 8821
SWIDTH 777 0
DWIDTH 14 0
BBX 10 14 2 -1
BITMAP
8200
7200
0C00
0700
05C0
0B00
0C00
7800
8800
1000
7840
9C40
A380
2000
ENDCHAR
STARTCHAR 2276
ENCODING 8822
SWIDTH 777 0
DWIDTH 14 0
BBX 10 16 2 -1
BITMAP
0040
0180
0E00
3000
C000
3000
0E00
8180
6040
1C00
0300
00C0
0300
1C00
6000
8000
ENDCHAR
STARTCHAR 2277
ENCODING 8823
SWIDTH 777 0
DWIDTH 14 0
BBX 10 16 2 -1
BITMAP
8000
6000
1C00
0300
00C0
0300
1C00
6040
8180
0E00
3000
C000
3000
0E00
0180
0040
ENDCHAR
STARTCHAR 2278
ENCODING 8824
SWIDTH 777 0
DWIDTH 14 0
BBX 10 17 2 -2
BITMAP
0040
0580
0600
3C00
C400
3C00
0600
8580
7440
0C00
0700
04C0
0700
0C00
7400
8400
0400
ENDCHAR
STARTCHAR 2279
ENCODING 8825
SWIDTH 777 0
DWIDTH 14 0
BBX 10 17 2 -2
BITMAP
8000
7400
0C00
0700
04C0
0700
0C00
7440
8580
0600
3C00
C400
3C00
0600
0580
0440
0400
ENDCHAR
STARTCHAR 227A
ENCODING 8826
SWIDTH 777 0
DWIDTH 14 0
BBX 10 11 2 0
BITMAP
0040
0080
0180
0300
0C00
F000
1C00
0300
0180
0080
0040
ENDCHAR
STARTCHAR 227B
ENCODING 8827
SWIDTH 777 0
DWIDTH 14 0
BBX 10 11 2 0
BITMAP
8000
4000
6000
3000
0C00
03C0
0E00
3000
6000
4000
8000
ENDCHAR
STARTCHAR 227C
ENCODING 8828
SWIDTH 777 0
DWIDTH 14 0
BBX 10 12 2 -1
BITMAP
0040
0080
0180
0300
0C00
F000
1C00
F300
1D80
0680
0240
0100
ENDCHAR
STARTCHAR 227D
ENCODING 8829
SWIDTH 777 0
DWIDTH 14 0
BBX 10 12 2 -1
BITMAP
8000
4000
6000
3000
0C00
03C0
0E00
33C0
6E00
5800
9000
2000
ENDCHAR
STARTCHAR 227E
ENCODING 8830
SWIDTH 777 0
DWIDTH 14 0
BBX 10 15 2 0
BITMAP
0040
0080
0180
0300
0C00
F000
1C00
0300
0180
0080
0040
0000
7040
8C40
8380
ENDCHAR
STARTCHAR 227F
ENCODING 8831
SWIDTH 777 0
DWIDTH 14 0
BBX 10 15 2 0
BITMAP
8000
4000
6000
3000
0C00
03C0
0E00
3000
6000
4000
8000
0000
7040
8C40
8380
ENDCHAR
STARTCHAR 2280
ENCODING 8832
SWIDTH 777 0
DWIDTH 14 0
BBX 10 12 2 -1
BITMAP
0240
0280
0380
0300
0E00
F200
1E00
0300
0380
0280
0240
0200
ENDCHAR
STARTCHAR 2281
ENCODING 8833
SWIDTH 777 0
DWIDTH 14 0
BBX 10 12 2 -1
BITMAP
9000
5000
5000
3000
1C00
13C0
1E00
3000
5000
5000
9000
1000
ENDCHAR
STARTCHAR 2282
ENCODING 8834
SWIDTH 777 0
DWIDTH 14 0
BBX 10 10 2 0
BITMAP
1FC0
6000
4000
8000
8000
8000
8000
4000
6000
1FC0
ENDCHAR
STARTCHAR 2283
ENCODING 8835
SWIDTH 777 0
DWIDTH 14 0
BBX 10 10 2 0
BITMAP
FE00
0180
0080
0040
0040
0040
0040
0080
0180
FE00
ENDCHAR
STARTCHAR 2284
ENCODING 8836
SWIDTH 777 0
DWIDTH 14 0
BBX 10 14 2 -2
BITMAP
0080
0080
1FC0
6100
4100
8200
8200
8200
8200
4400
2400
1FC0
0800
0800
ENDCHAR
STARTCHAR 2285
ENCODING 8837
SWIDTH 777 0
DWIDTH 14 0
BBX 10 14 2 -2
BITMAP
0200
0400
FE00
0580
0880
0840
0840
1040
1040
1080
2180
FE00
2000
4000
ENDCHAR
STARTCHAR 2286
ENCODING 8838
SWIDTH 777 0
DWIDTH 14 0
BBX 10 10 2 0
BITMAP
3FC0
4000
8000
8000
8000
4000
3FC0
0000
0000
FFC0
ENDCHAR
STARTCHAR 2287
ENCODING 8839
SWIDTH 777 0
DWIDTH 14 0
BBX 10 10 2 0
BITMAP
FF00
0080
0040
0040
0040
0080
FF00
0000
0000
FFC0
ENDCHAR
STARTCHAR 2288
ENCODING 8840
SWIDTH 777 0
DWIDTH 14 0
BBX 10 14 2 -2
BITMAP
0100
0200
3FC0
4200
8400
8400
8400
4800
3FC0
0800
1000
FFC0
1000
2000
ENDCHAR
STARTCHAR 2289
ENCODING 8841
SWIDTH 777 0
DWIDTH 14 0
BBX 10 14 2 -2
BITMAP
0200
0400
FF00
0480
0840
0840
0840
1080
FF00
1000
2000
FFC0
2000
4000
ENDCHAR
STARTCHAR 228A
ENCODING 8842
SWIDTH 777 0
DWIDTH 14 0
BBX 10 12 2 -2
BITMAP
3FC0
4000
8000
8000
8000
4000
3FC0
0000
0400
FFC0
0800
0800
ENDCHAR
STARTCHAR 228B
ENCODING 8843
SWIDTH 777 0
DWIDTH 14 0
BBX 10 12 2 -2
BITMAP
FF00
0080
0040
0040
0040
0080
FF00
0000
0400
FFC0
0800
0800
ENDCHAR
STARTCHAR 228C
ENCODING 8844
SWIDTH 777 0
DWIDTH 14 0
BBX 10 10 2 0
BITMAP
8040
8040
8040
8440
8FC0
8440
8040
4080
6180
1E00
ENDCHAR
STARTCHAR 228D
ENCODING 8845
SWIDTH 777 0
DWIDTH 14 0
BBX 10 10 2 0
BITMAP
8040
8040
8040
8C40
8C40
8040
8040
4080
6180
1E00
ENDCHAR
STARTCHAR 228E
ENCODING 8846
SWIDTH 777 0
DWIDTH 14 0
BBX 10 10 2 0
BITMAP
8040
8040
8440
8440
9F40
8440
8440
4080
6180
1E00
ENDCHAR
STARTCHAR 228F
ENCODING 8847
SWIDTH 777 0
DWIDTH 14 0
BBX 10 10 2 0
BITMAP
FFC0
8000
8000
8000
8000
8000
8000
8000
8000
FFC0
ENDCHAR
STARTCHAR 2290
ENCODING 8848
SWIDTH 777 0
DWIDTH 14 0
BBX 10 10 2 0
BITMAP
FFC0
0040
0040
0040
0040
0040
0040
0040
0040
FFC0
ENDCHAR
STARTCHAR 2291
ENCODING 8849
SWIDTH 777 0
DWIDTH 14 0
BBX 10 10 2 0
BITMAP
FFC0
8000
8000
8000
8000
8000
FFC0
0000
0000
FFC0
ENDCHAR
STARTCHAR 2292
ENCODING 8850
SWIDTH 777 0
DWIDTH 14 0
BBX 10 10 2 0
BITMAP
FFC0
0040
0040
0040
0040
0040
FFC0
0000
0000
FFC0
ENDCHAR
STARTCHAR 2293
ENCODING 8851
SWIDTH 777 0
DWIDTH 14 0
BBX 10 10 2 0
BITMAP
FFC0
8040
8040
8040
8040
8040
8040
8040
8040
8040
ENDCHAR
STARTCHAR 2294
ENCODING 8852
SWIDTH 777 0
DWIDTH 14 0
BBX 10 11 2 0
BITMAP
8040
8040
8040
8040
8040
8040
8040
8040
8040
8040
FFC0
ENDCHAR
STARTCHAR 2295
ENCODING 8853
SWIDTH 777 0
DWIDTH 14 0
BBX 11 11 2 0
BITMAP
1F00
2480
4440
8420
8420
FFE0
8420
8420
4440
2480
1F00
ENDCHAR
STARTCHAR 2296
ENCODING 8854
SWIDTH 777 0
DWIDTH 14 0
BBX 11 11 2 0
BITMAP
1F00
2080
4040
8020
8020
FFE0
8020
8020
4040
2080
1F00
ENDCHAR
STARTCHAR 2297
ENCODING 8855
SWIDTH 777 0
DWIDTH 14 0
BBX 11 11 2 0
BITMAP
1F00
2080
60C0
9120
8A20
8420
8A20
9120
60C0
2080
1F00
ENDCHAR
STARTCHAR 2298
ENCODING 8856
SWIDTH 777 0
DWIDTH 14 0
BBX 11 11 2 0
BITMAP
1F00
2080
40C0
8120
8220
8420
8820
9020
6040
2080
1F00
ENDCHAR
STARTCHAR 2299
ENCODING 8857
SWIDTH 777 0
DWIDTH 14 0
BBX 11 11 2 0
BITMAP
1F00
2080
4040
8020
8020
8620
8620
8020
4040
2080
1F00
ENDCHAR
STARTCHAR 229A
ENCODING 8858
SWIDTH 777 0
DWIDTH 14 0
BBX 11 11 2 0
BITMAP
1F00
2080
4040
8E20
9120
9120
9120
8E20
4040
2080
1F00
ENDCHAR
STARTCHAR 229B
ENCODING 8859
SWIDTH 777 0
DWIDTH 14 0
BBX 11 11 2 0
BITMAP
1F00
2080
4040
8420
9520
8E20
9F20
8420
4040
2080
1F00
ENDCHAR
STARTCHAR 229C
ENCODING 8860
SWIDTH 777 0
DWIDTH 14 0
BBX 11 11 2 0
BITMAP
1F00
2080
4040
C060
FFE0
8020
8020
FFE0
4040
2080
1F00
ENDCHAR
STARTCHAR 229D
ENCODING 8861
SWIDTH 777 0
DWIDTH 14 0
BBX 10 10 2 0
BITMAP
1E00
6180
4080
8040
8040
BF40
8040
4080
6180
1E00
ENDCHAR
STARTCHAR 229E
ENCODING 8862
SWIDTH 777 0
DWIDTH 14 0
BBX 10 10 2 0
BITMAP
FFC0
8440
8440
8440
8440
FFC0
8440
8440
8440
FFC0
ENDCHAR
STARTCHAR 229F
ENCODING 8863
SWIDTH 777 0
DWIDTH 14 0
BBX 10 10 2 0
BITMAP
FFC0
8040
8040
8040
8040
FFC0
8040
8040
8040
FFC0
ENDCHAR
STARTCHAR 22A0
ENCODING 8864
SWIDTH 777 0
DWIDTH 14 0
BBX 10 10 2 0
BITMAP
FFC0
C0C0
A140
9240
8C40
8C40
9240
A140
C0C0
FFC0
ENDCHAR
STARTCHAR 22A1
ENCODING 8865
SWIDTH 777 0
DWIDTH 14 0
BBX 10 10 2 0
BITMAP
FFC0
8040
8040
8040
8C40
8C40
8040
8040
8040
FFC0
ENDCHAR
STARTCHAR 22A2
ENCODING 8866
SWIDTH 777 0
DWIDTH 14 0
BBX 10 10 2 0
BITMAP
8000
8000
8000
8000
8000
FFC0
8000
8000
8000
8000
ENDCHAR
STARTCHAR 22A3
ENCODING 8867
SWIDTH 777 0
DWIDTH 14 0
BBX 10 10 2 0
BITMAP
0040
0040
0040
0040
0040
FFC0
0040
0040
0040
0040
ENDCHAR
STARTCHAR 22A4
ENCODING 8868
SWIDTH 777 0
DWIDTH 14 0
BBX 10 10 2 0
BITMAP
FFC0
0400
0400
0400
0400
0400
0400
0400
0400
0400
ENDCHAR
STARTCHAR 22A5
ENCODING 8869
SWIDTH 777 0
DWIDTH 14 0
BBX 10 10 2 0
BITMAP
0400
0400
0400
0400
0400
0400
0400
0400
0400
FFC0
ENDCHAR
STARTCHAR 22A6
ENCODING 8870
SWIDTH 555 0
DWIDTH 10 0
BBX 5 10 3 0
BITMAP
80
80
80
80
80
F8
80
80
80
80
ENDCHAR
STARTCHAR 22A7
ENCODING 8871
SWIDTH 555 0
DWIDTH 10 0
BBX 5 10 3 0
BITMAP
80
80
80
F8
80
80
F8
80
80
80
ENDCHAR
STARTCHAR 22A8
ENCODING 8872
SWIDTH 777 0
DWIDTH 14 0
BBX 10 10 2 0
BITMAP
8000
8000
8000
FFC0
8000
8000
FFC0
8000
8000
8000
ENDCHAR
STARTCHAR 22A9
ENCODING 8873
SWIDTH 777 0
DWIDTH 14 0
BBX 10 10 2 0
BITMAP
9000
9000
9000
9000
9000
9FC0
9000
9000
9000
9000
ENDCHAR
STARTCHAR 22AA
ENCODING 8874
SWIDTH 777 0
DWIDTH 14 0
BBX 10 10 2 0
BITMAP
9200
9200
9200
9200
9200
93C0
9200
9200
9200
9200
ENDCHAR
STARTCHAR 22AB
ENCODING 8875
SWIDTH 777 0
DWIDTH 14 0
BBX 10 10 2 0
BITMAP
9000
9000
9000
9FC0
9000
9000
9FC0
9000
9000
9000
ENDCHAR
STARTCHAR 22AC
ENCODING 8876
SWIDTH 777 0
DWIDTH 14 0
BBX 10 12 2 -1
BITMAP
0200
8200
8400
8400
8400
8400
FFC0
8800
8800
8800
9000
1000
ENDCHAR
STARTCHAR 22AD
ENCODING 8877
SWIDTH 777 0
DWIDTH 14 0
BBX 10 12 2 -1
BITMAP
0200
8200
8400
8400
FFC0
8400
8800
FFC0
8800
8800
9000
1000
ENDCHAR
STARTCHAR 22AE
ENCODING 8878
SWIDTH 777 0
DWIDTH 14 0
BBX 10 12 2 -1
BITMAP
0080
9180
9100
9100
9300
9200
9FC0
9600
9400
9400
9C00
0800
ENDCHAR
STARTCHAR 22AF
ENCODING 8879
SWIDTH 777 0
DWIDTH 14 0
BBX 10 12 2 -1
BITMAP
0080
9180
9100
9100
9FC0
9200
9200
9FC0
9400
9400
9C00
0800
ENDCHAR
STARTCHAR 22B0
ENCODING 8880
SWIDTH 777 0
DWIDTH 14 0
BBX 10 13 2 0
BITMAP
0180
0040
0040
0080
0300
1C00
E000
1C00
0300
0080
0040
0040
0180
ENDCHAR
STARTCHAR 22B1
ENCODING 8881
SWIDTH 777 0
DWIDTH 14 0
BBX 10 13 2 0
BITMAP
6000
8000
8000
4000
3000
0E00
01C0
0E00
3000
4000
8000
8000
6000
ENDCHAR
STARTCHAR 22B2
ENCODING 8882
SWIDTH 777 0
DWIDTH 14 0
BBX 9 10 2 0
BITMAP
8000
E000
9800
8600
8180
8180
8600
9800
E000
8000
ENDCHAR
STARTCHAR 22B3
ENCODING 8883
SWIDTH 777 0
DWIDTH 14 0
BBX 9 10 3 0
BITMAP
0080
0380
0C80
3080
C080
C080
3080
0C80
0380
0080
ENDCHAR
STARTCHAR 22B4
ENCODING 8884
SWIDTH 777 0
DWIDTH 14 0
BBX 10 11 2 0
BITMAP
0040
01C0
0E40
3040
C040
3040
0C40
03C0
0040
0000
FFC0
ENDCHAR
STARTCHAR 22B5
ENCODING 8885
SWIDTH 777 0
DWIDTH 14 0
BBX 10 11 2 0
BITMAP
8000
E000
9C00
8300
80C0
8300
8C00
F000
8000
0000
FFC0
ENDCHAR
STARTCHAR 22B6
ENCODING 8886
SWIDTH 944 0
DWIDTH 17 0
BBX 13 5 2 2
BITMAP
7070
88F8
8FF8
88F8
7070
ENDCHAR
STARTCHAR 22B7
ENCODING 8887
SWIDTH 944 0
DWIDTH 17 0
BBX 13 5 2 2
BITMAP
7070
F888
FF88
F888
7070
ENDCHAR
STARTCHAR 22B8
ENCODING 8888
SWIDTH 777 0
DWIDTH 14 0
BBX 10 5 2 2
BITMAP
0380
0440
FC40
0440
0380
ENDCHAR
STARTCHAR 22B9
ENCODING 8889
SWIDTH 777 0
DWIDTH 14 0
BBX 11 11 2 0
BITMAP
0400
0400
0400
0000
0000
E0E0
0000
0000
0400
0400
0400
ENDCHAR
STARTCHAR 22BA
ENCODING 8890
SWIDTH 611 0
DWIDTH 11 0
BBX 7 10 2 -4
BITMAP
FE
10
10
10
10
10
10
10
10
10
ENDCHAR
STARTCHAR 22BB
ENCODING 8891
SWIDTH 777 0
DWIDTH 14 0
BBX 10 11 2 0
BITMAP
4100
2200
2200
2400
1400
1400
0800
0800
0000
0000
FFC0
ENDCHAR
STARTCHAR 22BC
ENCODING 8892
SWIDTH 777 0
DWIDTH 14 0
BBX 10 11 2 0
BITMAP
FFC0
0000
0000
0800
0800
1400
1400
2400
2200
2200
4100
ENDCHAR
STARTCHAR 22BD
ENCODING 8893
SWIDTH 777 0
DWIDTH 14 0
BBX 10 11 2 0
BITMAP
FFC0
0000
0000
4100
2200
2200
2400
1400
1400
0800
0800
ENDCHAR
STARTCHAR 22BE
ENCODING 8894
SWIDTH 777 0
DWIDTH 14 0
BBX 10 10 2 0
BITMAP
8000
8000
8000
E000
9800
8C00
8400
8200
8200
FFC0
ENDCHAR
STARTCHAR 22BF
ENCODING 8895
SWIDTH 777 0
DWIDTH 14 0
BBX 10 10 2 0
BITMAP
0040
00C0
01C0
02C0
04C0
08C0
10C0
20C0
7FC0
FFC0
ENDCHAR
STARTCHAR 22C0
ENCODING 8896
SWIDTH 777 0
DWIDTH 14 0
BBX 11 10 2 0
BITMAP
0400
0400
0E00
0E00
1B00
3B80
3180
60C0
60C0
C060
ENDCHAR
STARTCHAR 22C1
ENCODING 8897
SWIDTH 777 0
DWIDTH 14 0
BBX 11 10 2 0
BITMAP
C060
60C0
60C0
3180
3B80
1B00
0E00
0E00
0400
0400
ENDCHAR
STARTCHAR 22C2
ENCODING 8898
SWIDTH 777 0
DWIDTH 14 0
BBX 10 10 2 0
BITMAP
1E00
7F80
6180
C0C0
C0C0
C0C0
C0C0
C0C0
C0C0
C0C0
ENDCHAR
STARTCHAR 22C3
ENCODING 8899
SWIDTH 777 0
DWIDTH 14 0
BBX 10 10 2 0
BITMAP
C0C0
C0C0
C0C0
C0C0
C0C0
C0C0
C0C0
6180
7F80
1E00
ENDCHAR
STARTCHAR 22C4
ENCODING 8900
SWIDTH 777 0
DWIDTH 14 0
BBX 11 11 2 0
BITMAP
0400
0E00
1B00
3180
60C0
C060
60C0
3180
1B00
0E00
0400
ENDCHAR
STARTCHAR 22C5
ENCODING 8901
SWIDTH 444 0
DWIDTH 8 0
BBX 2 2 3 4
BITMAP
C0
C0
ENDCHAR
STARTCHAR 22C6
ENCODING 8902
SWIDTH 777 0
DWIDTH 14 0
BBX 7 8 4 1
BITMAP
10
10
10
FE
7C
38
28
44
ENDCHAR
STARTCHAR 22C7
ENCODING 8903
SWIDTH 777 0
DWIDTH 14 0
BBX 11 11 2 0
BITMAP
8020
4C40
2C80
1100
0A00
FFE0
0A00
1100
2C80
4C40
8020
ENDCHAR
STARTCHAR 22C8
ENCODING 8904
SWIDTH 1000 0
DWIDTH 18 0
BBX 14 10 2 0
BITMAP
8004
C00C
B034
8844
8784
8784
8844
B034
C00C
8004
ENDCHAR
STARTCHAR 22C9
ENCODING 8905
SWIDTH 777 0
DWIDTH 14 0
BBX 10 10 2 0
BITMAP
8040
C080
A100
9200
8C00
8C00
9200
A100
C080
8040
ENDCHAR
STARTCHAR 22CA
ENCODING 8906
SWIDTH 777 0
DWIDTH 14 0
BBX 10 10 2 0
BITMAP
8040
40C0
2140
1240
0C40
0C40
1240
2140
40C0
8040
ENDCHAR
STARTCHAR 22CB
ENCODING 8907
SWIDTH 777 0
DWIDTH 14 0
BBX 10 10 2 0
BITMAP
8000
4000
2000
1000
0800
0C00
1200
2100
4080
8040
ENDCHAR
STARTCHAR 22CC
ENCODING 8908
SWIDTH 777 0
DWIDTH 14 0
BBX 10 10 2 0
BITMAP
0040
0080
0100
0200
0400
0C00
1200
2100
4080
8040
ENDCHAR
STARTCHAR 22CD
ENCODING 8909
SWIDTH 777 0
DWIDTH 14 0
BBX 10 6 2 2
BITMAP
8380
8C40
7040
0000
0000
FFC0
ENDCHAR
STARTCHAR 22CE
ENCODING 8910
SWIDTH 777 0
DWIDTH 14 0
BBX 11 10 2 0
BITMAP
8020
60C0
3180
1100
0A00
0A00
0C00
0400
0400
0400
ENDCHAR
STARTCHAR 22CF
ENCODING 8911
SWIDTH 777 0
DWIDTH 14 0
BBX 11 10 2 0
BITMAP
0400
0400
0400
0C00
0A00
0A00
1100
3180
60C0
8020
ENDCHAR
STARTCHAR 22D0
ENCODING 8912
SWIDTH 777 0
DWIDTH 14 0
BBX 10 10 2 0
BITMAP
1FC0
6000
4000
8FC0
9000
9000
8FC0
4000
6000
1FC0
ENDCHAR
STARTCHAR 22D1
ENCODING 8913
SWIDTH 777 0
DWIDTH 14 0
BBX 10 10 2 0
BITMAP
FE00
0180
0080
FE40
0140
0140
FE40
0080
0180
FE00
ENDCHAR
STARTCHAR 22D2
ENCODING 8914
SWIDTH 777 0
DWIDTH 14 0
BBX 10 10 2 0
BITMAP
9240
9240
9240
9240
9240
9240
8C40
4080
6180
1E00
ENDCHAR
STARTCHAR 22D3
ENCODING 8915
SWIDTH 777 0
DWIDTH 14 0
BBX 10 10 2 0
BITMAP
1E00
6180
4C80
9240
9240
9240
9240
9240
9240
9240
ENDCHAR
STARTCHAR 22D4
ENCODING 8916
SWIDTH 777 0
DWIDTH 14 0
BBX 10 14 2 0
BITMAP
0400
0400
0400
0400
1F00
2580
4480
8440
8440
8440
8440
8440
8440
8440
ENDCHAR
STARTCHAR 22D5
ENCODING 8917
SWIDTH 777 0
DWIDTH 14 0
BBX 10 10 2 0
BITMAP
1200
1200
1200
FFC0
1200
1200
FFC0
1200
1200
1200
ENDCHAR
STARTCHAR 22D6
ENCODING 8918
SWIDTH 777 0
DWIDTH 14 0
BBX 10 11 2 0
BITMAP
0040
0180
0600
0C00
3000
C180
3180
0C00
0600
0180
0040
ENDCHAR
STARTCHAR 22D7
ENCODING 8919
SWIDTH 777 0
DWIDTH 14 0
BBX 10 11 2 0
BITMAP
8000
6000
1800
0C00
0300
60C0
6300
0C00
1800
6000
8000
ENDCHAR
STARTCHAR 22D8
ENCODING 8920
SWIDTH 1444 0
DWIDTH 26 0
BBX 22 11 2 0
BITMAP
004104
018618
061860
0C30C0
30C300
C30C00
30C300
0C30C0
061860
018618
004104
ENDCHAR
STARTCHAR 22D9
ENCODING 8921
SWIDTH 1444 0
DWIDTH 26 0
BBX 22 11 2 0
BITMAP
820800
618600
186180
0C30C0
030C30
00C30C
030C30
0C30C0
186180
618600
820800
ENDCHAR
STARTCHAR 22DA
ENCODING 8922
SWIDTH 777 0
DWIDTH 14 0
BBX 10 21 2 -4
BITMAP
0040
0180
0E00
3000
C000
3000
0E00
0180
0040
0000
FFC0
0000
8000
6000
1C00
0300
00C0
0300
1C00
6000
8000
ENDCHAR
STARTCHAR 22DB
ENCODING 8923
SWIDTH 777 0
DWIDTH 14 0
BBX 10 21 2 -4
BITMAP
8000
6000
1C00
0300
00C0
0300
1C00
6000
8000
0000
FFC0
0000
0040
0180
0E00
3000
C000
3000
0E00
0180
0040
ENDCHAR
STARTCHAR 22DC
ENCODING 8924
SWIDTH 777 0
DWIDTH 14 0
BBX 10 12 2 0
BITMAP
0040
0380
0C00
7040
8180
0E00
3000
C000
3000
0E00
0180
0040
ENDCHAR
STARTCHAR 22DD
ENCODING 8925
SWIDTH 777 0
DWIDTH 14 0
BBX 10 12 2 0
BITMAP
8000
7000
0C00
8380
6040
1C00
0300
00C0
0300
1C00
6000
8000
ENDCHAR
STARTCHAR 22DE
ENCODING 8926
SWIDTH 777 0
DWIDTH 14 0
BBX 10 12 2 0
BITMAP
0100
0240
0680
1D80
F300
0C00
F000
1C00
0300
0180
0080
0040
ENDCHAR
STARTCHAR 22DF
ENCODING 8927
SWIDTH 777 0
DWIDTH 14 0
BBX 10 12 2 0
BITMAP
2000
9000
5800
6E00
33C0
0C00
03C0
0E00
3000
6000
4000
8000
ENDCHAR
STARTCHAR 22E0
ENCODING 8928
SWIDTH 777 0
DWIDTH 14 0
BBX 10 16 2 -3
BITMAP
0240
0280
0380
0300
0E00
F200
1E00
0300
0380
0280
0240
0200
FFC0
0200
0200
0200
ENDCHAR
STARTCHAR 22E1
ENCODING 8929
SWIDTH 777 0
DWIDTH 14 0
BBX 10 16 2 -3
BITMAP
9000
5000
5000
3000
1C00
13C0
1E00
3000
5000
5000
9000
1000
FFC0
1000
1000
1000
ENDCHAR
STARTCHAR 22E2
ENCODING 8930
SWIDTH 777 0
DWIDTH 14 0
BBX 10 14 2 -2
BITMAP
0100
0200
FFC0
8200
8400
8400
8400
8800
FFC0
0800
1000
FFC0
1000
2000
ENDCHAR
STARTCHAR 22E3
ENCODING 8931
SWIDTH 777 0
DWIDTH 14 0
BBX 10 14 2 -2
BITMAP
0100
0200
FFC0
0240
0440
0440
0440
0840
FFC0
0800
1000
FFC0
1000
2000
ENDCHAR
STARTCHAR 22E4
ENCODING 8932
SWIDTH 777 0
DWIDTH 14 0
BBX 10 12 2 -2
BITMAP
FFC0
8000
8000
8000
8000
8000
FFC0
0000
0400
FFC0
0800
0800
ENDCHAR
STARTCHAR 22E5
ENCODING 8933
SWIDTH 777 0
DWIDTH 14 0
BBX 10 12 2 -2
BITMAP
FFC0
0040
0040
0040
0040
0040
FFC0
0000
0400
FFC0
0800
0800
ENDCHAR
STARTCHAR 22E6
ENCODING 8934
SWIDTH 777 0
DWIDTH 14 0
BBX 10 14 2 -1
BITMAP
0040
0180
0E00
3000
C000
3000
0E00
0180
0040
0400
7440
8C40
8B80
0800
ENDCHAR
STARTCHAR 22E7
ENCODING 8935
SWIDTH 777 0
DWIDTH 14 0
BBX 10 14 2 -1
BITMAP
8000
6000
1C00
0300
00C0
0300
1C00
6000
8000
0400
7440
8C40
8B80
0800
ENDCHAR
STARTCHAR 22E8
ENCODING 8936
SWIDTH 777 0
DWIDTH 14 0
BBX 10 16 2 -1
BITMAP
0040
0080
0180
0300
0C00
F000
1C00
0300
0180
0080
0040
0400
7440
8C40
8B80
0800
ENDCHAR
STARTCHAR 22E9
ENCODING 8937
SWIDTH 777 0
DWIDTH 14 0
BBX 10 16 2 -1
BITMAP
8000
4000
6000
3000
0C00
03C0
0E00
3000
6000
4000
8000
0400
7440
8C40
8B80
0800
ENDCHAR
STARTCHAR 22EA
ENCODING 8938
SWIDTH 777 0
DWIDTH 14 0
BBX 9 14 3 -2
BITMAP
0200
0200
0480
0780
0C80
3880
C880
C880
3880
1C80
1380
1080
2000
2000
ENDCHAR
STARTCHAR 22EB
ENCODING 8939
SWIDTH 777 0
DWIDTH 14 0
BBX 9 14 2 -2
BITMAP
0200
0200
8400
E400
9C00
8E00
8980
8980
8E00
9800
F000
9000
2000
2000
ENDCHAR
STARTCHAR 22EC
ENCODING 8940
SWIDTH 777 0
DWIDTH 14 0
BBX 10 14 2 -2
BITMAP
0100
0140
03C0
0E40
3240
C440
3440
0E40
05C0
0840
0800
FFC0
1000
1000
ENDCHAR
STARTCHAR 22ED
ENCODING 8941
SWIDTH 777 0
DWIDTH 14 0
BBX 10 14 2 -2
BITMAP
0200
8200
F400
8C00
8B00
88C0
9B00
9C00
F000
A000
2000
FFC0
4000
4000
ENDCHAR
STARTCHAR 22EE
ENCODING 8942
SWIDTH 777 0
DWIDTH 14 0
BBX 2 10 6 0
BITMAP
C0
C0
00
00
C0
C0
00
00
C0
C0
ENDCHAR
STARTCHAR 22EF
ENCODING 8943
SWIDTH 777 0
DWIDTH 14 0
BBX 10 2 2 4
BITMAP
CCC0
CCC0
ENDCHAR
STARTCHAR 22F0
ENCODING 8944
SWIDTH 777 0
DWIDTH 14 0
BBX 10 10 2 0
BITMAP
00C0
00C0
0000
0000
0C00
0C00
0000
0000
C000
C000
ENDCHAR
STARTCHAR 22F1
ENCODING 8945
SWIDTH 777 0
DWIDTH 14 0
BBX 10 10 2 0
BITMAP
C000
C000
0000
0000
0C00
0C00
0000
0000
00C0
00C0
ENDCHAR
STARTCHAR 2302
ENCODING 8962
SWIDTH 833 0
DWIDTH 15 0
BBX 13 13 1 0
BITMAP
0200
0700
0D80
18C0
3060
6030
C018
8008
8008
8008
8008
8008
FFF8
ENDCHAR
STARTCHAR 2306
ENCODING 8966
SWIDTH 777 0
DWIDTH 14 0
BBX 10 13 2 0
BITMAP
FFC0
0000
0000
FFC0
0000
0800
0800
1400
1400
2400
2200
2200
4100
ENDCHAR
STARTCHAR 2308
ENCODING 8968
SWIDTH 555 0
DWIDTH 10 0
BBX 4 17 3 -3
BITMAP
F0
80
80
80
80
80
80
80
80
80
80
80
80
80
80
80
80
ENDCHAR
STARTCHAR 2309
ENCODING 8969
SWIDTH 555 0
DWIDTH 10 0
BBX 4 17 2 -3
BITMAP
F0
10
10
10
10
10
10
10
10
10
10
10
10
10
10
10
10
ENDCHAR
STARTCHAR 230A
ENCODING 8970
SWIDTH 555 0
DWIDTH 10 0
BBX 4 17 3 -3
BITMAP
80
80
80
80
80
80
80
80
80
80
80
80
80
80
80
80
F0
ENDCHAR
STARTCHAR 230B
ENCODING 8971
SWIDTH 555 0
DWIDTH 10 0
BBX 4 17 2 -3
BITMAP
10
10
10
10
10
10
10
10
10
10
10
10
10
10
10
10
F0
ENDCHAR
STARTCHAR 2320
ENCODING 8992
SWIDTH 444 0
DWIDTH 8 0
BBX 5 18 3 -4
BITMAP
38
58
40
C0
C0
C0
C0
C0
C0
C0
C0
C0
C0
C0
C0
C0
C0
C0
ENDCHAR
STARTCHAR 2321
ENCODING 8993
SWIDTH 444 0
DWIDTH 8 0
BBX 5 18 0 -4
BITMAP
18
18
18
18
18
18
18
18
18
18
18
18
18
18
18
10
D0
E0
ENDCHAR
STARTCHAR 2322
ENCODING 8994
SWIDTH 777 0
DWIDTH 14 0
BBX 10 3 2 4
BITMAP
1E00
6180
8040
ENDCHAR
STARTCHAR 2323
ENCODING 8995
SWIDTH 777 0
DWIDTH 14 0
BBX 10 3 2 4
BITMAP
8040
6180
1E00
ENDCHAR
STARTCHAR 2400
ENCODING 9216
SWIDTH 1000 0
DWIDTH 18 0
BBX 16 7 1 0
BITMAP
9248
D248
D248
B248
B248
B248
918F
ENDCHAR
STARTCHAR 2401
ENCODING 9217
SWIDTH 1000 0
DWIDTH 18 0
BBX 15 7 1 0
BITMAP
7392
8452
C452
645E
1452
1452
E392
ENDCHAR
STARTCHAR 2402
ENCODING 9218
SWIDTH 1000 0
DWIDTH 18 0
BBX 16 7 1 0
BITMAP
77D1
810A
C10E
6104
110A
110A
E111
ENDCHAR
STARTCHAR 2403
ENCODING 9219
SWIDTH 1000 0
DWIDTH 18 0
BBX 16 7 1 0
BITMAP
F7D1
810A
810E
E104
810E
810A
F111
ENDCHAR
STARTCHAR 2404
ENCODING 9220
SWIDTH 1000 0
DWIDTH 18 0
BBX 16 7 1 0
BITMAP
F39F
8444
8444
E444
8444
8444
F384
ENDCHAR
STARTCHAR 2405
ENCODING 9221
SWIDTH 1000 0
DWIDTH 18 0
BBX 16 8 1 -1
BITMAP
F24E
8351
8351
E2D1
82D1
82D1
F24E
0003
ENDCHAR
STARTCHAR 2406
ENCODING 9222
SWIDTH 1000 0
DWIDTH 18 0
BBX 17 7 0 0
BITMAP
21E480
330500
520500
520600
720500
8B0500
89E480
ENDCHAR
STARTCHAR 2407
ENCODING 9223
SWIDTH 1000 0
DWIDTH 18 0
BBX 16 7 1 0
BITMAP
F3C8
9208
9208
E388
9208
9208
F3CF
ENDCHAR
STARTCHAR 2408
ENCODING 9224
SWIDTH 1000 0
DWIDTH 18 0
BBX 10 7 4 0
BITMAP
F1C0
9200
9300
E180
9040
9040
F380
ENDCHAR
STARTCHAR 2409
ENCODING 9225
SWIDTH 1000 0
DWIDTH 18 0
BBX 11 7 4 0
BITMAP
93E0
9080
9080
F080
9080
9080
9080
ENDCHAR
STARTCHAR 240A
ENCODING 9226
SWIDTH 1000 0
DWIDTH 18 0
BBX 10 7 4 0
BITMAP
83C0
8200
8200
83C0
8200
8200
F200
ENDCHAR
STARTCHAR 240B
ENCODING 9227
SWIDTH 888 0
DWIDTH 16 0
BBX 12 7 2 0
BITMAP
89F0
8840
5040
5040
5040
2040
2040
ENDCHAR
STARTCHAR 240C
ENCODING 9228
SWIDTH 1000 0
DWIDTH 18 0
BBX 10 7 4 0
BITMAP
F3C0
8200
8200
F3C0
8200
8200
8200
ENDCHAR
STARTCHAR 240D
ENCODING 9229
SWIDTH 1000 0
DWIDTH 18 0
BBX 12 7 3 0
BITMAP
79E0
C120
8120
81C0
8140
C120
7930
ENDCHAR
STARTCHAR 240E
ENCODING 9230
SWIDTH 1000 0
DWIDTH 18 0
BBX 12 7 3 0
BITMAP
70E0
8110
C110
6110
1110
1110
E0E0
ENDCHAR
STARTCHAR 240F
ENCODING 9231
SWIDTH 1000 0
DWIDTH 18 0
BBX 11 7 3 0
BITMAP
73E0
8080
C080
6080
1080
1080
E3E0
ENDCHAR
STARTCHAR 2410
ENCODING 9232
SWIDTH 1000 0
DWIDTH 18 0
BBX 16 7 1 0
BITMAP
F10F
9908
8908
890E
8908
9908
F1EF
ENDCHAR
STARTCHAR 2411
ENCODING 9233
SWIDTH 1000 0
DWIDTH 18 0
BBX 17 7 1 0
BITMAP
F1E600
9B0E00
8A0200
8A0200
8A0200
9B0200
F1EF80
ENDCHAR
STARTCHAR 2412
ENCODING 9234
SWIDTH 1000 0
DWIDTH 18 0
BBX 16 7 1 0
BITMAP
F1E6
9B09
8A01
8A02
8A04
9B08
F1EF
ENDCHAR
STARTCHAR 2413
ENCODING 9235
SWIDTH 1000 0
DWIDTH 18 0
BBX 16 7 1 0
BITMAP
F1EE
9B09
8A01
8A06
8A01
9B09
F1EE
ENDCHAR
STARTCHAR 2414
ENCODING 9236
SWIDTH 1000 0
DWIDTH 18 0
BBX 17 7 1 0
BITMAP
F1E100
9B0300
8A0500
8A0D00
8A0F80
9B0100
F1E100
ENDCHAR
STARTCHAR 2415
ENCODING 9237
SWIDTH 1000 0
DWIDTH 18 0
BBX 15 7 1 0
BITMAP
9112
D114
D294
B298
B394
B454
9452
ENDCHAR
STARTCHAR 2416
ENCODING 9238
SWIDTH 1000 0
DWIDTH 18 0
BBX 15 7 1 0
BITMAP
7452
829A
C29A
6116
1116
1116
E112
ENDCHAR
STARTCHAR 2417
ENCODING 9239
SWIDTH 1000 0
DWIDTH 18 0
BBX 15 7 1 0
BITMAP
F7DE
8112
8112
E11C
8112
8112
F11E
ENDCHAR
STARTCHAR 2418
ENCODING 9240
SWIDTH 1000 0
DWIDTH 18 0
BBX 15 7 1 0
BITMAP
7912
C19A
829A
8296
8396
C656
7C52
ENDCHAR
STARTCHAR 2419
ENCODING 9241
SWIDTH 1000 0
DWIDTH 18 0
BBX 12 7 3 0
BITMAP
F190
81B0
81B0
E150
8150
8110
F110
ENDCHAR
STARTCHAR 241A
ENCODING 9242
SWIDTH 1000 0
DWIDTH 18 0
BBX 16 7 1 0
BITMAP
724F
8249
C249
624E
1249
1249
E18F
ENDCHAR
STARTCHAR 241B
ENCODING 9243
SWIDTH 1000 0
DWIDTH 18 0
BBX 17 7 1 0
BITMAP
F1C780
820C00
830800
E18800
804800
804C00
F38780
ENDCHAR
STARTCHAR 241C
ENCODING 9244
SWIDTH 1000 0
DWIDTH 18 0
BBX 10 7 4 0
BITMAP
F1C0
8200
8300
F180
8040
8040
8380
ENDCHAR
STARTCHAR 241D
ENCODING 9245
SWIDTH 1000 0
DWIDTH 18 0
BBX 11 7 3 0
BITMAP
78E0
C100
8180
80C0
8820
C820
79C0
ENDCHAR
STARTCHAR 241E
ENCODING 9246
SWIDTH 1000 0
DWIDTH 18 0
BBX 11 7 3 0
BITMAP
F0E0
9100
9180
E0C0
A020
9020
99C0
ENDCHAR
STARTCHAR 241F
ENCODING 9247
SWIDTH 1000 0
DWIDTH 18 0
BBX 11 7 3 0
BITMAP
90E0
9100
9180
90C0
9020
9020
61C0
ENDCHAR
STARTCHAR 2420
ENCODING 9248
SWIDTH 1000 0
DWIDTH 18 0
BBX 11 7 3 0
BITMAP
71E0
8120
C120
61C0
1100
1100
E100
ENDCHAR
STARTCHAR 2421
ENCODING 9249
SWIDTH 1000 0
DWIDTH 18 0
BBX 16 7 1 0
BITMAP
F3C8
9A08
8A08
8B88
8A08
9A08
F3CF
ENDCHAR
STARTCHAR 2422
ENCODING 9250
SWIDTH 1000 0
DWIDTH 18 0
BBX 13 14 2 0
BITMAP
0C60
0C40
0C80
0D80
0DE0
0E30
0C18
0C18
0C18
1C18
2C18
2C10
4E30
CDE0
ENDCHAR
STARTCHAR 2423
ENCODING 9251
SWIDTH 333 0
DWIDTH 6 0
BBX 6 3 0 -3
BITMAP
84
84
FC
ENDCHAR
STARTCHAR 2424
ENCODING 9252
SWIDTH 1000 0
DWIDTH 18 0
BBX 11 7 4 0
BITMAP
9100
D100
D100
B100
B100
B100
91E0
ENDCHAR
STARTCHAR 2500
ENCODING 9472
SWIDTH 1000 0
DWIDTH 18 0
BBX 18 1 0 5
BITMAP
FFFFC0
ENDCHAR
STARTCHAR 2501
ENCODING 9473
SWIDTH 1000 0
DWIDTH 18 0
BBX 18 1 0 5
BITMAP
FFFFC0
ENDCHAR
STARTCHAR 2502
ENCODING 9474
SWIDTH 1000 0
DWIDTH 18 0
BBX 1 18 8 -4
BITMAP
80
80
80
80
80
80
80
80
80
80
80
80
80
80
80
80
80
80
ENDCHAR
STARTCHAR 2503
ENCODING 9475
SWIDTH 1000 0
DWIDTH 18 0
BBX 2 18 8 -4
BITMAP
C0
C0
C0
C0
C0
C0
C0
C0
C0
C0
C0
C0
C0
C0
C0
C0
C0
C0
ENDCHAR
STARTCHAR 2504
ENCODING 9476
SWIDTH 1000 0
DWIDTH 18 0
BBX 17 1 1 5
BITMAP
FBEF80
ENDCHAR
STARTCHAR 2505
ENCODING 9477
SWIDTH 1000 0
DWIDTH 18 0
BBX 17 2 1 4
BITMAP
FBEF80
FBEF80
ENDCHAR
STARTCHAR 2506
ENCODING 9478
SWIDTH 1000 0
DWIDTH 18 0
BBX 1 17 8 -3
BITMAP
80
80
80
80
80
00
80
80
80
80
80
00
80
80
80
80
80
ENDCHAR
STARTCHAR 2507
ENCODING 9479
SWIDTH 1000 0
DWIDTH 18 0
BBX 2 17 8 -3
BITMAP
C0
C0
C0
C0
C0
00
C0
C0
C0
C0
C0
00
C0
C0
C0
C0
C0
ENDCHAR
STARTCHAR 2508
ENCODING 9480
SWIDTH 1000 0
DWIDTH 18 0
BBX 18 1 1 5
BITMAP
E739C0
ENDCHAR
STARTCHAR 2509
ENCODING 9481
SWIDTH 1000 0
DWIDTH 18 0
BBX 18 2 1 4
BITMAP
E739C0
E739C0
ENDCHAR
STARTCHAR 250A
ENCODING 9482
SWIDTH 1000 0
DWIDTH 18 0
BBX 1 18 8 -4
BITMAP
80
80
80
00
00
80
80
80
00
00
80
80
80
00
00
80
80
80
ENDCHAR
STARTCHAR 250B
ENCODING 9483
SWIDTH 1000 0
DWIDTH 18 0
BBX 2 18 8 -4
BITMAP
C0
C0
C0
00
00
C0
C0
C0
00
00
C0
C0
C0
00
00
C0
C0
C0
ENDCHAR
STARTCHAR 250C
ENCODING 9484
SWIDTH 1000 0
DWIDTH 18 0
BBX 10 9 8 -4
BITMAP
FFC0
8000
8000
8000
8000
8000
8000
8000
8000
ENDCHAR
STARTCHAR 250D
ENCODING 9485
SWIDTH 1000 0
DWIDTH 18 0
BBX 10 10 8 -4
BITMAP
FFC0
FFC0
8000
8000
8000
8000
8000
8000
8000
8000
ENDCHAR
STARTCHAR 250E
ENCODING 9486
SWIDTH 1000 0
DWIDTH 18 0
BBX 10 10 8 -4
BITMAP
FFC0
C000
C000
C000
C000
C000
C000
C000
C000
C000
ENDCHAR
STARTCHAR 250F
ENCODING 9487
SWIDTH 1000 0
DWIDTH 18 0
BBX 10 10 8 -4
BITMAP
FFC0
FFC0
C000
C000
C000
C000
C000
C000
C000
C000
ENDCHAR
STARTCHAR 2510
ENCODING 9488
SWIDTH 1000 0
DWIDTH 18 0
BBX 10 10 0 -4
BITMAP
FFC0
0040
0040
0040
0040
0040
0040
0040
0040
0040
ENDCHAR
STARTCHAR 2511
ENCODING 9489
SWIDTH 1000 0
DWIDTH 18 0
BBX 10 10 0 -4
BITMAP
FFC0
FFC0
0040
0040
0040
0040
0040
0040
0040
0040
ENDCHAR
STARTCHAR 2512
ENCODING 9490
SWIDTH 1000 0
DWIDTH 18 0
BBX 10 10 0 -4
BITMAP
FFC0
00C0
00C0
00C0
00C0
00C0
00C0
00C0
00C0
00C0
ENDCHAR
STARTCHAR 2513
ENCODING 9491
SWIDTH 1000 0
DWIDTH 18 0
BBX 10 10 0 -4
BITMAP
FFC0
FFC0
00C0
00C0
00C0
00C0
00C0
00C0
00C0
00C0
ENDCHAR
STARTCHAR 2514
ENCODING 9492
SWIDTH 1000 0
DWIDTH 18 0
BBX 9 9 8 5
BITMAP
8000
8000
8000
8000
8000
8000
8000
8000
FF80
ENDCHAR
STARTCHAR 2515
ENCODING 9493
SWIDTH 1000 0
DWIDTH 18 0
BBX 10 10 8 4
BITMAP
8000
8000
8000
8000
8000
8000
8000
8000
FFC0
FFC0
ENDCHAR
STARTCHAR 2516
ENCODING 9494
SWIDTH 1000 0
DWIDTH 18 0
BBX 10 9 8 5
BITMAP
C000
C000
C000
C000
C000
C000
C000
C000
FFC0
ENDCHAR
STARTCHAR 2517
ENCODING 9495
SWIDTH 1000 0
DWIDTH 18 0
BBX 10 10 8 4
BITMAP
C000
C000
C000
C000
C000
C000
C000
C000
FFC0
FFC0
ENDCHAR
STARTCHAR 2518
ENCODING 9496
SWIDTH 1000 0
DWIDTH 18 0
BBX 10 9 0 5
BITMAP
0040
0040
0040
0040
0040
0040
0040
0040
FFC0
ENDCHAR
STARTCHAR 2519
ENCODING 9497
SWIDTH 1000 0
DWIDTH 18 0
BBX 10 10 0 4
BITMAP
0040
0040
0040
0040
0040
0040
0040
0040
FFC0
FFC0
ENDCHAR
ENDFONT
